<?xml version="1.0" encoding="utf-8"?>
<!-- Generator: Adobe Illustrator 26.0.0, SVG Export Plug-In . SVG Version: 6.00 Build 0)  -->
<svg version="1.1" id="Layer_1" xmlns="http://www.w3.org/2000/svg" xmlns:xlink="http://www.w3.org/1999/xlink" x="0px" y="0px"
	 viewBox="0 0 100 100" style="enable-background:new 0 0 100 100;" xml:space="preserve">
<style type="text/css">
	.st0{fill:#677082;}
	.st1{fill:none;}
</style>
<g id="Group_460" transform="translate(-356 -249)">
	<g id="Path_729">
		<path class="st0" d="M401.77,319.16l-0.09-40.4l9.54,0.09l0.09,40.4L401.77,319.16z M385.84,303.41l-0.09-8.91l41.39,0.09
			l0.09,8.91L385.84,303.41z"/>
	</g>
	<g id="Rectangle_368" transform="translate(356 249)">
		<g>
			<path class="st1" d="M16.26,2.76h67.48c7.45,0,13.5,6.04,13.5,13.5v67.48c0,7.45-6.04,13.5-13.5,13.5H16.26
				c-7.45,0-13.5-6.04-13.5-13.5V16.26C2.76,8.8,8.8,2.76,16.26,2.76z"/>
		</g>
		<g>
			<path class="st0" d="M83.74,97.24H16.26c-7.44,0-13.5-6.05-13.5-13.5V16.26c0-7.44,6.05-13.5,13.5-13.5h67.48
				c7.44,0,13.5,6.05,13.5,13.5v67.48C97.24,91.18,91.18,97.24,83.74,97.24z M16.26,7.26c-4.96,0-9,4.04-9,9v67.48
				c0,4.96,4.04,9,9,9h67.48c4.96,0,9-4.04,9-9V16.26c0-4.96-4.04-9-9-9H16.26z"/>
		</g>
	</g>
</g>
</svg>
