<?xml version="1.0" encoding="utf-8"?>
<!-- Generator: Adobe Illustrator 27.0.0, SVG Export Plug-In . SVG Version: 6.00 Build 0)  -->
<svg version="1.1" id="Layer_1" xmlns="http://www.w3.org/2000/svg" xmlns:xlink="http://www.w3.org/1999/xlink" x="0px" y="0px"
	 viewBox="0 0 100 100" style="enable-background:new 0 0 100 100;" xml:space="preserve">
<g>
	<path d="M45.1,18.9c9.7,0,19.3,0,29,0c0.3,0,0.6,0,0.8,0c1.1,0,1.6,0.5,1.6,1.6c0,3,0,6,0,9c0,3.3,0,6.5,0,9.8c0,1,0.2,1.3,1.2,1.6
		c2.4,1,4.9,1.9,7.3,2.9c1.5,0.6,1.7,1.1,1.1,2.6c-2,5-4,10.1-6.1,15.1c-2.4,5.9-4.7,11.8-7.1,17.7c-0.1,0.1-0.1,0.3-0.2,0.4
		c-0.6,1.5-1.1,1.7-2.6,1.1c-11.8-4.6-23.5-9.3-35.3-13.9c-6.5-2.6-13-5.1-19.5-7.7c-1.5-0.6-1.8-1.1-1.8-2.7c0-11.8,0-23.5,0-35.3
		c0-0.1,0-0.2,0-0.3c0-1.4,0.4-1.8,1.8-1.8c8.1,0,16.3,0,24.4,0C41.6,18.9,43.3,18.9,45.1,18.9z M16.4,55.9c0.4,0,0.7,0,1,0
		c18.5,0,36.9,0,55.4,0c1,0,1,0,1-0.9c0-10.8,0-21.6,0-32.4c0-0.7-0.2-0.9-0.9-0.9c-18.5,0-37,0-55.6,0c-0.9,0-0.9,0-0.9,0.9
		c0,10.8,0,21.5,0,32.3C16.4,55.2,16.4,55.5,16.4,55.9z M22.5,58.6c0,0.1,0,0.2-0.1,0.3c16,6.3,32,12.7,48.1,19
		c4.3-10.6,8.5-21.2,12.8-31.8c-2.3-0.9-4.5-1.8-6.8-2.7c0,1.2,0,2.3,0,3.4c0,3.4,0,6.8,0,10.1c0,0.7-0.2,1.2-0.8,1.6
		c-0.4,0.2-0.8,0.6-0.9,1c-0.9,2.1-1.7,4.3-2.6,6.4c-0.4,1-1,1.5-2.2,1.5c-2.7-0.1-5,1-6.9,3c-0.8,0.9-1,0.9-2.1,0.5
		c-9.7-3.8-19.4-7.6-29.1-11.5c-0.2-0.1-0.3-0.2-0.5-0.3c-0.5-0.2-1-0.5-1.4-0.5c-2.2-0.1-4.5,0-6.7,0C23,58.6,22.7,58.6,22.5,58.6z
		 M72,58.7c-11.4,0-22.7,0-34,0c0.2,0.3,0.3,0.4,0.6,0.5c7.3,2.9,14.7,5.8,22,8.7c0.6,0.2,1.1,0.2,1.6-0.3c1.9-1.7,4.1-2.7,6.6-2.8
		c0.7,0,1.1-0.3,1.3-1c0.5-1.4,1.1-2.7,1.6-4.1C71.8,59.4,71.9,59.1,72,58.7z"/>
	<path d="M45,52.8c-5.7,0-11.5,0-17.2,0c-1.2,0-1.4-0.1-1.8-1.2c-1-2.7-2.8-4.4-5.4-5.4c-1.1-0.4-1.3-0.7-1.3-1.9
		c0-3.7,0-7.4,0-11.1c0-1.3,0.2-1.6,1.4-2c2.4-0.9,4.2-2.5,5.1-5c0.5-1.3,1.2-1.7,2.5-1.6c7.3,0.1,14.7,0,22,0c4,0,7.9,0,11.9,0
		c1.3,0,1.5,0.1,1.9,1.3c0.9,2.6,2.7,4.3,5.3,5.3c1.1,0.4,1.4,0.7,1.4,1.9c0,3.8,0,7.6,0,11.4c0,1-0.2,1.3-1.1,1.7
		c-2.8,1-4.7,2.8-5.6,5.6c-0.2,0.7-0.7,1.1-1.5,1.1C56.7,52.8,50.8,52.8,45,52.8z M45.1,27.3c-5.2,0-10.4,0-15.6,0
		c-0.8,0-1.3,0.2-1.6,1c-1.1,2.2-2.7,3.9-4.9,4.9c-0.7,0.4-1,0.8-1,1.6c0,2.7,0,5.3,0,8c0,0.8,0.3,1.3,1,1.6
		c1.8,0.8,3.4,2.1,4.3,3.9c0.9,1.8,2.1,2,3.9,2c7.8-0.1,15.6,0,23.3,0c2.1,0,4.1,0,6.2,0c0.6,0,1.1-0.1,1.4-0.7
		c1.1-2.3,2.9-4,5.2-5.2c0.6-0.3,0.8-0.7,0.8-1.4c0-2.7,0-5.5,0-8.2c0-0.8-0.3-1.2-0.9-1.5c-2.3-1.1-4-2.8-5.1-5.1
		c-0.3-0.6-0.7-0.8-1.3-0.8C55.5,27.3,50.3,27.3,45.1,27.3z"/>
	<path d="M36.6,38.7c-0.1-4.3,3.5-8.3,8.5-8.4c4.7,0,8.6,3.9,8.5,8.6c-0.1,4.6-3.7,8.3-8.5,8.3C39.9,47.2,36.4,43.1,36.6,38.7z
		 M45,44.5c3.1,0,5.8-2.6,5.8-5.7c0-3.1-2.6-5.8-5.7-5.8c-3.2,0-6,2.6-5.9,5.8C39.2,41.9,41.9,44.5,45,44.5z"/>
	<path d="M27.3,38.7c0-1.1,0.9-2,2-2c1.1,0,2.1,0.9,2.1,2c0,1.1-1,2.1-2.1,2.1C28.1,40.8,27.2,39.9,27.3,38.7z M29.3,37.8
		c-0.8,0.7-0.8,0.9-0.4,1.4c0.3,0.3,0.6,0.4,0.9,0C30.1,38.7,30,38.4,29.3,37.8z"/>
	<path d="M62.9,38.7c0,1.1-0.9,2-2,2.1c-1.1,0-2.1-0.9-2.1-2c0-1,1-2,2-2.1C61.9,36.7,62.8,37.6,62.9,38.7z M61.8,38.8
		c-0.6-0.8-0.9-0.9-1.3-0.5c-0.3,0.3-0.4,0.6,0,0.9C60.8,39.6,61.1,39.6,61.8,38.8z"/>
</g>
</svg>
