<?xml version="1.0" encoding="utf-8"?>
<!-- Generator: Adobe Illustrator 27.0.0, SVG Export Plug-In . SVG Version: 6.00 Build 0)  -->
<svg version="1.1" id="Layer_1" xmlns="http://www.w3.org/2000/svg" xmlns:xlink="http://www.w3.org/1999/xlink" x="0px" y="0px"
	 viewBox="0 0 100 100" style="enable-background:new 0 0 100 100;" xml:space="preserve">
<g>
	<path d="M49.8,16.49c-6.55,0-13.11,0.24-19.65-0.06c-7.42-0.35-13.76,4.57-13.85,12.44c-0.16,14.32-0.28,28.65,0.16,42.95
		c0.23,7.56,5.52,11.9,13.13,12.07c4.1,0.09,8.21,0.03,12.31,0.05c1.69,0.01,2.88,0.6,2.97,2.53c0.09,1.89-1.05,2.9-2.66,2.9
		c-5.58,0.01-11.23,0.36-16.71-0.45c-8.79-1.3-14.87-8.74-14.94-17.58c-0.12-14.06-0.13-28.13,0-42.19
		c0.09-10.61,8.07-18.39,19.02-18.51c13.62-0.15,27.25-0.15,40.88,0c11.2,0.12,18.88,8.18,18.9,19.44c0.01,4.45,0,8.91,0,13.36
		c0,1.91-0.46,3.68-2.69,3.77c-2.4,0.09-2.93-1.65-2.95-3.73c-0.06-5.41,0.04-10.84-0.36-16.22c-0.45-6.03-5.48-10.6-11.55-10.71
		c-7.33-0.14-14.67-0.03-22.01-0.03C49.8,16.52,49.8,16.5,49.8,16.49z"/>
	<path d="M89.52,64.01c-0.73,1.47-1.51,4.27-3.24,6.24c-3.79,4.32-8.03,8.25-12.14,12.28c-3.03,2.97-6.88,4.36-10.9,5.29
		c-2.45,0.57-4.94,1.01-7.41,1.48c-2.53,0.48-4.21-0.68-3.86-3.1c1.13-7.86,2.32-15.69,8.82-21.44c3.72-3.29,6.97-7.1,10.7-10.39
		c3.38-2.99,7.4-3.19,11.48-1.35C87.13,54.91,88.98,58.35,89.52,64.01z M58.59,82.7c4.09-0.24,7.84-1.03,10.68-3.55
		c4.55-4.04,8.83-8.41,13.02-12.82c1.98-2.09,1.69-5.21-0.16-7.11c-1.96-2-4.92-2.47-7.06-0.44c-4.66,4.43-9.24,8.99-13.42,13.87
		C59.38,75.32,58.51,78.9,58.59,82.7z"/>
	<path d="M45.99,32.3c-0.04,5-4.13,9.02-9.06,8.9c-4.99-0.12-8.74-4.1-8.69-9.23c0.05-5.08,3.91-8.84,9.03-8.8
		C42.25,23.21,46.03,27.17,45.99,32.3z M37.06,35.43c1.98-0.07,3.43-1.63,3.34-3.45c-0.08-1.8-1.71-3.45-3.41-3.22
		c-1.93,0.26-3.24,1.37-3.16,3.46C33.91,34.31,35.25,35.26,37.06,35.43z"/>
	<path d="M39.8,64.88c-3.49,0-6.97-0.02-10.46,0.01c-1.87,0.01-3.46-0.57-3.52-2.62c-0.07-2.19,1.55-2.91,3.53-2.91
		c7.06,0,14.12-0.01,21.18,0.01c1.85,0,3.3,0.6,3.32,2.79c0.02,2.25-1.49,2.72-3.33,2.72C46.95,64.89,43.37,64.88,39.8,64.88z"/>
	<path d="M64.62,37.79c2.96,0,5.93-0.01,8.89,0c1.86,0.01,3.34,0.59,3.29,2.78c-0.05,1.97-1.43,2.7-3.17,2.71
		c-6.1,0.04-12.2,0.03-18.3,0.01c-1.8-0.01-3.21-0.93-3.22-2.73c-0.01-1.95,1.38-2.82,3.36-2.79
		C58.52,37.83,61.57,37.79,64.62,37.79z"/>
	<path d="M64.48,32.35c-3.05,0-6.1-0.03-9.15,0.01c-1.87,0.02-3.21-0.87-3.22-2.66c-0.01-1.94,1.43-2.84,3.36-2.84
		c6.02,0,12.03-0.02,18.05,0.01c1.87,0.01,3.29,0.73,3.28,2.86c-0.01,2.03-1.36,2.63-3.15,2.63C70.58,32.35,67.53,32.36,64.48,32.35
		C64.48,32.35,64.48,32.35,64.48,32.35z"/>
	<path d="M48.01,50.08c-0.06,2.9-2.16,4.13-4.13,2.86c-4.6-2.95-8.99-3.08-13.6,0.02c-0.73,0.49-2.8,0.09-3.38-0.61
		c-0.57-0.68-0.18-2.33,0.1-3.47c0.13-0.55,0.94-0.98,1.51-1.38c4.65-3.28,12.68-3.3,17.25,0.06C46.78,48.32,47.5,49.51,48.01,50.08
		z"/>
	<path d="M33.74,70.33c1.66,0,3.31,0,4.97,0c1.79,0,3.06,1.02,2.79,2.65c-0.18,1.05-1.55,2.6-2.51,2.69
		c-3.55,0.32-7.16,0.32-10.7-0.01c-0.92-0.09-2.34-1.79-2.35-2.75c0-0.86,1.52-2.19,2.59-2.46C30.18,70.02,32,70.33,33.74,70.33z"/>
</g>
</svg>
