<?xml version="1.0" encoding="utf-8"?>
<!-- Generator: Adobe Illustrator 27.0.0, SVG Export Plug-In . SVG Version: 6.00 Build 0)  -->
<svg version="1.1" id="Layer_1" xmlns="http://www.w3.org/2000/svg" xmlns:xlink="http://www.w3.org/1999/xlink" x="0px" y="0px"
	 viewBox="0 0 100 100" style="enable-background:new 0 0 100 100;" xml:space="preserve">
<g>
	<path d="M78.32,82.18c-18.98,0-37.64,0-56.28,0c-0.82-3.16-0.45-3.58,3.74-4.11c0-3.21,0-6.44,0-9.67c0-15.58,0-31.15,0-46.73
		c0-2.87,0.95-3.84,3.83-3.84c13.55-0.01,27.09-0.01,40.64,0c2.95,0,3.93,0.99,3.93,3.93c0,18.16,0,36.33,0,54.49
		c0,0.6,0,1.2,0,1.61c1.34,0.37,2.76,0.4,3.58,1.12C78.35,79.5,78.14,80.94,78.32,82.18z M45.9,78.1c2.8,0,5.4,0,8.1,0
		c0-3.52,0.02-6.9-0.01-10.29c-0.01-1.12-0.7-1.63-1.78-1.63c-1.52-0.01-3.04-0.01-4.56,0c-1.11,0-1.73,0.59-1.74,1.67
		C45.88,71.23,45.9,74.61,45.9,78.1z M37.9,29.87c0.04,3.61-0.74,4.1,3.75,4.1c4.86-0.01,4.22-0.21,4.24-4.23
		c0.02-3.9,0.02-3.88-3.92-3.9C37.68,25.8,37.86,25.69,37.9,29.87z M62.03,29.93c0.02-4.1,0.02-4.1-3.84-4.1
		c-4.21,0-4.21,0-4.19,4.21c0.02,3.9,0.02,3.87,3.93,3.9C62.19,33.99,62.11,33.98,62.03,29.93z M45.89,42.1
		c0.05-4.5,0.19-4.13-4.09-4.13c-3.98-0.01-3.92-0.29-3.91,3.87c0.01,4.38-0.22,4.17,4.1,4.17C45.96,46,45.97,46.21,45.89,42.1z
		 M45.89,54.21c0.03-4.06,0.43-4.21-3.93-4.2c-4.42,0.01-4.06-0.01-4.07,4.06c-0.01,4.23-0.19,4.02,4.09,4.03
		C46.13,58.13,45.94,58.11,45.89,54.21z M57.9,46c4.33,0.04,4.13,0.25,4.15-4.13c0.02-4.23-0.05-3.91-3.91-3.9
		c-4.16,0.01-4.16-0.47-4.15,4.11C54,46.18,53.97,46.05,57.9,46z M57.83,58.1c4.44,0.05,4.23,0.2,4.21-4.22
		c-0.02-3.84,0-3.82-3.83-3.85c-4.44-0.03-4.23-0.16-4.2,4.24C54.02,58.1,54,58.1,57.83,58.1z"/>
</g>
</svg>
