<?xml version="1.0" encoding="utf-8"?>
<!-- Generator: Adobe Illustrator 27.0.0, SVG Export Plug-In . SVG Version: 6.00 Build 0)  -->
<svg version="1.1" id="Layer_1" xmlns="http://www.w3.org/2000/svg" xmlns:xlink="http://www.w3.org/1999/xlink" x="0px" y="0px"
	 viewBox="0 0 100 100" style="enable-background:new 0 0 100 100;" xml:space="preserve">
<style type="text/css">
	.st0{fill:#FFFFFF;}
</style>
<g>
	<path class="st0" d="M49.9,38.8c11.8,0,23.5,0,35.3,0c3,0,3.5,0.4,3.5,3.3c0,14.5,0,29.1-0.1,43.6c0,4.6-3.7,8.2-8.3,8.2
		c-20.1,0-40.3,0-60.4,0c-4.9,0-8.5-3.7-8.5-8.5c0-14.5,0-29.1,0-43.6c0-2.9,0-2.9,3-2.9C26.3,38.9,38.1,38.9,49.9,38.8
		C49.9,38.9,49.9,38.8,49.9,38.8z M77.4,55.4c0-5.2-0.3-5.5-5.6-5.5c-0.6,0-1.1,0-1.7,0c-2.8,0.2-3.5,0.9-3.6,3.7c0,1,0,2.1,0,3.1
		c0,3.6,0.6,4.1,4.1,4.1c0.3,0,0.7,0,1,0C77.3,60.9,77.4,60.9,77.4,55.4z M22.6,55.5c0,1,0,2,0,2.9c0.1,1.5,1,2.4,2.4,2.5
		c2,0.1,4,0,6.1-0.1c1.5-0.1,2.3-0.9,2.3-2.4c0-1.5,0.1-2.9,0.1-4.4c0-3.3-0.7-3.9-4.1-4.1c-0.4,0-0.8,0-1.3,0
		C23,49.9,22.5,50.4,22.6,55.5z M44.7,55.4c0,0.8,0,1.5,0,2.3c-0.2,2.1,0.8,3.2,2.9,3.2c1.9,0,3.8,0,5.6-0.1
		c1.5-0.1,2.2-1.1,2.3-2.5c0-1.6,0-3.2,0-4.8c0-2.4-0.8-3.2-3.2-3.5c-0.7-0.1-1.4-0.1-2.1-0.1C44.9,49.9,44.7,50.1,44.7,55.4z
		 M33.4,77.5c0-5.3,0-5.3-5.3-5.4c-0.1,0-0.1,0-0.2,0c-5.2,0-5.4,0.2-5.4,5.4c0,5.2,0.2,5.3,5.4,5.3C33.4,82.9,33.4,82.9,33.4,77.5z
		 M77.4,77.5c0-0.8,0-1.5,0-2.3c-0.1-2.5-0.6-3.1-3.1-3.1c-1.4,0-2.8,0-4.2,0c-2.8,0-3.4,0.7-3.5,3.4c0,0.6,0,1.3,0,1.9
		c0,5.4,0,5.5,5.5,5.5C77.4,82.8,77.4,82.8,77.4,77.5z M50.1,72.1c-0.8,0-1.7,0-2.5,0C45.6,72,44.7,73,44.7,75c0,1.7,0,3.5,0,5.2
		c0,1.7,0.8,2.6,2.6,2.6c1.6,0,3.2,0.1,4.8,0c2.6-0.1,3.3-0.8,3.4-3.4c0-0.6,0-1.3,0-1.9C55.5,72.3,55.4,72.1,50.1,72.1z"/>
	<path class="st0" d="M11.3,33.7c0.2-3.7,0.1-7.1,0.6-10.3c0.6-3.9,4-6.4,7.9-6.5c1.9,0,3.8-0.1,5.7,0c1.7,0.1,2.4-0.5,2.4-2.3
		c0-1.5,0.1-2.9,0.4-4.4C28.7,7.5,30.9,5.9,34,6c2.6,0.1,4.6,1.9,4.9,4.6c0.1,1,0.2,1.9,0.3,2.9c0.3,3.4,0.3,3.4,3.8,3.4
		c5.2,0,10.5-0.1,15.7,0c1.8,0,2.4-0.6,2.2-2.3c-0.1-1.3,0-2.7,0.1-4c0.3-2.7,2.4-4.6,5.1-4.7c3.1-0.1,5,1.2,5.6,4.2
		c0.3,1.6,0.5,3.2,0.4,4.8c-0.1,1.7,0.6,2,2.1,2c2.4,0,4.8-0.1,7.1,0.3c4.6,0.6,6.9,3.1,7.3,7.8c0.2,1.9,0.1,3.9,0.1,5.9
		c0,2.6-0.3,2.9-2.9,2.9c-5.7,0-11.5,0-17.2,0c-17.7,0-35.5,0-53.2,0C14.2,33.7,12.9,33.7,11.3,33.7z"/>
</g>
</svg>
