<?xml version="1.0" encoding="utf-8"?>
<!-- Generator: Adobe Illustrator 27.0.0, SVG Export Plug-In . SVG Version: 6.00 Build 0)  -->
<svg version="1.1" id="Layer_1" xmlns="http://www.w3.org/2000/svg" xmlns:xlink="http://www.w3.org/1999/xlink" x="0px" y="0px"
	 viewBox="0 0 100 100" style="enable-background:new 0 0 100 100;" xml:space="preserve">
<style type="text/css">
	.st0{fill:#FFFFFF;}
</style>
<g>
	<path class="st0" d="M93.4,76.4c-2.7,5.1-5.3,10.1-7.9,15.2c-1.1,2.2-2.8,2.8-5,2.3c-35.5-8.3-60-28.9-71.4-64.1
		C7.9,26.1,7,22.2,5.8,17.9c0.8-1,1.5-2.5,2.7-3.1c5-2.8,10.1-5.3,15.1-8c2.5-1.3,4.5-0.8,5.9,1.7c3.2,5.5,6.5,11,9.4,16.7
		c0.7,1.5,0.2,3.8-0.2,5.6c-0.3,1.3-1.5,2.5-2.2,3.7c-3,4.9-3,4.9,0.3,9.4c6,8,13.2,14.9,21.3,20.8c1.8,1.3,3.1,1.4,5.1,0.2
		c10.6-6.4,6.7-6.6,18.3-0.1c3.3,1.8,6.6,3.8,9.9,5.7C94.1,71.9,94.7,73.8,93.4,76.4z"/>
	<path class="st0" d="M94.2,29.7c0.1,7.1-5.8,13.5-12.9,13.8c-5.7,0.2-11.4,0.1-17.1,0.1c-2.5,0-4.2-1.2-4.1-3.8
		c0.1-2.5,1.9-3.3,4.2-3.4c5,0,10.1,0,15.1-0.1c4.1-0.1,6.7-2,7.3-5.2c0.8-4.4-2-7.7-6.9-7.8c-6.6-0.1-13.2,0-19.8,0
		c-0.3,0.4-0.6,0.8-1,1.2c1.3,0.9,2.7,1.6,3.8,2.7c1.6,1.5,1.7,3.4,0.1,5.1c-1.6,1.6-3.5,1.5-5.1,0c-3.4-3.3-6.7-6.6-10-10
		C46,20.6,46,18.7,47.8,17c3.2-3.2,6.5-6.5,9.8-9.7C59.1,5.8,61,5.5,62.6,7c1.8,1.7,1.6,3.6-0.1,5.3c-1,1-2.4,1.7-3.5,2.5
		c0.2,0.4,0.5,0.7,0.7,1.1c0.9,0.1,1.9,0.2,2.8,0.2c6.3,0,12.5-0.1,18.8,0.1C88.5,16.5,94.1,22.6,94.2,29.7z"/>
</g>
</svg>
