<?xml version="1.0" encoding="utf-8"?>
<!-- Generator: Adobe Illustrator 27.0.0, SVG Export Plug-In . SVG Version: 6.00 Build 0)  -->
<svg version="1.1" id="Layer_1" xmlns="http://www.w3.org/2000/svg" xmlns:xlink="http://www.w3.org/1999/xlink" x="0px" y="0px"
	 viewBox="0 0 100 100" style="enable-background:new 0 0 100 100;" xml:space="preserve">
<g>
	<g>
		<path d="M50,93c-6.7-0.2-13-1.8-18.9-4.7c-1.8-0.9-3.3-1-5.2-0.3c-4.3,1.5-8.7,2.8-13.1,4.3c-1.7,0.5-3.3,0.8-4.6-0.6
			c-1.4-1.4-1.1-3-0.6-4.7c1.5-4.5,2.9-9,4.4-13.5c0.6-1.6,0.4-3-0.4-4.6C-1.2,43,14.5,12.5,43.1,7.6c23.3-4,45.5,12.6,49.3,35.8
			c3.5,21.5-11.3,43.8-33.1,48.3C56.2,92.3,53.1,92.6,50,93z M16,83.8c3.7-1.2,7-2.1,10.3-3.3c2.2-0.8,4.1-0.6,6.1,0.6
			c7.3,4.1,15.1,5.5,23.3,4.3c19.7-3,33.4-22.6,29.5-42.1c-3.9-19.3-21.8-32.4-42.4-28.3C19,19.6,7.1,45.8,18.6,67.1
			c1.3,2.4,1.5,4.7,0.5,7.3C18.1,77.3,17.2,80.3,16,83.8z"/>
	</g>
	<g>
		<path d="M66.6,45.6c2.4,0,4.4,1.8,4.4,4.2c0,2.3-1.9,4.2-4.1,4.3c-2.4,0.1-4.4-1.8-4.4-4.2C62.3,47.5,64.1,45.7,66.6,45.6z"/>
	</g>
	<g>
		<path d="M29.1,50c0-2.5,1.7-4.3,4.2-4.3c2.4,0,4.4,1.9,4.4,4.2c0,2.3-2.1,4.3-4.4,4.3C31,54.2,29.1,52.3,29.1,50z"/>
	</g>
	<g>
		<path d="M50,45.6c2.5,0,4.2,1.8,4.2,4.3c0,2.3-1.9,4.2-4.2,4.2c-2.3,0-4.4-2-4.4-4.3C45.6,47.5,47.6,45.6,50,45.6z"/>
	</g>
</g>
</svg>
