<?xml version="1.0" encoding="utf-8"?>
<!-- Generator: Adobe Illustrator 27.0.0, SVG Export Plug-In . SVG Version: 6.00 Build 0)  -->
<svg version="1.1" id="Layer_1" xmlns="http://www.w3.org/2000/svg" xmlns:xlink="http://www.w3.org/1999/xlink" x="0px" y="0px"
	 viewBox="0 0 100 100" style="enable-background:new 0 0 100 100;" xml:space="preserve">
<g>
	<path d="M41.3,65.2c-0.7-0.4-1.4-0.9-2.2-1.3c-5.2-3.2-8.4-7.8-9.6-13.8c0-0.1,0-0.3-0.1-0.4c-0.1-1-0.6-1.6-1.5-2.1
		c-2.4-1.1-3.5-3.1-3.5-5.7c0-2.6,1.1-4.6,3.5-5.7c0.9-0.4,1.2-1,1.2-2c-0.1-4.8,1-9.3,3.9-13.1c3.1-4.1,7-7,12-8.4
		c4.2-1.1,8.3-0.7,12.3,0.8c7.3,2.6,11.7,7.8,13.5,15.2c0.2,0.8,0.3,1.7,0.4,2.5c0.1,0.4,0.2,0.5,0.7,0.5c2.5,0,5.1,0,7.6,0
		c0.5,0,0.6,0.1,0.6,0.6c0,1.1,0,2.1,0,3.2c0,0.4-0.1,0.6-0.6,0.6c-2,0-4.1,0-6.1,0c-0.2,0-0.4,0-0.8,0c0.3,0.3,0.5,0.5,0.8,0.7
		c1.1,0.9,2,1.9,2.4,3.3c0.8,2.9-0.1,6.2-3.3,7.8c-0.9,0.4-1.3,1.1-1.4,2c-0.9,5.5-3.7,10-8.3,13.2c-1,0.7-2.1,1.3-3.2,1.9
		c-0.2,0.1-0.3,0.2-0.6,0.4c0.3,0,0.5,0,0.6,0c3.9,0,7.9,0,11.8,0c6,0,11.2,4.4,11.9,10.4c0.3,2.4,0.1,4.8,0.2,7.1
		c0,1.5-0.1,3.1,0,4.6c0,0.5-0.2,0.5-0.6,0.5c-3.9,0-7.7,0-11.6,0c-9.9,0-19.8,0-29.7,0c-8.1,0-16.3,0-24.4,0c-0.2,0-0.3,0-0.5,0
		c0-0.4,0-0.7-0.1-1c0-3.1-0.1-6.2,0-9.4c0.1-4.7,2-8.4,6.2-10.7c1.9-1.1,4-1.5,6.1-1.5c4,0,7.9,0,11.9,0c0.2,0,0.3,0,0.5,0
		C41.3,65.3,41.3,65.2,41.3,65.2z M50,83.6c4.2,0,8.3,0,12.5,0c5.3,0,10.6,0,15.9,0c0.4,0,0.6,0,0.6-0.5c0-2-0.1-3.9,0-5.9
		c0.1-3.1-2.1-6-5-7c-1.4-0.5-2.8-0.4-4.2-0.4c-3.7,0-7.3,0-11,0c-0.8,0-1.3,0.3-1.7,1c-1.1,2.2-2.8,3.7-5.4,4.1
		c-3.6,0.6-6.8-0.8-8.4-4.2c-0.3-0.7-0.8-1-1.6-1c-3.7,0-7.5,0-11.2,0c-1.2,0-2.4,0-3.6,0.2c-3.2,0.6-5.6,3.3-5.9,6.6
		c-0.1,2-0.1,4.1-0.1,6.1c0,0.9,0,0.9,0.9,0.9C31.2,83.6,40.6,83.6,50,83.6z M33.5,44c0.1,1.5,0,2.8,0.2,4.2
		c0.5,4.2,2.4,7.6,5.5,10.4c1.9,1.7,4.2,2.8,6.7,3.5c0.8,0.2,1,0.4,1,1.3c0,1.3,0,2.6,0,3.9c0,2,1.5,3.5,3.3,3.5
		c2,0,3.4-1.4,3.5-3.4c0-1,0-1.9,0-2.9c0-1.5,0.4-2.1,1.8-2.6c3-1,5.6-2.6,7.6-5c2.8-3.3,3.9-7.2,3.9-11.4c0-0.5,0-0.9,0-1.4
		c0.6,0,1.2,0,1.8,0c0.4,0,0.7,0,1.1-0.1c1.2-0.2,1.8-0.9,1.8-2.1c0-1.1-0.7-1.8-1.8-2c-0.8-0.1-1.6-0.1-2.4-0.1
		c-0.4,0-0.5-0.1-0.5-0.5c0-0.8,0-1.7,0-2.5c0-0.5-0.1-0.7-0.7-0.7c-10.7,0-21.4,0-32.2,0c-0.2,0-0.4,0-0.6,0c0,0.1-0.1,0.2-0.1,0.2
		c0,0.9,0,1.8,0,2.8c0,0.7,0,0.7-0.7,0.7c-0.8,0-1.5,0-2.3,0.1c-1.2,0.2-2,1.4-1.6,2.6c0.3,0.9,1.1,1.5,2.2,1.5
		C31.9,44,32.7,44,33.5,44z M33.5,31.6c0.4,0,0.7,0,0.9,0c6.6,0,13.2,0,19.8,0c4,0,8,0,11.9,0c0.7,0,0.7-0.1,0.6-0.7
		c-0.1-0.5-0.1-1-0.3-1.5c-1.2-4.9-4.1-8.6-8.6-11c-4.1-2.1-8.4-2.7-12.8-1.1c-5.3,1.9-9.2,5.4-10.8,11C34,29.3,33.8,30.4,33.5,31.6
		z"/>
	<path d="M56.8,50.4c0,4-3.5,6.5-6.4,6.5c-3,0-6.6-2.2-6.6-6.6c0.4,0,0.7,0,1.1,0c0.7,0,1.4,0,2,0c0.7,0,1.2,0.1,1.5,0.9
		c0.3,0.8,0.9,1.2,1.7,1.2c0.9,0.1,1.6-0.2,1.9-1.1c0.4-0.9,1-1.1,1.8-1C54.8,50.4,55.8,50.4,56.8,50.4z"/>
	<path d="M62.8,44.8c-1.3,0-2.5,0-3.8,0c-0.2,0-0.4-0.2-0.6-0.4c-0.8-0.9-1.4-0.9-2.2,0c-0.2,0.3-0.5,0.4-0.8,0.4c-1,0-2,0-3,0
		c-0.2,0-0.4,0-0.5,0c-0.2-2.9,2.5-5.5,5.6-5.5C61.1,39.5,63,42.4,62.8,44.8z"/>
	<path d="M48.1,44.8c-1.3,0-2.6,0-3.8,0c-0.2,0-0.4-0.2-0.6-0.4c-0.8-0.9-1.4-0.9-2.1,0c-0.2,0.2-0.5,0.4-0.8,0.4
		c-1,0.1-2.1,0-3.1,0c-0.4,0-0.5-0.2-0.5-0.6c0.1-2.3,2.1-4.5,4.4-4.8c3.2-0.5,5.9,1.3,6.5,4.5C48.1,44.2,48.1,44.5,48.1,44.8z"/>
</g>
</svg>
