<?xml version="1.0" encoding="utf-8"?>
<!-- Generator: Adobe Illustrator 27.0.0, SVG Export Plug-In . SVG Version: 6.00 Build 0)  -->
<svg version="1.1" id="Layer_1" xmlns="http://www.w3.org/2000/svg" xmlns:xlink="http://www.w3.org/1999/xlink" x="0px" y="0px"
	 viewBox="0 0 100 100" style="enable-background:new 0 0 100 100;" xml:space="preserve">
<g>
	<path d="M30.1,19.6c1.7,3.4,3.3,6.8,5,10.1c1,2,2.9,2.9,5.1,3.4c2.1,0.5,4.2,1,6.2,1.7c3.5,1.3,5.7,3.9,6.6,7.5
		c0.9,3.7,1.8,7.4,2.7,11.2c0.8,3.3,3.6,5.6,6.8,5.7c2,0.1,3.3-0.9,4.3-2.4c0.9-1.4,1.6-2.9,2.3-4.4c1.6-3.3,4.3-5.3,7.8-6.1
		c2.9-0.7,5.9-1.4,9-2.2c-0.9-2.8-1.7-5.6-2.6-8.2c-0.8-2.3,0.4-4.2,2.6-4.1c1.4,0,2.3,0.9,2.6,2.2c1.1,3.6,2.4,7.2,3,10.9
		c1.1,7.9,0,15.7-3.5,22.8c-6.3,13-16.6,21.3-30.9,23.8c-12.7,2.2-24.2-0.9-34.2-9.2c-8.4-7-13-16-14.4-26.8
		c-1.3-9.5,0.2-18.5,5.4-26.6c6.4-10,15.1-17.1,27-19.6c2.8-0.6,5.7-0.8,8.6-1c1.9-0.1,3.2,1.1,3.2,2.7c0,1.7-1,2.7-3,2.8
		c-6.3,0.3-12.4,1.7-17.9,4.9C31.3,18.9,30.8,19.2,30.1,19.6z M25.6,23.3c-0.4,0.3-0.7,0.5-0.9,0.7c-6.4,6.2-9.9,13.8-10.9,22.7
		c-0.1,1.3,0.3,2.1,1.4,2.7c2.4,1.4,4.8,2.9,7,4.4c3.2,2.3,6.7,3.4,10.7,3.2c2.7-0.1,5.4,0.4,7.5,2.1c2.4,2.1,4.6,4.5,6.8,6.8
		c4.4,4.7,5.3,10,3.3,16c-0.4,1.3-0.7,2.7-1.2,4.4c2.3-0.2,4.4-0.1,6.4-0.5c10.5-1.8,18.8-7.2,24.7-16.1c3.8-5.6,5.7-11.9,5.8-18.7
		c0-0.9-0.2-1.3-1.2-1c-2.5,0.7-5,1.2-7.5,1.9c-1.4,0.4-2.4,1.3-3.1,2.6c-0.8,1.6-1.6,3.3-2.5,4.9c-1.3,2.3-3.2,4-5.8,4.9
		c-6.6,2.4-14.6-3.6-15.6-8.8c-0.8-4-1.9-8-2.9-12c-0.5-1.8-1.5-3.1-3.4-3.7c-1.9-0.6-3.8-1.2-5.8-1.6c-4.1-0.9-7-3.2-8.7-7
		C28.4,28.7,27,26.1,25.6,23.3z M14.5,55.6c-0.1,0.4-0.2,0.6-0.1,0.7c0.1,0.8,0.2,1.6,0.4,2.4c2.9,11.2,9.7,19.2,20,24.3
		c2.3,1.1,4.8,1.7,7.2,2.4c0.7,0.2,1.6,0.6,1.9-0.7c0.5-2.2,1.2-4.4,1.8-6.6c0.7-2.5,0.1-4.8-1.4-6.8c-1.6-2-3.3-4-5-5.9
		c-1.8-1.9-4-2.9-6.6-2.7c-4.7,0.4-8.9-0.9-12.7-3.6C18.2,57.8,16.3,56.8,14.5,55.6z"/>
	<path d="M56.2,21.9C56.5,15.7,59,11.6,64,9.3c5-2.3,9.9-1.6,14.1,2c5.3,4.5,6.3,11.5,2.4,17.2c-2.8,4-6,7.8-9.1,11.6
		c-1,1.3-2.7,1.3-3.8,0.1c-4.1-4.1-7.9-8.6-10.3-13.9C56.7,24.8,56.5,23,56.2,21.9z M69.5,34.1c2.8-3.1,5.3-6.3,7.1-10
		c1.1-2.4,0.8-4.7-0.6-6.9c-1.9-3.1-5.8-4.3-9.5-2.9c-3.1,1.2-5.4,5-4.6,8.1C63.1,27.1,66.4,30.5,69.5,34.1z"/>
</g>
</svg>
