<?xml version="1.0" encoding="utf-8"?>
<!-- Generator: Adobe Illustrator 27.0.0, SVG Export Plug-In . SVG Version: 6.00 Build 0)  -->
<svg version="1.1" id="Layer_1" xmlns="http://www.w3.org/2000/svg" xmlns:xlink="http://www.w3.org/1999/xlink" x="0px" y="0px"
	 viewBox="0 0 100 100" style="enable-background:new 0 0 100 100;" xml:space="preserve">
<g>
	<path d="M22.66,61.66c1.68-1.82,3.69-2.64,6.09-2.31c0.88,0.12,1.52-0.03,2.13-0.69c1.21-1.29,2.47-2.54,3.75-3.76
		c0.57-0.54,0.66-1,0.24-1.7C25.1,36.64,30.83,15.4,47.71,6.21c17.22-9.37,38.4-2.58,46.93,15.19c2.54,5.29,3.8,10.85,3.2,16.68
		c-1.41,13.72-8.02,23.76-21.03,29.16c-4.49,1.86-9.14,2.85-14,2.67c-5.82-0.22-11.19-1.99-16.2-4.91c-0.27-0.16-0.54-0.29-0.73-0.4
		c-1.73,1.69-3.41,3.31-5.05,4.98c-0.23,0.23-0.33,0.73-0.27,1.07c0.42,2.51-0.31,4.66-2.06,6.42c-6.19,6.24-12.4,12.47-18.65,18.65
		c-3.07,3.04-6.98,3-10.15-0.01c-1.92-1.83-3.79-3.72-5.63-5.63c-2.6-2.7-2.71-6.54-0.36-9.41c0.23-0.28,0.44-0.58,0.54-0.72
		c1.9,1.81,3.65,3.47,5.4,5.15c0.94,0.9,1.98,1.51,3.31,1.01c0.46-0.17,0.92-0.48,1.27-0.83c4.6-4.57,9.18-9.15,13.75-13.74
		c1.45-1.45,1.48-2.96,0.06-4.43c-1.54-1.6-3.12-3.17-4.69-4.76C23.12,62.16,22.91,61.93,22.66,61.66z M93.9,35.9
		C94.08,19.7,80.65,6.12,64.3,5.98c-16.8-0.14-30,13.03-30.18,30.09c-0.17,16.06,13.22,29.57,29.5,29.71
		C79.42,65.93,93.94,53.57,93.9,35.9z"/>
	<path d="M27.13,69.2c-0.22,0.34-0.37,0.69-0.62,0.94c-4.51,4.53-9.03,9.04-13.55,13.55c-0.83,0.83-1.16,0.82-1.98,0.01
		c-1.42-1.4-2.83-2.81-4.23-4.24C6.02,78.71,6,78.23,6.74,77.48c4.51-4.53,9.02-9.05,13.55-13.56c0.7-0.7,1.2-0.69,1.91,0.01
		c1.47,1.44,2.91,2.89,4.35,4.36C26.78,68.53,26.91,68.85,27.13,69.2z"/>
	<path d="M50.38,32.34c-2.09-0.3-4.03-0.57-6.05-0.86c-0.03,0.26-0.08,0.47-0.08,0.68c-0.01,1.26,0.01,2.51-0.01,3.77
		c-0.01,0.67,0.27,1.13,0.81,1.5c1.34,0.91,1.83,2.41,1.34,3.97c-0.47,1.48-1.73,2.38-3.29,2.36c-1.53-0.02-2.83-1.02-3.22-2.47
		c-0.41-1.53,0.16-3.2,1.47-3.96c0.59-0.34,0.76-0.74,0.75-1.38c-0.03-1.77-0.02-3.54-0.01-5.31c0-1.08,0.24-1.38,1.3-1.53
		c4.03-0.59,8.07-1.16,12.1-1.75c2.03-0.29,4.08-0.49,6.09-0.91c2.74-0.57,5.43-0.33,8.15,0.1c5.69,0.89,11.39,1.69,17.08,2.53
		c0.25,0.04,0.51,0.09,0.75,0.15c0.55,0.13,0.81,0.49,0.8,1.05c-0.01,0.56-0.28,0.91-0.85,1c-2.2,0.34-4.39,0.7-6.59,0.98
		c-0.69,0.09-0.89,0.32-0.88,1.01c0.04,3.02,0.02,6.05,0.02,9.08c0,1.35-0.16,1.54-1.48,1.87c-7.9,1.96-15.84,2.21-23.82,0.5
		c-1-0.21-2.01-0.38-3.02-0.58c-1.22-0.24-1.34-0.36-1.35-1.63c-0.01-2.91-0.01-5.82-0.01-8.73C50.38,33.32,50.38,32.87,50.38,32.34
		z M71.93,39.38c-0.01,0-0.02,0-0.02,0c0-0.46,0.01-0.91,0-1.37c-0.03-1.32-0.33-1.62-1.62-1.62c-3.5-0.01-7-0.01-10.5-0.01
		c-0.89,0-1.27,0.34-1.29,1.22c-0.03,1.08-0.02,2.17-0.01,3.25c0.01,1.1,0.23,1.35,1.32,1.47c3.49,0.38,6.99,0.44,10.49,0.09
		c1.38-0.14,1.56-0.33,1.64-1.75C71.95,40.24,71.93,39.81,71.93,39.38z"/>
	<path d="M69.53,39.06c0,0.38,0,0.72,0,1.13c-2.89,0-5.74,0-8.66,0c0-0.37,0-0.72,0-1.13C63.71,39.06,66.57,39.06,69.53,39.06z"/>
</g>
</svg>
