<?xml version="1.0" encoding="utf-8"?>
<!-- Generator: Adobe Illustrator 27.0.0, SVG Export Plug-In . SVG Version: 6.00 Build 0)  -->
<svg version="1.1" id="Layer_1" xmlns="http://www.w3.org/2000/svg" xmlns:xlink="http://www.w3.org/1999/xlink" x="0px" y="0px"
	 viewBox="0 0 100 100" style="enable-background:new 0 0 100 100;" xml:space="preserve">
<g>
	<path d="M87.2,48.2c-1.7,1-3.2,1.8-4.6,2.8c-0.5,0.3-0.7,1.3-0.7,2c-0.1,4.2,0,8.4,0,12.6c0,2.9-0.8,5.6-3.1,7.5
		c-1.1,0.9-2.4,1.7-3.7,2.4c-4.6,2.6-9.3,5.1-14,7.7c-3.7,2-7.7,3.1-11.9,3c-3.7-0.2-7.1-1.3-10.4-3c-5.1-2.8-10.2-5.6-15.3-8.4
		c-3.5-2-5.3-4.9-5.2-9c0.1-4.2,0-8.4,0-12.7c0-1.2-0.5-2.1-1.6-2.7c-3.2-1.7-6.4-3.5-9.6-5.3c-0.4-0.2-0.7-0.4-1.1-0.7
		c-2.8-2.1-2.7-5.7,0.3-7.6C9,35,11.9,33.6,14.7,32c9.6-5.3,19.1-10.6,28.7-15.9c1.6-0.9,3.3-1.6,5-2c2.7-0.7,5.2,0.3,7.5,1.6
		c6.8,3.8,13.6,7.5,20.4,11.3c5.7,3.2,11.4,6.4,17.1,9.6c1.2,0.7,2.1,1.6,2.5,3c0.5,1.8-0.2,3.4-1.5,4.5c-1.3,1.1-1.7,2.4-1.6,4
		c0.1,4.1-0.1,8.2-0.1,12.3c0,2.9,0,5.8,0.1,8.6c0,0.8,0.5,1.6,1,2.3c2.1,2.9,0.9,6.6-2.6,7.5c-2.1,0.5-4.3-0.3-5.5-2.1
		c-1.1-1.6-0.9-3.8,0.4-5.5c0.7-0.9,1-1.8,1-3c0-6.2,0-12.4,0-18.5C87.2,49.2,87.2,48.9,87.2,48.2z M10.2,40.5
		c0.6,0.4,0.9,0.6,1.3,0.9c3.6,2,7.3,4,10.9,6.1c7.9,4.4,15.8,8.7,23.6,13.2c2.7,1.5,5.2,1.6,7.9,0.1C65,54.5,76.1,48.3,87.3,42.1
		c0.8-0.5,1.6-1,2.5-1.5c-0.4-0.3-0.7-0.5-1-0.7c-4.2-2.3-8.4-4.7-12.6-7c-7.9-4.4-15.8-8.7-23.7-13.1c-1.8-1-3.5-0.9-5.2,0.1
		c-9.8,5.4-19.6,10.9-29.4,16.3C15.4,37.6,12.9,39,10.2,40.5z M76.2,54.4c-0.6,0.3-1,0.4-1.3,0.6c-6,3.3-12.1,6.6-18.1,10.1
		c-4.5,2.6-8.9,2.7-13.4,0.1c-6.2-3.5-12.5-7-18.7-10.4c-0.3-0.2-0.6-0.3-0.9-0.4c-0.1,0.2-0.1,0.3-0.1,0.4c0,3.6,0,7.2,0,10.7
		c0,2,0.9,3.6,2.6,4.5c5.5,3.1,11.1,6.2,16.7,9.2c4.3,2.2,8.7,2.3,13.2,0.4c2.1-0.9,4.1-2,6.1-3.1c3.8-2.1,7.5-4.2,11.3-6.3
		c1.7-1,2.7-2.3,2.6-4.4c-0.1-2.1,0-4.2,0.1-6.2C76.2,57.9,76.2,56.3,76.2,54.4z"/>
</g>
</svg>
