<?xml version="1.0" encoding="utf-8"?>
<!-- Generator: Adobe Illustrator 27.0.0, SVG Export Plug-In . SVG Version: 6.00 Build 0)  -->
<svg version="1.1" id="Layer_1" xmlns="http://www.w3.org/2000/svg" xmlns:xlink="http://www.w3.org/1999/xlink" x="0px" y="0px"
	 viewBox="0 0 100 100" style="enable-background:new 0 0 100 100;" xml:space="preserve">
<g>
	<path d="M50,61.1c-1.3-0.3-2.6-0.5-3.8-1c-11-4.6-22-9.3-33.1-14c-1.3-0.6-2.7-1.1-4-1.7c-2.2-1-3.3-2.7-3.2-5.2
		c0.1-2.4,1.3-3.9,3.4-4.8c12.4-5.3,24.8-10.5,37.1-15.8c2.5-1.1,4.9-0.9,7.4,0.2c6.8,2.9,13.5,5.7,20.3,8.6
		c5.4,2.3,10.8,4.6,16.2,6.9c2.2,1,3.6,2.6,3.6,5.1c0,2.4-1,4.1-3.3,5.1C79.9,49,69.1,53.6,58.4,58.1c-1.4,0.6-2.9,1.3-4.3,1.9
		C52.8,60.5,51.4,60.7,50,61.1z"/>
	<path d="M22.6,54.4c2.3,0.9,4.4,1.8,6.6,2.7c5,2.1,10,4.2,14.9,6.4c4,1.7,7.9,1.7,11.8,0c6.7-2.9,13.3-5.7,20-8.5
		c0.4-0.2,0.8-0.3,1.5-0.6c0.1,0.6,0.2,1.1,0.2,1.6c0,3.9,0,7.9,0,11.8c0,3.6-1.6,6.4-4.8,8.1c-15.3,8.2-30.5,8.1-45.7-0.1
		c-2.9-1.6-4.5-4-4.6-7.3c-0.1-4.4-0.1-8.8-0.1-13.2C22.4,55.1,22.5,54.9,22.6,54.4z"/>
	<path d="M88,64.5c2.6,2.6,1.6,5.7,1.6,8.7c0,0.4-0.9,1.1-1.4,1.1c-1.9,0.1-3.8,0.1-5.7,0.1c-1.1,0-1.7-0.6-1.7-1.6
		c0-1.7-0.2-3.5,0.1-5.1c0.2-1.1,0.9-2.2,1.5-3.4c0,0-0.2-0.3-0.4-0.5c-1.8-2.5-1.6-4.5,0.7-6.5c0.9-0.8,0.9-1.7,0.9-2.7
		c0-3,0.2-3.2,3.4-3.9c0,1.5-0.1,3.1,0,4.5c0,0.6,0.2,1.3,0.6,1.7C90.3,59.8,90.4,61.2,88,64.5z"/>
</g>
</svg>
