<?xml version="1.0" encoding="utf-8"?>
<!-- Generator: Adobe Illustrator 27.0.0, SVG Export Plug-In . SVG Version: 6.00 Build 0)  -->
<svg version="1.1" id="Layer_1" xmlns="http://www.w3.org/2000/svg" xmlns:xlink="http://www.w3.org/1999/xlink" x="0px" y="0px"
	 viewBox="0 0 100 100" style="enable-background:new 0 0 100 100;" xml:space="preserve">
<style type="text/css">
	.st0{fill:#1940B3;}
</style>
<path class="st0" d="M32.4,97h-7.3c-5.4,0.3-10-3.7-10.3-8.8c0-0.3,0-0.7,0-1V56.3c-1.2,0-2.4,0-3.5,0.1c-2.4,0.2-4.6-1-5.7-3
	C3,49.7,3.7,44.7,7.1,41.7c3.9-3.8,7.9-7.6,11.9-11.4l5.9-5.7l7.2-6.9L43.2,7.2c3.6-3.9,9.8-4.2,13.8-0.8c0.3,0.2,0.5,0.5,0.8,0.8
	C69.6,18.4,81.7,30,93.8,41.6c3.8,3.4,4.2,9.1,0.8,12.9c-1.1,1.1-2.5,1.8-4.1,1.8c-1.5,0.1-2.9,0.1-4.4,0.1v30.5
	c0.4,5.1-3.6,9.7-8.9,10.1c-0.5,0-1,0-1.6,0H54V86c0-5.2,0-10.4,0-15.5c0-0.4,0-0.7-0.2-1c-0.3-0.1-0.7-0.2-1.1-0.1h-4.9
	c-0.8,0-0.9,0.1-0.9,0.9V97L32.4,97 M13.9,50.1h7.5v37c0,2.5,1.2,3.6,3.7,3.6h15.3V70.1c-0.2-3.7,2.8-6.9,6.7-7.2c0.2,0,0.5,0,0.7,0
	c1.5,0,2.9,0,4.4,0h0.7c3.9-0.3,7.4,2.5,7.8,6.2c0,0.4,0,0.8,0,1.2v20.2h15.1c2.9,0,3.9-1,3.9-3.8V51.3l2-0.8l0.1,0
	c0.5-0.2,1-0.4,1.6-0.4h2.1c1.6,0,3.1,0,4.5,0c0.8-1.3,0.5-3.1-0.8-4C77,34.4,64.9,22.8,53.1,11.6c-1-1.4-3.1-1.7-4.5-0.7
	c-0.3,0.2-0.6,0.5-0.8,0.8l-11,10.6L29.6,29l-6,5.7c-4,3.8-7.9,7.6-11.9,11.4c-1.3,1-1.6,2.7-0.7,4C12,50.1,12.9,50.1,13.9,50.1"/>
</svg>
