<?xml version="1.0" encoding="utf-8"?>
<!-- Generator: Adobe Illustrator 27.0.0, SVG Export Plug-In . SVG Version: 6.00 Build 0)  -->
<svg version="1.1" id="Layer_1" xmlns="http://www.w3.org/2000/svg" xmlns:xlink="http://www.w3.org/1999/xlink" x="0px" y="0px"
	 viewBox="0 0 100 100" style="enable-background:new 0 0 100 100;" xml:space="preserve">
<style type="text/css">
	.st0{fill:#FFFFFF;}
</style>
<g>
	<path class="st0" d="M71.3,91.8c-2.8-0.7-5.6-1.3-8.3-2.1c-7.8-2.4-14.6-6.7-21.1-11.6C33.6,71.8,26.2,64.6,20.3,56
		c-4.2-6-7.7-12.3-10-19.3c-0.8-2.4-1.2-4.8-1.9-7.2c-0.4-1.5,0-2.8,0.9-3.8c4.4-5.3,8.9-10.6,13.4-15.8c2.1-2.4,3.7-2.2,5.3,0.4
		c3.7,5.9,7.3,11.9,10.8,17.9c1,1.7,0.6,3.3-1,4.7c-1.4,1.2-2.8,2.4-4.2,3.6c-0.2,0.2-0.5,0.4-0.7,0.6c-1.4,1.2-1.6,2.5-1,4.2
		c2.3,5.8,5.3,11,9.6,15.5c4.9,5.2,10.9,8.8,17.5,11.3c1.5,0.6,2.7,0.2,3.7-1c1-1.1,1.9-2.3,2.9-3.5c1.1-1.4,2.4-2.6,4.2-2.7
		c0.6-0.1,1.3,0,1.8,0.3c6.2,3.6,12.3,7.2,18.4,10.9c2,1.2,2.2,3.1,0.4,4.7c-5.4,4.7-10.9,9.3-16.4,13.8
		C73.4,91.3,72.3,91.5,71.3,91.8z"/>
	<path class="st0" d="M53.1,14c0,0-0.1-0.2-0.1-0.4c0-1.6,0-3.2,0-4.9c1.8,0,3.5-0.2,5.1,0c15.8,2.5,26.1,11.5,31.6,26.4
		c1.3,3.5,1.7,7.1,1.8,10.8c0,0.8-0.2,1.1-1.1,1.1c-1.5-0.1-3,0-4.4,0C83.9,27.2,73,16.2,53.1,14z"/>
	<path class="st0" d="M53.2,29.1c0-1.9,0-3.6,0-5.3c3.4-0.7,6.6-0.1,9.6,1.4c7.5,3.8,12,9.8,13.6,18.1c0.1,0.8,0.2,1.6,0.2,2.4
		c0,0.4,0,0.8,0,1.2c-1.9,0-3.7,0-5.6,0C69.7,36.3,63.9,30.2,53.2,29.1z"/>
</g>
</svg>
