<?xml version="1.0" encoding="utf-8"?>
<!-- Generator: Adobe Illustrator 27.0.0, SVG Export Plug-In . SVG Version: 6.00 Build 0)  -->
<svg version="1.1" id="Layer_1" xmlns="http://www.w3.org/2000/svg" xmlns:xlink="http://www.w3.org/1999/xlink" x="0px" y="0px"
	 viewBox="0 0 100 100" style="enable-background:new 0 0 100 100;" xml:space="preserve">
<g>
	<g>
		<path d="M61.4,28H22.6c-0.9,0-1.6-0.7-1.6-1.6v-2.7c0-0.9,0.7-1.6,1.6-1.6h38.7c0.9,0,1.6,0.7,1.6,1.6v2.7
			C63,27.3,62.3,28,61.4,28z"/>
		<path d="M61.4,44H22.6c-0.9,0-1.6-0.7-1.6-1.6v-2.7c0-0.9,0.7-1.6,1.6-1.6h38.7c0.9,0,1.6,0.7,1.6,1.6v2.7
			C63,43.3,62.3,44,61.4,44z"/>
	</g>
</g>
<g>
	<path d="M69.6,9.5H16.4c-3.8,0-6.9,3.1-6.9,6.9v65.2c0,3.8,3.1,6.9,6.9,6.9h43.2c-1.9-0.7-3.6-1.7-5.2-2.9
		c-1.5-1.2-2.7-2.6-3.7-4.1H16.5v-65h53v38c2.5,0.6,4.9,1.7,7,3.3V16.4C76.5,12.6,73.4,9.5,69.6,9.5z"/>
</g>
<g>
	<path d="M79.7,78.7c1.3-2.6,1.8-5.5,1.5-8.5c-0.4-3.7-2.1-7.1-4.7-9.7c-0.3-0.3-0.6-0.6-0.9-0.8c-1.8-1.5-3.9-2.5-6-3
		c-1.3-0.3-2.6-0.5-3.8-0.5c-4.5,0-9,2-12.1,5.8c-4.7,5.7-4.6,13.9-0.2,19.5c0.7,0.9,1.5,1.7,2.4,2.5c2.8,2.3,6.2,3.5,9.8,3.5
		c0.5,0,1.1,0,1.6-0.1c2.9-0.3,5.6-1.4,7.8-3.1l0.6,0.5L91.2,98l4.7-5.5L79.7,78.7z M72.2,77.1c-0.8,0.9-1.7,1.7-2.7,2.2
		c-1.2,0.6-2.5,0.9-3.9,0.9c-1.9,0-3.7-0.6-5.3-1.9c-3.6-2.9-4.1-8.2-1.2-11.8c1.7-2,4.1-3.1,6.5-3.1c1.3,0,2.6,0.3,3.8,0.9
		c0.5,0.2,1,0.6,1.5,0.9c1.7,1.4,2.8,3.4,3.1,5.7c0,0.3,0,0.6,0,0.9C74.1,73.8,73.4,75.6,72.2,77.1z"/>
</g>
</svg>
