<?xml version="1.0" encoding="utf-8"?>
<!-- Generator: Adobe Illustrator 27.0.0, SVG Export Plug-In . SVG Version: 6.00 Build 0)  -->
<svg version="1.1" id="Layer_1" xmlns="http://www.w3.org/2000/svg" xmlns:xlink="http://www.w3.org/1999/xlink" x="0px" y="0px"
	 viewBox="0 0 100 100" style="enable-background:new 0 0 100 100;" xml:space="preserve">
<style type="text/css">
	.st0{fill:#1940B3;}
</style>
<path class="st0" d="M93.98,55.91c0,9.45,0,18.89,0,28.34c0,6.06-2.94,8.97-9.02,8.97c-18.33,0-36.65,0.03-54.98-0.01
	C18.8,93.18,9.47,85.42,7.32,74.47c-2.44-12.44,5.94-24.75,18.45-26.94c1.34-0.24,1.63-0.73,1.63-1.96
	c-0.04-10.24-0.02-20.48-0.02-30.72c0-6.18,2.89-9.04,9.12-9.04c12.23,0,24.47,0.02,36.71-0.03c1.55,0,2.69,0.46,3.77,1.56
	c5.11,5.19,10.26,10.34,15.45,15.45c1.1,1.08,1.58,2.23,1.57,3.77C93.96,36.34,93.98,46.12,93.98,55.91L93.98,55.91z M44.47,88.08
	h2.08c12.86,0,25.73,0,38.59,0c2.97,0,3.71-0.74,3.71-3.74c0-18.15,0-36.3,0-54.45c0-0.6-0.06-1.19-0.1-1.89H76.98
	c-5.03,0-5.2-0.16-5.2-5.16c0-3.91,0-7.82,0-11.79c-0.45-0.06-0.72-0.12-1-0.12c-11.78,0-23.56-0.01-35.35,0
	c-2,0-2.9,0.98-2.91,3.15c-0.02,10.58,0,21.17-0.03,31.75c0,1.04,0.3,1.48,1.39,1.64c3.43,0.52,6.5,1.92,9.39,3.84
	c0.78,0.52,1.85,0.87,2.79,0.87c10.7,0.06,21.4,0.04,32.1,0.04c0.57,0,1.15-0.05,1.7,0.05c1.93,0.35,2.88,2.71,1.52,4.05
	c-0.64,0.62-1.8,0.98-2.73,0.98c-9.16,0.07-18.33,0.04-27.49,0.04c-0.59,0-1.18,0-1.56,0c1.24,3.43,2.42,6.71,3.69,10.23h1.48
	c7.85,0,15.71,0,23.56,0c0.51,0,1.04-0.05,1.53,0.06c1.32,0.29,2.11,1.15,2.1,2.52c-0.01,1.37-0.8,2.22-2.13,2.5
	c-0.49,0.1-1.02,0.05-1.53,0.05c-7.85,0-15.71,0-23.56,0h-1.87C52.04,78.84,49.35,83.82,44.47,88.08L44.47,88.08z M47.85,70.17
	c0.01-9.88-8.02-17.93-17.89-17.93c-9.88,0-17.91,8.01-17.92,17.91c-0.01,9.88,8.02,17.93,17.89,17.93
	C39.82,88.09,47.84,80.07,47.85,70.17z M84.37,22.79c-2.38-2.41-4.88-4.95-7.36-7.46v7.46H84.37z"/>
<path class="st0" d="M60.5,42c-6.03,0-12.06,0.01-18.09,0c-1.88,0-3.01-0.95-3.05-2.48c-0.05-1.56,1.08-2.62,2.89-2.63
	c4.26-0.02,8.53-0.01,12.8-0.01c7.96,0,15.93,0,23.89,0c1.88,0,3.01,0.95,3.05,2.48c0.05,1.6-1.11,2.63-3.06,2.64
	C72.79,42,66.64,41.99,60.5,42L60.5,42z"/>
<path class="st0" d="M26.19,74.06c3.49-3.49,6.64-6.77,9.95-9.88c0.7-0.66,2.07-1.1,3-0.94c1.93,0.35,2.32,2.74,0.76,4.33
	c-3.06,3.13-6.18,6.2-9.28,9.29c-0.8,0.8-1.58,1.64-2.43,2.39c-1.18,1.04-2.53,1.06-3.68-0.01c-1.73-1.64-3.43-3.33-5.06-5.07
	c-1.1-1.17-1.02-2.67,0.03-3.65c0.97-0.92,2.47-0.97,3.55,0.06C24.13,71.64,25.09,72.85,26.19,74.06L26.19,74.06z"/>
</svg>
