<?xml version="1.0" encoding="utf-8"?>
<!-- Generator: Adobe Illustrator 27.0.0, SVG Export Plug-In . SVG Version: 6.00 Build 0)  -->
<svg version="1.1" id="Layer_1" xmlns="http://www.w3.org/2000/svg" xmlns:xlink="http://www.w3.org/1999/xlink" x="0px" y="0px"
	 viewBox="0 0 100 100" style="enable-background:new 0 0 100 100;" xml:space="preserve">
<g>
	<path d="M21.9,60c1.8-1.2,3.6-1.4,5.6-1.4c13.3,0,26.6,0,39.9,0c2,0,2.4,0.4,2.4,2.4c0,3.1,0,6.3,0,9.4c0,0.4-0.1,0.8-0.1,1.1
		c-0.1,0.5-0.5,0.9-1,0.9c-0.7,0.1-1.3,0.1-2,0.1c-4.4,0-8.7,0-13.1,0c-0.2,0-0.4,0-0.7,0c0,0.3,0,0.5,0,0.8c0,2.6,0,5.1,0,7.7
		c0,0.4,0,0.9-0.1,1.3c-0.3,1.3-1,1.8-2.4,0.9c-1.2-0.8-2.3-1.8-3.4-2.7c-0.7-0.5-1.4-1.1-2-1.7c-0.3-0.3-0.6-0.3-0.9,0
		c-1.7,1.4-3.4,2.7-5.1,4c-0.4,0.3-0.9,0.5-1.4,0.6c-1,0.2-1.4-0.2-1.4-1.2c0-1.3,0-2.6,0-3.8c0-1.7,0-3.5,0-5.2c0-0.2,0-0.4,0-0.7
		c-0.3,0-0.5,0-0.8,0c-2.7,0-5.4,0-8.1,0c-1.7,0-3.3-0.1-4.8-1.1c-2.1-1.4-3.2-3.3-3.2-5.8c0-6.7,0-13.4,0-20.2c0-7.1,0-14.2,0-21.4
		c0-2.4,0.7-4.4,2.5-6c1.3-1.1,2.7-1.8,4.4-1.8c2.4,0,4.8,0.1,7.2,0.1c3.2,0,6.3-0.1,9.5-0.1c1.1,0,1.6,0.5,1.6,1.4
		c0,0.5-0.2,0.9-0.7,1.1c-0.5,0.1-1,0.3-1.4,0.3c-5.2,0-10.4,0-15.7,0c-3,0-4.7,1.7-4.7,4.7c0,7.1,0,14.2,0,21.2c0,4.6,0,9.1,0,13.7
		C21.8,59.1,21.8,59.5,21.9,60z M35.9,66.9c-1.3,0-2.6,0-3.8,0c-0.6,0-1.3-0.1-1.6-0.8c-0.5-1.1,0.2-1.9,1.6-1.9
		c8.2,0,16.4,0,24.6,0c0.2,0,0.5,0,0.7,0.1c0.7,0.2,0.9,0.5,0.9,1.2c0,0.7-0.2,1.1-0.9,1.3c-0.6,0.1-1.2,0.1-1.8,0.1
		c-0.9,0-1.8,0-2.7,0c0,0.8,0,1.6,0,2.3c0,0.5,0.2,0.6,0.6,0.6c4.3,0,8.5,0,12.8,0c0.5,0,0.7-0.2,0.7-0.7c0-2.3,0-4.5,0-6.8
		c0-1,0-1-1-1c-4.6,0-9.2,0-13.8,0c-8.7,0-17.3,0-26,0c-1.2,0-2.3,0.4-3.1,1.2c-1.2,1.1-1.6,3.1-1,4.7c0.6,1.5,2.2,2.7,3.9,2.7
		c3.1,0,6.1,0,9.2,0c0.1,0,0.3,0,0.4,0c0.1-0.1,0.3-0.2,0.3-0.4C35.9,68.6,35.9,67.8,35.9,66.9z M38.8,79.5c0.2-0.2,0.4-0.2,0.5-0.3
		c1.1-0.8,2.1-1.7,3.2-2.6c1.3-1.1,2.5-1.1,3.8,0c0.6,0.5,1.2,1,1.9,1.5c0.6,0.5,1.2,0.9,1.9,1.4c0-0.3,0.1-0.4,0.1-0.5
		c0-3.8,0-7.6,0-11.4c0-0.5-0.2-0.6-0.7-0.6c-3.3,0-6.6,0-9.9,0c-0.6,0-0.7,0.2-0.7,0.8c0,3.7,0,7.4,0,11.1
		C38.8,79,38.8,79.2,38.8,79.5z"/>
	<path d="M80.9,34.6C81,44.4,73,52.8,62.6,52.8c-10,0-18.2-8.2-18.2-18.3c0-10,8.2-18.2,18.3-18.2C72.9,16.3,81,24.7,80.9,34.6z
		 M78.3,34.6c0-8.6-6.9-15.5-15.4-15.5c-8.3-0.1-15.7,6.5-15.7,15.5c0,8.9,7.3,15.5,15.5,15.5C71.3,50.1,78.3,43.2,78.3,34.6z"/>
	<path d="M61.4,30.8c0-1.5,0-2.9,0-4.4c0-1.2,0.7-1.8,1.8-1.5c0.7,0.2,0.8,0.7,0.8,1.3c0,1.6,0,3.2,0,4.8c0,1.1,0,2.3,0.1,3.4
		c0.1,0.7,0.5,1.5,1,2c1.2,1.3,2.5,2.6,3.8,3.8c0.2,0.2,0.5,0.5,0.6,0.8c0.3,0.6,0.2,1.1-0.2,1.5c-0.4,0.4-1,0.6-1.5,0.3
		c-0.3-0.2-0.6-0.5-0.9-0.7c-1.5-1.5-3-3-4.5-4.5c-0.7-0.7-1-1.5-1-2.5C61.4,33.6,61.4,32.2,61.4,30.8z"/>
</g>
</svg>
