<?xml version="1.0" encoding="utf-8"?>
<!-- Generator: Adobe Illustrator 27.0.0, SVG Export Plug-In . SVG Version: 6.00 Build 0)  -->
<svg version="1.1" id="Layer_1" xmlns="http://www.w3.org/2000/svg" xmlns:xlink="http://www.w3.org/1999/xlink" x="0px" y="0px"
	 viewBox="0 0 100 100" style="enable-background:new 0 0 100 100;" xml:space="preserve">
<g>
	<path d="M71.77,41.47c1.11-1.16,2.16-2.37,3.33-3.47c2.24-2.11,4.36-4.42,6.88-6.15c3.28-2.27,7.97-1.27,10.52,1.78
		c2.73,3.26,2.93,7.91,0.17,10.93c-3.25,3.55-6.7,6.9-10.1,10.31c-3.4,3.41-6.89,6.73-10.21,10.21c-0.67,0.71-1.06,1.96-1.08,2.98
		c-0.1,5.74-0.07,11.49-0.04,17.24c0.03,5.6-3.58,9.24-9.15,9.23c-9.68-0.01-19.37-0.02-29.05,0.05c-1.9,0.01-3.3-0.56-4.66-1.95
		c-7.12-7.24-14.34-14.39-21.55-21.54c-1.01-1.01-1.48-2.13-1.48-3.54C5.36,49.9,5.33,32.26,5.37,14.62
		c0.01-5.88,3.56-9.2,9.42-9.19c15.83,0.03,31.65,0.03,47.48,0c5.25-0.01,8.97,3.58,8.98,8.85c0.01,8.49,0,16.97,0.01,25.46
		c0,0.51,0.05,1.02,0.07,1.52C71.47,41.33,71.62,41.4,71.77,41.47z M65.74,72.34c-0.25-0.15-0.5-0.3-0.75-0.44
		c-0.37,0.54-0.67,1.16-1.13,1.59c-1.79,1.66-3.12,3.86-5.59,4.76c-3.85,1.4-7.68,2.84-11.52,4.25c-1.2,0.44-2.41,0.67-3.47-0.32
		c-1.14-1.07-1-2.34-0.52-3.67c1.15-3.19,2.23-6.41,3.44-9.57c0.51-1.34,1.01-2.84,1.96-3.83c5.23-5.45,10.56-10.8,15.95-16.09
		c1.22-1.2,1.71-2.44,1.7-4.09c-0.04-7.6,0-15.21-0.03-22.81c-0.01-2.82-0.02-5.65-0.23-8.47c-0.13-1.79-1.17-2.61-2.98-2.72
		c-1.19-0.07-2.39-0.02-3.58-0.03c-14.68,0-29.35-0.01-44.03,0c-3.15,0-3.99,0.85-3.99,4.03C10.97,31.46,10.98,48,10.95,64.53
		c0,1.07,0.42,1.23,1.33,1.23c4.38-0.03,8.75-0.01,13.13-0.01c5.13,0,8.65,3.43,8.75,8.6c0.08,4.41,0.14,8.83,0.11,13.24
		c-0.01,1.09,0.28,1.49,1.4,1.49c8.75-0.03,17.51,0,26.26-0.02c2.73-0.01,3.75-0.99,3.79-3.78c0.06-3.53,0.01-7.07,0.02-10.6
		C65.74,73.89,65.74,73.12,65.74,72.34z M83.03,45.98c-1-0.89-2.09-1.73-3.01-2.73c-0.81-0.89-1.27-0.78-2.08,0.03
		c-6.12,6.18-12.28,12.32-18.46,18.43c-1.84,1.82-3.8,3.54-5.75,5.34c1.63,1.61,2.91,2.87,4.19,4.13
		C66.21,62.87,74.48,54.57,83.03,45.98z M28.57,84.23c0-3.58,0.08-7.18-0.05-10.77c-0.04-1.1-0.91-1.97-2.11-2.03
		c-2.81-0.14-5.63-0.18-8.44-0.24c-0.76-0.02-1.53,0-2.51,0C20,75.69,24.25,79.92,28.57,84.23z M89.02,39.53
		c0.01-1.53-0.75-2.67-1.93-3.1c-1.3-0.47-2.4-0.17-3.35,0.83c-0.52,0.54-0.66,0.94,0,1.52c0.83,0.72,1.56,1.55,2.33,2.33
		c1.22,1.23,1.79,1.15,2.59-0.41C88.87,40.26,88.94,39.77,89.02,39.53z M49.93,75.08c0.09,0.09,0.18,0.19,0.27,0.28
		c0.78-0.29,1.56-0.58,2.55-0.95c-0.7-0.74-1.21-1.28-1.89-2C50.48,73.48,50.2,74.28,49.93,75.08z"/>
	<path d="M38.08,40.09c-5.88,0-11.75,0-17.63,0c-2.06,0-3.37-1.03-3.46-2.7c-0.08-1.58,1.39-2.92,3.41-2.95
		c3.58-0.04,7.16,0.01,10.73,0.01c8.17,0,16.34,0.01,24.51-0.01c1.38,0,2.67,0.17,3.49,1.44c0.9,1.39,0.42,3.11-1.13,3.74
		c-0.75,0.3-1.62,0.44-2.44,0.44C49.74,40.11,43.91,40.09,38.08,40.09C38.08,40.09,38.08,40.09,38.08,40.09z"/>
	<path d="M38.19,28.43c-6.01,0-12.02,0-18.03,0c-1.3,0-2.3-0.5-2.89-1.71c-0.52-1.06-0.35-2.16,0.47-2.78
		c0.81-0.62,1.96-1.08,2.97-1.1c6.71-0.09,13.43-0.06,20.14-0.04c5.21,0.02,10.42,0.06,15.63,0.13c2.01,0.03,3.12,1.12,3.09,2.85
		c-0.03,1.52-1.36,2.64-3.2,2.64C50.3,28.43,44.25,28.42,38.19,28.43C38.19,28.42,38.19,28.42,38.19,28.43z"/>
	<path d="M38.54,51.73c-5.75,0-11.5,0.01-17.25-0.02c-0.87,0-1.76-0.15-2.61-0.35c-1.08-0.26-1.6-1.13-1.65-2.16
		c-0.06-1.11,0.32-2.15,1.48-2.56c0.77-0.28,1.62-0.48,2.43-0.48c11.58-0.03,23.16-0.04,34.73,0.01c0.93,0,2.08,0.17,2.71,0.73
		c0.65,0.57,1.07,1.72,1.09,2.62c0.02,1.07-0.9,1.78-1.97,2.03c-0.59,0.14-1.23,0.17-1.84,0.17C49.95,51.73,44.25,51.73,38.54,51.73
		z"/>
</g>
</svg>
