<?xml version="1.0" encoding="utf-8"?>
<!-- Generator: Adobe Illustrator 27.0.0, SVG Export Plug-In . SVG Version: 6.00 Build 0)  -->
<svg version="1.1" id="Layer_1" xmlns="http://www.w3.org/2000/svg" xmlns:xlink="http://www.w3.org/1999/xlink" x="0px" y="0px"
	 viewBox="0 0 100 100" style="enable-background:new 0 0 100 100;" xml:space="preserve">
<g>
	<path d="M56.7,76.8c-3.6,0-6.8,0.1-10,0c-1.1,0-1.5,0.3-1.9,1.2c-2.6,5.6-5.2,11.3-7.9,16.9c-0.4,0.8-1.2,1.4-1.8,2.1
		c-0.7-0.7-1.6-1.2-2.1-2c-1.6-2.5-3-5-4.4-7.6c-0.4-0.8-0.9-1-1.8-0.8c-3,0.6-6.1,1.1-9.2,1.6c-0.7,0.1-1.9,0-2.2-0.5
		c-0.3-0.5-0.1-1.6,0.2-2.3c2.6-5.8,5.3-11.6,8.1-17.3c0.5-1.1,0.3-1.6-0.5-2.5C13.1,54.2,10.1,41.2,15.5,27
		C20.8,12.8,31.6,4.6,46.7,3.2c19.1-1.8,36.1,11,39.7,29.8c2.2,11.5-0.7,21.9-8.1,30.9c-0.8,1-0.9,1.7-0.4,2.9
		c2.3,5.1,4.5,10.2,6.6,15.3c0.3,0.7,0.5,1.9,0.1,2.3c-0.4,0.5-1.6,0.5-2.3,0.4c-2.9-0.5-5.9-1.1-8.8-1.8c-1.1-0.2-1.7,0-2.2,0.9
		c-1.5,2.6-3.1,5.1-4.7,7.6c-0.4,0.6-1.3,1.5-1.9,1.4c-0.6,0-1.3-1-1.6-1.7C60.9,86.4,58.7,81.5,56.7,76.8z M49.9,74
		c18.8,0,34.2-15.1,34.2-33.7C84.1,21.6,69.4,6,50.1,6c-19.2,0-34,15.3-34.1,33.8C15.9,58.6,31.2,73.9,49.9,74z M19.2,84.8
		c3-0.5,5.5-0.8,8-1.4c1.8-0.4,2.8,0.1,3.6,1.7c1.2,2.3,2.6,4.6,4.1,7.1c2.5-5.5,5-10.7,7.4-16c-5.9-1.3-11-3.8-15.7-7.5
		C24.2,74.1,21.8,79.3,19.2,84.8z M74.9,67.5c-4.6,4-9.6,6.7-15.3,8.3C61.4,80,63.2,84,65,88.3c1.7-2.7,3.2-5.1,4.7-7.5
		c0.6-1,1.3-1.4,2.6-1.1c2.8,0.7,5.6,1.1,8.7,1.7C78.9,76.7,76.9,72.2,74.9,67.5z"/>
	<path d="M56.9,67.8c-0.8-0.2-2.1-0.4-3.3-0.9c-2.4-0.9-4.7-0.9-7,0c-1,0.4-2.1,0.7-3.2,0.8c-3.1,0.3-5.4-1.1-6.9-3.7
		c-1.6-3-4-4.9-7.2-6c-3.6-1.3-5.3-4.1-4.7-7.9c0.6-3.5,0-6.6-1.7-9.7c-1.9-3.3-1.4-6.4,1.6-8.8c2.8-2.4,4.3-5.2,5-8.7
		c0.6-3.4,3.2-5.5,6.7-5.6c3.6,0,6.7-1.1,9.4-3.4c2.8-2.4,6-2.4,8.8,0c2.8,2.4,6,3.4,9.6,3.4c3.3,0,5.9,2.2,6.5,5.4
		c0.6,3.7,2.2,6.6,5.1,9c2.8,2.4,3.3,5.5,1.5,8.7c-1.8,3.1-2.3,6.2-1.7,9.7c0.6,3.7-1,6.5-4.5,7.8c-3.4,1.2-5.8,3.3-7.5,6.4
		C62.2,66.6,60,67.6,56.9,67.8z M57.3,64.8c1.6-0.1,2.9-0.8,3.6-2.2c1.9-3.8,4.9-6.3,9-7.5c0.1,0,0.2-0.1,0.3-0.1
		c1.9-0.9,2.7-2.4,2.3-4.5c-0.7-3.9-0.5-7.5,1.8-10.9c0.1-0.1,0.1-0.2,0.2-0.3c1.2-2.4,1-4-1.1-5.7c-3.1-2.5-4.9-5.5-5.5-9.4
		c-0.5-2.9-1.8-4.1-4.7-4c-4.1,0.2-7.3-1.3-10.3-3.9c-1.9-1.6-3.6-1.6-5.5,0c-3,2.5-6.3,4-10.3,3.9c-2.9-0.1-4.2,1.1-4.7,4
		c-0.7,3.9-2.5,6.9-5.5,9.4c-2,1.6-2.2,3.3-1,5.7c0.2,0.3,0.3,0.6,0.5,0.9c1.5,2.6,2.1,5.3,1.7,8.4c-0.7,5-0.3,5.5,4.3,7.3
		c2.8,1.1,4.7,3.1,6.3,5.6c2.1,3.5,3.1,3.9,6.9,2.5c3.1-1.1,6.1-1.2,9.2,0C55.5,64.4,56.4,64.5,57.3,64.8z"/>
	<path d="M65.2,37.5c-0.3,0.4-0.6,1-1.2,1.5c-1.6,1.4-3.3,2.7-5,4c-0.8,0.6-1,1.2-0.7,2.2c0.6,2,1,4,1.6,6c0.3,1.1,0.3,2.1-0.6,2.8
		c-1,0.8-2,0.5-3-0.2c-1.7-1.2-3.5-2.2-5.2-3.4c-0.8-0.6-1.3-0.6-2.1,0c-1.7,1.2-3.5,2.5-5.4,3.5c-0.8,0.4-2,0.5-2.8,0.1
		c-1.1-0.5-1-1.6-0.7-2.7c0.6-2,1-4,1.6-6c0.4-1.1,0-1.7-0.8-2.3c-1.6-1.2-3.2-2.4-4.7-3.8c-0.6-0.6-1.2-1.8-1.1-2.6
		c0.1-1.2,1.3-1.6,2.5-1.6c2.1,0,4.1-0.3,6.2-0.3c0.9,0,1.4-0.3,1.8-1.2c0.7-2,1.5-4,2.2-6c0.4-1,0.9-1.8,2.2-1.8
		c1.3,0,1.8,0.8,2.2,1.8c0.7,2,1.5,4,2.2,6c0.3,0.9,0.8,1.2,1.7,1.3c2.2,0,4.4,0.2,6.6,0.3C64.2,35,65,35.7,65.2,37.5z M50.1,30.2
		c-0.7,1.9-1.4,3.4-1.9,5c-0.5,1.6-1.5,2.4-3.2,2.4c-1.7,0-3.4,0-5.1,0c0,0.2-0.1,0.3-0.1,0.5c1.3,1,2.5,2.2,3.9,3.1
		c1.4,1,1.8,2.2,1.3,3.9c-0.5,1.6-0.9,3.2-1.5,5.2C45.4,49,47,48,48.5,47c1.1-0.7,2.1-0.8,3.2,0c1.5,1,3.1,2,4.9,3.2
		c-0.6-2.1-1-3.8-1.5-5.5c-0.5-1.5,0-2.5,1.2-3.4c1.4-1,2.7-2.2,4.3-3.5c-2.3-0.1-4.1-0.2-5.9-0.3c-1.3-0.1-2.1-0.7-2.5-2
		C51.5,33.9,50.8,32.3,50.1,30.2z"/>
</g>
</svg>
