<?xml version="1.0" encoding="utf-8"?>
<!-- Generator: Adobe Illustrator 27.0.0, SVG Export Plug-In . SVG Version: 6.00 Build 0)  -->
<svg version="1.1" id="Layer_1" xmlns="http://www.w3.org/2000/svg" xmlns:xlink="http://www.w3.org/1999/xlink" x="0px" y="0px"
	 viewBox="0 0 100 100" style="enable-background:new 0 0 100 100;" xml:space="preserve">
<g>
	<path d="M20.17,83.03c0.23-1.02,0.29-1.92,0.63-2.68c1.9-4.25,3.76-8.52,5.85-12.68c1.02-2.02,0.92-3.46-0.63-5.21
		c-3.9-4.4-6.63-9.46-7.51-15.35c-1.54-10.33,0.91-19.74,7.92-27.42c8.69-9.53,19.83-12.75,32.19-9.2
		c12.49,3.59,20.24,12.32,22.7,25.12c1.82,9.49-0.44,18.29-6.52,25.91c-1.17,1.47-1.26,2.67-0.51,4.33
		c1.77,3.85,3.36,7.79,5.02,11.69c0.92,2.16,0.66,3.45-2.04,2.8c-2-0.48-4.07-0.67-6.04-1.24c-1.71-0.49-2.69,0.09-3.5,1.49
		c-1.07,1.83-2.14,3.67-3.32,5.43c-0.43,0.63-1.19,1.04-1.8,1.55c-0.49-0.63-1.14-1.19-1.45-1.9c-1.58-3.55-3.11-7.12-4.57-10.73
		c-0.57-1.4-1.39-1.8-2.87-1.63c-1.67,0.19-3.39,0.16-5.07,0.01c-1.7-0.16-3.04,0.6-4.04,2.76c-1.93,4.17-3.81,8.36-5.72,12.54
		c-0.07,0.16-0.13,0.34-0.23,0.48c-0.5,0.61-1.02,1.21-1.53,1.82c-0.59-0.54-1.34-0.98-1.75-1.63c-1.17-1.84-2.32-3.71-3.27-5.67
		c-0.72-1.49-1.73-1.67-3.16-1.43c-2.43,0.41-4.88,0.71-7.32,1.02C21.26,83.25,20.91,83.12,20.17,83.03z M20.42,41.32
		c-0.38,15.98,12.86,30.01,29.55,30c16.02-0.01,29.24-13.2,29.67-28.89c0.46-16.85-13.22-30.91-29.44-30.92
		C33.68,11.52,20.44,24.74,20.42,41.32z M22.98,80.93c2.58-0.44,4.73-0.66,6.8-1.22c1.87-0.5,2.86,0.16,3.68,1.74
		c0.98,1.9,2.13,3.71,3.47,6.02c2.34-5.1,4.45-9.68,6.38-13.87c-4.76-2.32-9.21-4.48-13.84-6.74C27.44,71.25,25.3,75.89,22.98,80.93
		z M71.82,65.75c-4.64,2.56-9.03,4.97-13.57,7.47c1.43,3.32,2.97,6.89,4.7,10.89c1.49-2.43,2.75-4.4,3.93-6.42
		c0.69-1.18,1.48-1.59,2.91-1.21c2.22,0.59,4.51,0.91,7.23,1.43C75.1,73.45,73.41,69.47,71.82,65.75z"/>
	<path d="M28.08,50.94c0.06-0.64,0.06-1.3,0.21-1.93c0.48-2.06,0-3.92-0.86-5.81c-0.69-1.52-1.42-3.21-1.39-4.81
		c0.03-1.36,0.8-3.05,1.81-3.96c2.34-2.12,3.77-4.61,4.46-7.63c0.81-3.55,2.5-4.99,6.16-5.09c2.89-0.08,5.38-1.07,7.62-2.85
		c2.68-2.13,4.98-2.14,7.69-0.04c2.36,1.83,4.95,2.82,7.97,2.9c3.52,0.1,5.16,1.62,5.92,5.13c0.62,2.85,1.99,5.24,4.14,7.24
		c2.73,2.54,3.01,4.51,1.34,7.89c-1.3,2.65-1.95,5.36-1.35,8.37c0.58,2.89-0.57,5.19-3.32,6.32c-3.2,1.31-5.57,3.35-7.4,6.27
		c-1.59,2.53-3.69,3.15-6.62,2.19c-2.97-0.97-5.85-0.99-8.83-0.03c-3.2,1.03-5.33,0.26-7.07-2.64c-1.56-2.6-3.7-4.4-6.48-5.49
		C29.33,55.89,28.05,53.87,28.08,50.94z M56.29,63.21c1.81,0.22,2.72-0.98,3.46-2.29c1.61-2.85,3.93-4.78,6.99-5.93
		c2.51-0.94,3.27-1.98,2.8-4.6c-0.65-3.58,0.1-6.75,1.8-9.85c0.89-1.63,0.76-3.24-0.72-4.47c-2.9-2.41-4.57-5.45-5.27-9.14
		c-0.4-2.12-1.46-2.95-3.6-2.93c-3.53,0.03-6.55-1.07-9.26-3.33c-1.78-1.49-3.24-1.47-4.93-0.04c-2.69,2.28-5.71,3.42-9.24,3.38
		c-2.16-0.02-3.36,0.84-3.71,2.81c-0.67,3.84-2.42,6.95-5.44,9.41c-1.2,0.98-1.57,2.44-0.77,3.85c1.95,3.46,2.8,7.07,2.01,11.04
		c-0.36,1.83,0.61,3.07,2.32,3.68c3.37,1.19,5.92,3.3,7.68,6.44c1.1,1.95,2.41,2.48,4.47,1.76c3.43-1.21,6.79-1.31,10.18,0.02
		C55.45,63.16,55.89,63.15,56.29,63.21z"/>
	<path d="M49.95,28.8c0.73,0.8,1.46,1.33,1.83,2.06c0.66,1.3,1.15,2.7,1.64,4.09c0.5,1.43,1.46,1.99,2.95,2
		c1.47,0.01,2.96,0.09,4.39,0.4c0.71,0.15,1.65,0.77,1.83,1.37c0.16,0.53-0.47,1.47-0.99,1.98c-0.92,0.9-2.01,1.64-3.07,2.37
		c-1.62,1.12-1.87,2.62-1.35,4.36c0.34,1.12,0.92,2.21,1.05,3.35c0.1,0.84-0.12,1.92-0.63,2.56c-0.25,0.32-1.56,0.1-2.2-0.23
		c-1.41-0.73-2.74-1.62-4.02-2.56c-1.02-0.75-1.86-0.71-2.86,0.03c-1.27,0.95-2.59,1.87-3.99,2.61c-0.64,0.34-1.83,0.58-2.22,0.24
		c-0.51-0.44-0.72-1.54-0.63-2.31c0.15-1.27,0.55-2.53,0.99-3.74c0.69-1.88,0.35-3.26-1.45-4.34c-1.1-0.66-2.1-1.55-2.94-2.52
		c-0.48-0.55-0.88-1.52-0.72-2.16c0.12-0.49,1.13-0.96,1.8-1.08c1.32-0.25,2.7-0.42,4.03-0.32c1.97,0.15,2.92-0.72,3.43-2.51
		c0.37-1.29,0.87-2.57,1.47-3.77C48.6,30.05,49.25,29.58,49.95,28.8z M41.18,39.49c-0.02,0.17-0.04,0.34-0.06,0.5
		c0.99,0.82,1.93,1.71,2.97,2.45c1.32,0.94,1.84,2,1.26,3.63c-0.48,1.33-0.71,2.74-1.18,4.62c1.51-0.96,2.62-1.53,3.55-2.3
		c1.59-1.31,3.04-1.23,4.61,0.02c0.95,0.75,2.02,1.33,3.5,2.29c-0.49-1.94-0.73-3.38-1.22-4.73c-0.54-1.49-0.04-2.5,1.08-3.4
		c1.09-0.87,2.17-1.75,3.25-2.63c-0.04-0.16-0.08-0.32-0.11-0.48c-1.25-0.09-2.52-0.31-3.76-0.24c-1.91,0.1-2.96-0.75-3.5-2.52
		c-0.38-1.24-0.91-2.43-1.37-3.64c-0.89,1.13-1.34,2.14-1.71,3.18c-1.01,2.8-1.13,2.89-4.2,2.97
		C43.26,39.23,42.22,39.39,41.18,39.49z"/>
</g>
</svg>
