<?xml version="1.0" encoding="utf-8"?>
<!-- Generator: Adobe Illustrator 27.7.0, SVG Export Plug-In . SVG Version: 6.00 Build 0)  -->
<svg version="1.1" id="Layer_1" xmlns="http://www.w3.org/2000/svg" xmlns:xlink="http://www.w3.org/1999/xlink" x="0px" y="0px"
	 viewBox="0 0 100 100" style="enable-background:new 0 0 100 100;" xml:space="preserve">
<path d="M84.9,43.1c0.7,0.1,1.5,0.2,2.1,0.4c2.7,0.8,3.9,2.6,4.1,5.5c0.2,3.3,0.1,6.5,0,9.8c-0.1,2.6-1.1,4.6-3.6,5.6
	c-1,0.5-1.7,1.3-1.8,2.5c-0.1,1.4,0.6,2.3,1.8,2.9c1.5,0.8,2.8,1.8,3.3,3.5c0.2,0.8,0.3,1.6,0.3,2.4c0,3,0,6,0,9
	c0,2.6-1,4.7-3.4,5.8c-0.8,0.4-1.8,0.5-2.8,0.5c-13.7,0-27.4,0-41.2,0c-10.1,0-20.1,0-30.2,0c-2.7,0-5.3-2.6-5.2-5.2
	c0-3.8-0.1-7.6,0-11.4c0-2.1,1.3-3.5,3.2-4.5c2-1,2.6-2.7,1.5-4.4c-0.3-0.5-0.9-0.9-1.5-1.2c-2.1-1.1-3.2-2.7-3.2-5.1
	c0-3.5,0-7,0-10.6c0-2.8,1.8-4.8,4.6-5.3c0.4-0.1,0.8-0.3,1.1-0.2c2.3,0.4,3.9-0.6,5.5-2.3C29.8,30.6,40.1,20.3,50.4,10
	c2.2-2.2,6.1-2.2,8.2,0c2.4,2.5,4.8,4.9,7.3,7.3c1.8,1.8,1.9,3.9,1.1,6.1c-0.5,1.3-0.2,2.4,0.7,3.3c0.8,0.9,1.9,0.9,2.9,0.6
	c2.6-0.7,4.9-0.5,6.9,1.7c2.1,2.4,4.5,4.6,6.8,6.8C86.3,37.7,86.4,40.8,84.9,43.1L84.9,43.1z M74.1,48.3c0,0.4,0,0.8,0,1.2
	c0,11.7,0,23.4,0,35.1c0,0.4,0,0.8,0,1.2c0.1,0.1,0.1,0.2,0.2,0.2c3.5,0,7,0,10.5,0.1c1.3,0,1.4-0.1,1.4-1.4c0-2.9,0-5.9,0-8.8
	c0-0.9-0.3-1.3-1.1-1.7c-2.8-1.6-4.5-4-4.3-7.3c0.1-3.1,1.7-5.5,4.6-6.8c0.4-0.2,0.8-0.7,0.8-1.1c0.1-3.3,0-6.5,0-9.8
	c0-0.7-0.3-1-1-1c-3.7,0-7.3,0-11,0.1C74.2,48.2,74.1,48.3,74.1,48.3L74.1,48.3z M69.1,48.3c-0.1-0.1-0.2-0.2-0.2-0.2
	c-0.2,0-0.5-0.1-0.7-0.1c-17.9,0-35.7,0-53.6,0c-0.4,0-0.7,0.1-1.1,0.1c-0.1,0.1-0.1,0.1-0.2,0.2c0,3.7-0.1,7.3-0.1,11
	c0,0.2,0.4,0.5,0.6,0.7c1.1,0.9,2.5,1.7,3.2,2.8c2.6,3.8,1.5,8.8-3,11.2c-0.7,0.4-1,0.8-1,1.6c0.1,2.9,0,5.9,0,8.8
	c0,1.1,0.5,1.6,1.6,1.6c17.7,0,35.4,0,53.1,0h1.2v-0.9c0-12.1,0-24.1,0-36.2C69.2,48.8,69.1,48.6,69.1,48.3L69.1,48.3z M44.7,22.6
	c6.7,6.7,13.4,13.4,20.1,20.1c0.3,0.3,0.7,0.5,1.1,0.5c3.8,0,7.7,0,11.5,0c0.3,0,0.6-0.1,0.8-0.2c0.9-0.8,1.7-1.6,2.5-2.5
	c0.5-0.5,0.4-0.9-0.2-1.5c-2.3-2.2-4.5-4.4-6.7-6.7c-0.5-0.5-0.8-0.6-1.5-0.4c-1.7,0.6-3.5,0.8-5.3,0.1c-4.8-1.9-6.2-6.7-4.4-11.2
	c-0.3-0.2-0.8-0.5-1.2-0.9c-2.1-2.1-4.3-4.2-6.4-6.3c-0.5-0.5-1-0.5-1.5,0C50.7,16.6,47.7,19.6,44.7,22.6L44.7,22.6z M41.4,26.4
	C35.8,32,30.2,37.6,24.7,43.1h33.4C52.5,37.5,46.9,31.8,41.4,26.4z"/>
<path d="M25.6,74c0.6,0,1.2,0,1.8,0c11,0,22,0,33,0c0.4,0,0.8,0,1.2,0c0.1,0.1,0.1,0.1,0.2,0.2v4.6H25.4v-4.6
	C25.4,74.1,25.5,74.1,25.6,74z"/>
<path d="M61.7,59.3H25.4v-4.7h36.3V59.3z"/>
<path d="M25.6,64.3c0.2,0,0.5-0.1,0.7-0.1c11.5,0,23,0,34.5,0c0.2,0,0.5,0,0.7,0c0.1,0.1,0.1,0.1,0.2,0.2V69H25.4v-4.5
	C25.4,64.4,25.5,64.4,25.6,64.3z"/>
<path d="M25.6,64.3c-0.1,0.1-0.1,0.1-0.2,0.2C25.4,64.4,25.5,64.4,25.6,64.3z"/>
</svg>
