<?xml version="1.0" encoding="utf-8"?>
<!-- Generator: Adobe Illustrator 27.0.0, SVG Export Plug-In . SVG Version: 6.00 Build 0)  -->
<svg version="1.1" id="Layer_1" xmlns="http://www.w3.org/2000/svg" xmlns:xlink="http://www.w3.org/1999/xlink" x="0px" y="0px"
	 viewBox="0 0 100 100" style="enable-background:new 0 0 100 100;" xml:space="preserve">
<g>
	<path d="M88.4,14.2c2.5,0.1,4.5,0.9,6.1,2.9c2,2.5,2.1,6.5,0,8.9c-1.7,1.9-3.5,3.7-5.4,5.5c-0.5,0.5-0.7,1.1-0.7,1.8
		c0,10,0,20,0,30c0,2.8-0.8,5.1-3.1,6.8c-1.6,1.2-3.4,1.6-5.3,1.6c-17.4,0-34.7,0-52.1,0c-1.5,0-2.5,0.4-3.6,1.5
		c-5.5,5.6-11.1,11.1-16.7,16.7c-0.7,0.7-1.5,1.3-2.5,0.8c-1-0.4-1.2-1.4-1.2-2.4c0-24.5,0-49.1,0-73.6c0-4,2.1-6.9,5.8-7.9
		c0.8-0.2,1.7-0.3,2.5-0.3c22.6,0,45.2,0,67.8,0c4.1,0,7.1,2.2,8,5.8C88.2,12.9,88.3,13.5,88.4,14.2z M7.8,83.9C7.9,84,8,84,8.1,84
		c0.2-0.2,0.5-0.4,0.7-0.7c4.7-4.7,9.4-9.3,14-14c1-1,2.1-1.5,3.5-1.5c17.9,0,35.8,0,53.7,0c3,0,4.5-1.5,4.5-4.5
		c0-8.7,0-17.4,0-26.1c0-0.3,0-0.6-0.1-1.1c-0.4,0.3-0.6,0.6-0.9,0.8c-4.2,4.2-8.5,8.5-12.7,12.7c-0.4,0.4-1,0.8-1.5,0.9
		c-3,0.7-6,1.3-9.1,1.8c-1.9,0.3-2.8-0.7-2.5-2.5c0.2-1.3,0.5-2.6,0.8-3.8c0.3-1.6,0.6-3.3,1-5c-0.6,0-1.1,0-1.5,0
		c-10.7,0-21.4,0-32.1,0c-1.8,0-2.7-0.6-2.7-1.9c0-1.3,0.9-1.9,2.7-1.9c11,0,21.9-0.1,32.9,0.1c2.8,0,4.7-0.8,6.6-2.8
		c6.1-6.3,12.5-12.5,18.7-18.7c0.2-0.2,0.3-0.5,0.3-0.8c0.2-3-1.4-4.6-4.5-4.6c-22.5,0-45,0-67.6,0c-3.1,0-4.6,1.4-4.6,4.6
		c0,22.6,0,45.2,0,67.9C7.8,83.2,7.8,83.6,7.8,83.9z M62,48.2c1.9-0.4,3.6-0.7,5.2-1.1c0.6-0.1,1.2-0.4,1.7-0.9
		c5.3-5.3,10.7-10.6,16-16c0.2-0.2,0.4-0.5,0.6-0.7c-1.6-1.7-3.2-3.3-4.8-4.9c-0.1,0.1-0.3,0.2-0.4,0.3c-5.5,5.5-11,11-16.5,16.6
		c-0.2,0.2-0.4,0.5-0.5,0.8C62.8,44.2,62.5,46,62,48.2z M88.4,26.8c1-1.1,2.1-2.1,3-3.2c1.1-1.3,0.9-3.2-0.3-4.4
		c-1.1-1.2-3-1.6-4.3-0.6c-1.3,1-2.3,2.1-3.5,3.2C85.2,23.5,86.7,25.1,88.4,26.8z"/>
	<path d="M46.2,29.5c-6.7,0-13.3,0-20,0c-0.4,0-0.8,0-1.1,0c-1.2-0.1-1.9-0.9-1.8-1.9c0-1,0.8-1.8,1.9-1.9c0.3,0,0.5,0,0.8,0
		c13.5,0,27,0,40.5,0c0.5,0,1,0,1.5,0.2c0.9,0.3,1.3,1,1.2,1.9c-0.1,0.9-0.6,1.4-1.5,1.6c-0.4,0.1-0.9,0.1-1.3,0.1
		C59.6,29.5,52.9,29.5,46.2,29.5z"/>
	<path d="M36.6,48.7c3.6,0,7.2,0,10.9,0c0.5,0,1,0,1.4,0.2c0.8,0.3,1.2,1,1.1,1.9c-0.1,0.8-0.5,1.5-1.4,1.6
		c-0.4,0.1-0.9,0.1-1.3,0.1c-7.1,0-14.2,0-21.2,0c-0.2,0-0.3,0-0.5,0c-1.5-0.1-2.3-0.8-2.2-2c0-1.1,0.9-1.8,2.3-1.9
		C29.2,48.7,32.9,48.7,36.6,48.7z"/>
</g>
</svg>
