<?xml version="1.0" encoding="utf-8"?>
<!-- Generator: Adobe Illustrator 27.0.0, SVG Export Plug-In . SVG Version: 6.00 Build 0)  -->
<svg version="1.1" id="Layer_1" xmlns="http://www.w3.org/2000/svg" xmlns:xlink="http://www.w3.org/1999/xlink" x="0px" y="0px"
	 viewBox="0 0 100 100" style="enable-background:new 0 0 100 100;" xml:space="preserve">
<g>
	<path d="M82.9,95c-22,0-43.8,0-65.9,0c0-0.6,0-1.1,0-1.6c0-4,0.2-8.1,0-12.1c-0.3-6.2,2.2-11.1,6.4-15.2c2.2-2.2,5.1-3.7,7.7-5.5
		c0.7-0.5,1.2-0.3,1.6,0.4c0.5,0.8,1,1.7,1.7,2.4c1.6,1.5,3.1,3.2,5,4.4c3,1.9,6.2,3.5,9.4,5.1c0.7,0.3,1.9,0.4,2.6,0
		c3.1-1.5,6.2-3.2,9.3-4.9c2.6-1.4,4.5-3.5,6.1-5.9c0.4-0.6,0.8-1.2,1.2-1.8c6.9,3.3,12.3,7.9,14.4,15.5c0.6,2.1,0.7,4.4,0.7,6.6
		c0.1,3.9,0,7.9,0,11.8C83,94.3,82.9,94.6,82.9,95z"/>
	<path d="M52.8,57.1c-5.2,0.2-10.4,0.4-15.6,0.6c-1.3,0-2.6,0.1-3.8-0.2c-3.1-0.6-5.3-2.6-6.3-5.5c-1-3-1.7-6.2-2-9.4
		c-0.7-7.5-0.3-14.9,2.8-21.9c2.6-5.7,6.4-10.5,12-13.5c7.6-4,16.8-2.6,23.1,3.2c6.3,5.8,9.5,13.1,10.3,21.6
		c0.6,5.4,0.3,10.8-1,16.1c-0.4,1.8-1.1,3.5-2,5.1c-1.5,2.7-3.9,4-7,4.1c-3.5,0.1-7.1,0-10.7,0C52.8,57.2,52.8,57.2,52.8,57.1z
		 M30.2,26.4c-2.5,2.1-1.9,7,1.3,8.5c1.5,0.7,2.2,1.7,2.6,3.2c0.3,1.1,0.7,2.1,1.1,3.1c1.7,4.2,4.1,7.9,7.7,10.8
		c4,3.1,8.3,3.3,12.5,0.3c1.2-0.9,2.3-1.9,3.3-3.1c3-3.4,5-7.4,6.3-11.7c0.3-1.1,0.8-1.9,2-2.4c2.9-1.2,4.1-5.5,2.3-8.1
		c-0.8-1.2-1.2-1.2-2.2-0.2c-0.7,0.8-1.4,1.6-2.2,2.3c-1.2,1.1-1.7,1-2.4-0.5c-0.6-1.4-1.1-2.9-1.8-4.3c-1.9-4-4.9-6.7-9.2-8.5
		c-0.2,0.6-0.4,1-0.6,1.5c4.7,4.2,6.2,6.4,6.3,9.2c-1.6-2.6-3.6-4.5-6.5-5.5c-1.2-0.5-2.1-0.3-2.9,0.7c-1,1.2-2.2,2.3-3.5,3.3
		C39.4,28.8,34.8,29.2,30.2,26.4z"/>
</g>
</svg>
