<?xml version="1.0" encoding="utf-8"?>
<!-- Generator: Adobe Illustrator 27.0.0, SVG Export Plug-In . SVG Version: 6.00 Build 0)  -->
<svg version="1.1" id="Layer_1" xmlns="http://www.w3.org/2000/svg" xmlns:xlink="http://www.w3.org/1999/xlink" x="0px" y="0px"
	 viewBox="0 0 100 100" style="enable-background:new 0 0 100 100;" xml:space="preserve">
<style type="text/css">
	.st0{fill:none;}
	.st1{fill:#424242;}
</style>
<rect class="st0" width="100" height="100"/>
<path class="st1" d="M36.8,31.4c0,2.8,0,5.6,0,8.4c0,3.5-2.4,5.9-5.9,5.9c-5.8,0-11.5,0-17.3,0c-3.4,0-5.8-2.5-5.8-5.9
	c0-5.8,0-11.5,0-17.3c0-3.4,2.4-5.8,5.8-5.8c5.8,0,11.5,0,17.3,0c3.5,0,5.9,2.4,5.9,5.9C36.9,25.6,36.8,28.5,36.8,31.4L36.8,31.4z
	 M22.4,22c-2.6,0-5.3,0-7.9,0c-1.1,0-1.4,0.3-1.4,1.4c0,5.2,0,10.4,0,15.6c0,1,0.2,1.5,1.4,1.5c5.3-0.1,10.5,0,15.8,0
	c1,0,1.3-0.3,1.3-1.3c0-5.3,0-10.5,0-15.8c0-1.1-0.4-1.4-1.4-1.4C27.6,22.1,25,22,22.4,22L22.4,22z"/>
<path class="st1" d="M22.5,55c2.8,0,5.6,0,8.4,0c3.5,0,5.9,2.4,5.9,5.9c0,5.8,0,11.5,0,17.3c0,3.4-2.5,5.8-5.8,5.8
	c-5.8,0-11.5,0-17.3,0c-3.4,0-5.8-2.4-5.8-5.8c0-5.8,0-11.6,0-17.4c0-3.3,2.5-5.6,5.8-5.7c0.1,0,0.2,0,0.3,0
	C16.8,55,19.6,55,22.5,55L22.5,55z M13.1,60.4c0,5.9,0,11.6,0,17.3c0,1,0.5,1,1.3,1c5.3,0,10.6,0,16,0c0.9,0,1.3-0.3,1.3-1.2
	c0-5.3,0-10.6,0-16c0-1-0.4-1.3-1.3-1.3c-5.4,0-10.8,0-16.1,0C13.8,60.3,13.6,60.3,13.1,60.4L13.1,60.4z"/>
<path class="st1" d="M68.3,29.9c-6.6,0-13.2,0-19.7,0c-0.4,0-0.9,0-1.3,0c-1.4-0.1-2.5-1.2-2.5-2.6s1-2.5,2.4-2.6c0.5-0.1,1,0,1.5,0
	c13.2,0,26.4,0,39.7,0c0.3,0,0.7,0,1,0c1.8,0.1,2.9,1.1,2.9,2.7c0,1.5-1.1,2.5-2.8,2.6c-0.7,0-1.4,0-2.1,0
	C80.9,29.9,74.6,29.9,68.3,29.9L68.3,29.9z"/>
<path class="st1" d="M68.5,62.2c6.6,0,13.3,0,19.9,0c0.4,0,0.9,0,1.3,0c1.4,0.1,2.5,1.2,2.5,2.6s-1,2.5-2.4,2.7c-0.5,0.1-1,0-1.5,0
	c-13.2,0-26.4,0-39.7,0c-0.3,0-0.6,0-0.8,0c-1.9,0-3.1-1.1-3.1-2.7c0-1.5,1.2-2.5,3-2.6c0.7,0,1.4,0,2.1,0
	C56.1,62.2,62.3,62.2,68.5,62.2L68.5,62.2z"/>
<path class="st1" d="M61.2,34.5c4.4,0,8.9,0,13.3,0c1.9,0,3.1,1,3.2,2.6c0,1.6-1.2,2.7-3.1,2.7c-8.9,0-17.9,0-26.8,0
	c-1.3,0-2.4-0.3-2.8-1.6c-0.2-0.8-0.1-2,0.4-2.7c0.5-0.6,1.6-0.9,2.4-1C52.3,34.5,56.8,34.5,61.2,34.5L61.2,34.5z"/>
<path class="st1" d="M61,78.1c-4.3,0-8.7,0-13,0c-2.1,0-3.3-1-3.3-2.6c0-1.7,1.2-2.7,3.2-2.7c8.8,0,17.7,0,26.5,0c2,0,3.3,1,3.2,2.7
	c0,1.6-1.2,2.6-3.2,2.6C70,78.1,65.5,78.1,61,78.1L61,78.1z"/>
</svg>
