<?xml version="1.0" encoding="utf-8"?>
<!-- Generator: Adobe Illustrator 27.7.0, SVG Export Plug-In . SVG Version: 6.00 Build 0)  -->
<svg version="1.1" id="Layer_1" xmlns="http://www.w3.org/2000/svg" xmlns:xlink="http://www.w3.org/1999/xlink" x="0px" y="0px"
	 viewBox="0 0 100 100" style="enable-background:new 0 0 100 100;" xml:space="preserve">
<g>
	<path d="M36.99,85.5c-7.36,0-14.72,0-22.09,0c-2.98,0-4.81-1.74-4.87-4.72c-0.05-2.74,0.01-5.48-0.03-8.22
		c-0.05-3.09,2.02-4.73,4.8-4.8c1.41-0.03,2.82-0.02,4.23,0c0.42,0,0.74-0.13,1.06-0.39c2.08-1.67,4.16-3.34,6.26-4.98
		c2.49-1.95,5.38-2.9,8.48-3.32c1.66-0.23,3.33-0.21,4.99-0.21c6.14,0,12.28,0,18.41,0c0.79,0,1.55,0.1,2.29,0.38
		c1.82,0.7,2.89,2.48,2.69,4.46c-0.21,2.05-1.61,3.54-3.67,3.91c-0.42,0.07-0.84,0.11-1.27,0.11c-3.32-0.01-6.64,0-9.96,0
		c-0.39,0-0.77,0.02-1.16,0.11c-1.05,0.24-1.67,1.04-1.67,2.18c0,1.09,0.64,1.87,1.69,2.1c0.37,0.08,0.73,0.1,1.11,0.1
		c5.29,0,10.57,0,15.86,0c0.29,0,0.57,0.01,0.84-0.19c2.48-1.85,4.97-3.69,7.45-5.53c2.68-1.98,5.36-3.97,8.04-5.95
		c0.61-0.45,1.27-0.82,1.96-1.15c2.48-1.16,4.78-0.14,6.19,1.54c1.33,1.58,1.76,3.39,0.96,5.39c-0.5,1.25-1.38,2.19-2.43,2.97
		c-4.17,3.09-8.34,6.17-12.51,9.25c-1.7,1.26-3.36,2.57-5.11,3.75c-2.8,1.89-5.91,2.93-9.3,3.14c-2.93,0.18-5.86,0.07-8.79,0.08
		C46.63,85.52,41.81,85.5,36.99,85.5z"/>
	<path d="M46.78,46.08c0.14-1,0.04-0.99-0.87-1.28c-1.29-0.4-2.57-0.82-3.82-1.33c-1.37-0.55-2.03-1.86-1.95-3.36
		c0.08-1.51,1.39-2.56,2.48-2.77c0.81-0.16,1.58,0.01,2.34,0.3c1.53,0.58,3.1,0.99,4.73,1.16c0.95,0.1,1.89,0.04,2.78-0.34
		c0.07-0.03,0.14-0.06,0.2-0.09c0.99-0.52,1.05-1.16,0.1-1.76c-1.21-0.77-2.59-1.17-3.96-1.58c-1.94-0.57-3.85-1.22-5.58-2.28
		c-2.46-1.5-3.65-5.2-2.73-7.93c0.57-1.7,1.41-3.12,2.91-4.12c0.86-0.57,1.82-0.92,2.8-1.18c0.53-0.14,0.66-0.38,0.62-0.89
		c-0.07-0.89-0.06-1.77,0.43-2.58c0.6-0.99,2.07-1.73,3.13-1.53c1.53,0.28,2.53,1.27,2.74,2.67c0.07,0.5,0.12,0.99,0.04,1.49
		c-0.06,0.38,0.05,0.57,0.45,0.66c0.78,0.16,1.56,0.29,2.32,0.56c2.84,1.01,2.67,4.15,1.15,5.53c-0.9,0.81-1.97,0.93-3.12,0.67
		c-1.03-0.23-2.04-0.52-3.1-0.58c-1.2-0.07-2.37-0.04-3.46,0.56c-0.11,0.06-0.23,0.13-0.33,0.2c-0.67,0.48-0.65,0.91,0.11,1.24
		c1.48,0.63,3.01,1.14,4.57,1.55c1.79,0.47,3.47,1.19,5,2.23c2.57,1.74,3.71,5.19,2.77,8.16c-0.63,1.99-1.75,3.57-3.55,4.65
		c-0.71,0.42-1.5,0.63-2.29,0.82c-0.46,0.11-0.54,0.34-0.51,0.75c0.07,0.93,0.03,1.85-0.48,2.68c-0.59,0.95-2.01,1.66-3.03,1.48
		c-1.46-0.26-2.52-1.24-2.73-2.56C46.83,46.84,46.81,46.41,46.78,46.08z"/>
</g>
</svg>
