<?xml version="1.0" encoding="utf-8"?>
<!-- Generator: Adobe Illustrator 27.0.0, SVG Export Plug-In . SVG Version: 6.00 Build 0)  -->
<svg version="1.1" id="Layer_1" xmlns="http://www.w3.org/2000/svg" xmlns:xlink="http://www.w3.org/1999/xlink" x="0px" y="0px"
	 viewBox="0 0 100 100" style="enable-background:new 0 0 100 100;" xml:space="preserve">
<g>
	<path d="M5.4,26c2.1,6.5,4.3,12.9,6.4,19.4c0.7,2.2,1.4,4.3,2.2,6.5c1.5,4.4,4.1,6.2,8.8,6.2c4.5,0,9,0,13.3,0
		c0.2,0.3,0.3,0.4,0.3,0.5c0.5,4.6,0.7,4.9,5.5,4.9c5.6,0,11.3,0,16.9,0c3.7,0,4.3-0.5,4.5-4.2c0-0.3,0.1-0.6,0.2-1.2
		c1.6,0,3.3,0,4.9,0c2.9,0,5.8,0,8.7,0c4.9,0,7.6-2,9.1-6.7c2.7-8.3,5.5-16.7,8.2-25c0.1-0.2,0.2-0.3,0.4-0.8c0.1,0.5,0.1,0.7,0.1,1
		c0,18.3,0,36.6,0,54.9c0,4-2.1,6.8-5.8,7.8c-1,0.3-2,0.3-3,0.3c-24.2,0-48.4,0-72.5,0C8,89.6,5,86.6,5,81c0-18,0-36.1,0-54.1
		c0-0.2,0-0.5,0-0.7C5.2,26.1,5.3,26.1,5.4,26z"/>
	<path d="M36.4,52.6c-2.5,0-5,0-7.6,0c-2.1,0-4.2,0-6.3,0c-1.5,0-2.6-0.5-3.1-2c-3.2-9.7-6.5-19.4-9.8-29.5c1,0,1.7,0,2.4,0
		c5.8,0,11.6,0,17.5,0c1.5,0,2.1-0.5,2.1-2.1c0.2-5.9,3.1-8.6,8.9-8.6c6.3,0,12.5-0.1,18.8,0c6,0.1,8.9,3,9,9c0,0.4,0.1,0.9,0.1,1.5
		c7.2,0,14.4,0,21.9,0c-1.1,3.3-2.1,6.4-3.1,9.4c-2.1,6.4-4.3,12.8-6.4,19.2c-0.8,2.5-1.5,3-4.2,3c-3.9,0-7.7,0-11.6,0
		c-1.4,0-1.9-0.4-1.9-1.8c0-2.7-0.9-3.5-3.6-3.5c-6.3,0-12.5,0-18.8,0c-3.6,0-4.2,0.6-4.4,4.1C36.5,51.7,36.5,52,36.4,52.6z
		 M49.7,21.1C49.7,21.1,49.7,21.1,49.7,21.1c3.7,0,7.5,0,11.2,0c2,0,2.5-0.7,2.5-2.5c-0.1-2.2-1.1-3.1-3.6-3.1c-6.3,0-12.6,0-19,0
		c-0.7,0-1.4,0.1-2.1,0.2c-1.5,0.4-2.4,2.1-2.1,4.2c0.2,1.7,1.5,1.3,2.5,1.3C42.6,21.2,46.1,21.1,49.7,21.1z"/>
	<path d="M57.7,52.9c0,1.5,0,3,0,4.6c-5,0-10.1,0-15.2,0c0-1.6,0-3,0-4.6C47.5,52.9,52.5,52.9,57.7,52.9z"/>
</g>
</svg>
