<?xml version="1.0" encoding="utf-8"?>
<!-- Generator: Adobe Illustrator 27.0.0, SVG Export Plug-In . SVG Version: 6.00 Build 0)  -->
<svg version="1.1" id="Layer_1" xmlns="http://www.w3.org/2000/svg" xmlns:xlink="http://www.w3.org/1999/xlink" x="0px" y="0px"
	 viewBox="0 0 100 100" style="enable-background:new 0 0 100 100;" xml:space="preserve">
<g>
	<path d="M36.2,32.7c-2.5-2.6-2.1-5.7,1.8-7.3c-1.7-2.5-2.9-5.3-5.1-7.4c-0.9-0.8-1-1.7-0.6-2.7c1.2-2.9,3.3-4.6,6.5-5.1
		c1.1-0.2,1.8,0.2,2.4,1.1c0.3,0.5,0.7,1.1,1.1,1.6c5.1-3.8,10.3-3.8,15.5,0c0.3-0.5,0.7-1,1-1.5c0.6-1.1,1.5-1.4,2.7-1.3
		c2.9,0.4,5.7,2.8,6.4,5.6c0.2,0.8,0,1.3-0.5,1.9c-2.2,2.3-3.9,4.8-5.1,7.8c1.4,0.7,2.8,1.4,3.1,3.1c0.2,1.6-0.2,3-1.6,4
		c1.5,1.3,3,2.4,4.3,3.7c6.9,6.6,11.2,14.7,12.6,24.1c0.8,5.4,0.4,10.8-1.1,16c-0.7,2.6-0.6,5.1,0.9,7.5c1,1.6,0.6,3.6-0.7,4.9
		c-1.3,1.3-3.2,1.7-4.8,0.7c-2.8-1.7-5.7-2.1-8.9-2.1c-11.2,0.1-22.4,0.1-33.5,0c-2.5,0-4.8,0.6-7,1.9c-2.8,1.6-6,0.2-6.4-2.8
		c-0.1-0.9,0.1-1.9,0.5-2.7c1.3-2.3,1.5-4.6,0.9-7c-1.1-4.4-1.6-8.8-1.4-13.4c0.4-7.3,2.7-13.9,6.7-19.9c2.6-3.9,5.9-7.3,9.6-10.1
		C35.7,33.1,35.9,32.9,36.2,32.7z M50.6,33.1c-2.6,0-5.3,0-7.9,0c-1.7,0-3.5,0.1-5,1.2c-4.9,3.9-9,8.3-12,13.9
		c-4.3,7.9-5.2,16.3-3.5,25c0.3,1.3,0.6,2.6,0.8,3.9c0.5,2.7,0.1,5.2-1.3,7.6c-0.5,0.8-0.5,1.6,0.3,2.3c0.7,0.6,1.5,0.6,2.2,0.1
		c0.1-0.1,0.2-0.1,0.3-0.2c1.9-1.1,3.9-1.9,6.1-2c2.6-0.1,5.2-0.1,7.8-0.1c9.6,0,19.1-0.1,28.7,0c3.1,0,6,0.5,8.7,2.2
		c0.8,0.5,1.6,0.5,2.3-0.1c0.8-0.7,0.7-1.5,0.2-2.3c-1.8-2.9-1.8-5.9-1-9c1.5-5.5,1.7-11,0.7-16.6c-0.8-4.1-2-7.9-4-11.6
		C71,42.3,67,38,62.1,34.5c-1.3-1-2.7-1.4-4.3-1.4C55.4,33.2,53,33.1,50.6,33.1z M44.7,18.7c0.6,1.9,1.2,3.7,1.8,5.5
		c0.3,0.9,0.8,1.3,1.7,1.3c1.3,0,2.6,0,3.8,0c1.4,0,2.2-0.7,2.5-2c0.2-0.8,0.3-1.6,0.4-2.4c0.5-2.4-0.1-2.2,2.5-1.8
		c0.1,0,0.1,0.1,0.2,0.2c-0.3,2-0.6,3.9-0.9,5.9c2.3,0.6,2.8,0.3,3.7-1.7c0.1-0.2,0.1-0.3,0.2-0.5c1.3-2,2.5-4,3.9-6
		c1-1.5,1.1-2.1-0.3-3.2c-0.5-0.4-1-0.7-1.5-1c-1.2-0.7-1.7-0.5-2.4,0.6c-0.8,1.2-1.6,2.4-2.5,3.7c-1.8-3.2-4.2-4.9-7.8-4.9
		c-3.5,0-6,1.8-7.7,4.9c-0.8-1.2-1.5-2.2-2.1-3.3c-1.2-1.7-2-1.9-3.6-0.5c-0.5,0.4-0.9,0.9-1.3,1.4c-0.5,0.6-0.5,1.3,0.1,1.9
		c2,2.3,3.6,4.9,4.9,7.7c0.2,0.4,0.6,0.8,1,0.9c1,0.1,2.1,0,3.3,0c-0.7-2.1-1.3-4-1.9-6C43.2,19.2,43.8,19,44.7,18.7z M50.1,30.7
		C50.1,30.7,50.1,30.7,50.1,30.7c2.7,0,5.4,0,8.1,0c1.1,0,2.3,0,3.4,0c0.7,0,1.4-0.4,1.3-1.2c-0.1-0.5-0.5-1-0.9-1.4
		c-0.2-0.2-0.6-0.1-0.9-0.1c-7.5,0-14.9,0-22.4,0c-0.8,0-1.7,0.8-1.7,1.4c0,0.6,1,1.3,1.8,1.4C42.6,30.7,46.4,30.7,50.1,30.7z"/>
	<path d="M81.2,50c0-2,1.7-3.7,3.7-3.8c2.1,0,3.9,1.7,3.9,3.7c0,2.1-1.7,3.9-3.7,3.9C83,53.9,81.2,52.1,81.2,50z M85,51.4
		c0.8,0,1.3-0.5,1.3-1.4c0-0.8-0.5-1.3-1.3-1.3c-0.7,0-1.4,0.7-1.4,1.4C83.6,50.7,84.2,51.4,85,51.4z"/>
	<path d="M11.3,50c0-2.1,1.7-3.8,3.8-3.8c2,0,3.8,1.7,3.8,3.8c0,2-1.7,3.8-3.8,3.9C13,53.9,11.3,52.1,11.3,50z M15,48.7
		c-0.7,0-1.3,0.6-1.3,1.4c0,0.8,0.6,1.3,1.4,1.3c0.8,0,1.3-0.6,1.3-1.4C16.3,49.2,15.7,48.6,15,48.7z"/>
	<path d="M15.1,78.4c0.7,0,1.5,0,2.2,0c0.7,2.2,0.3,2.8-2.2,2.4C15.1,80,15.1,79.2,15.1,78.4L15.1,78.4z"/>
	<path d="M78.7,18.8c-0.1-2.4-0.6-2.4,2.3-2.2C81.3,19.2,81.2,19,78.7,18.8z"/>
	<path d="M15.1,78.4c-0.6,0-1.3-0.1-1.9-0.1c-0.6,0-0.8-0.3-0.7-0.8c0.1-0.5-0.4-1.4,0.7-1.5c0.6-0.1,1.1,0,1.8,0
		C15,76.8,15,77.6,15.1,78.4C15.1,78.4,15.1,78.4,15.1,78.4z"/>
	<path d="M26.6,30.8c0.9,0,1.7,0,2.5,0c0,0.8,0,1.5,0,2.2c-0.7,0-1.4,0-2.2,0C26.8,32.3,26.7,31.6,26.6,30.8z"/>
	<path d="M84.9,76.1c1,0,1.6,0,2.5,0c0,0.8,0.2,1.7-0.2,2.1c-0.3,0.3-1.5,0.3-1.9,0C84.9,77.8,85,76.8,84.9,76.1z"/>
	<path d="M73.4,30.8c-0.1,0.5-0.2,0.8-0.2,1.1c0.1,1.1-0.5,1.2-1.4,1.2c-0.9,0-1.1-0.3-1.1-1.2c0-1,0.3-1.4,1.2-1.2
		C72.4,30.8,72.8,30.8,73.4,30.8z"/>
	<path d="M83.5,21.3c-0.7,0-1.4,0-2.2,0c0-0.7,0-1.5,0-2.2c0.8,0,1.4,0,2.2,0C83.5,19.8,83.5,20.5,83.5,21.3z"/>
	<path d="M81.2,16.3c0-0.8,0-1.4,0-2.1c2.1-0.6,2.5-0.2,2.2,2.1C82.7,16.3,82.1,16.3,81.2,16.3z"/>
	<path d="M82.7,78.5c0.7,0,1.3,0,2,0c0,0.8,0,1.6,0,2.3C82.3,81.1,82.4,81.1,82.7,78.5z"/>
	<path d="M89.9,78.3c0,1,0,1.7,0,2.7c-0.7-0.1-1.7,0.1-2-0.2c-0.3-0.4-0.4-1.5,0-2C88.2,78.4,89.2,78.5,89.9,78.3z"/>
	<path d="M16.2,16.7c0.2,2.3,0.1,2.4-2.1,2.2C13.5,16.8,13.9,16.3,16.2,16.7z"/>
	<path d="M29.1,27.9c-1.9,0.2-2.2,0.1-2.3-0.8c-0.1-1.5,0-1.6,1.4-1.6C29.3,25.6,29.3,25.7,29.1,27.9z"/>
	<path d="M73.1,25.7c0.2,2.4,0.1,2.4-2.2,2.2c0-0.7,0-1.4,0-2.2C71.7,25.7,72.4,25.7,73.1,25.7z"/>
	<path d="M12.2,78.5c0,0.8,0,1.6,0,2.3c-2.2,0.4-2.3,0.3-1.9-2.3C10.9,78.5,11.5,78.5,12.2,78.5z"/>
	<path d="M21.2,18.8c-2.5,0.2-2.4,0.1-2.1-2.1C21.6,16.4,21.5,16.4,21.2,18.8z"/>
	<path d="M12.6,81.3c0.8,0,1.6,0,2.4,0c0,0.7,0,1.3,0,1.9C12.7,83.8,12.4,83.5,12.6,81.3z"/>
	<path d="M18.7,19.1c0.1,0.7,0.1,1.4,0.2,2.1c-2.2,0.7-2.7,0.3-2.3-2.1C17.2,19.1,17.9,19.1,18.7,19.1z"/>
	<path d="M70.5,30.5c-0.8,0-1.4,0-2.2,0c0-0.8,0-1.5,0-2.3c0.7,0.1,1.4,0.1,2.2,0.2C70.5,29,70.5,29.7,70.5,30.5z"/>
	<path d="M87.4,83.3c-0.8,0-1.5,0-2.3,0c0-0.7,0-1.3,0-2c0.8,0,1.5,0,2.4,0C87.5,81.9,87.4,82.6,87.4,83.3z"/>
	<path d="M26.4,30.6c-0.8-0.1-1.4-0.1-2.1-0.2c0-0.7,0-1.4,0-2.1c0.7,0,1.4,0,2.3,0C26.5,29.1,26.5,29.8,26.4,30.6z"/>
	<path d="M85.8,19.1c-0.7-0.2-1.5-0.2-1.9-0.6c-0.3-0.3-0.2-1.4,0.1-1.7c0.3-0.3,1.5-0.3,1.6-0.1c0.4,0.5,0.4,1.4,0.5,2.1
		C86,18.8,85.9,19,85.8,19.1z"/>
	<path d="M16.6,16.3c-0.5-2.1-0.2-2.4,2.1-2C19.2,16.1,18.9,16.5,16.6,16.3z"/>
	<path d="M29.5,30.4c-0.3-2.1-0.2-2.3,1.9-2.2C32.2,30.1,31.8,30.7,29.5,30.4z"/>
	<path d="M73.4,28.4c1.5-0.4,2.2-0.2,2.3,0.5c0.2,1.2,0,1.6-1.1,1.7C73.4,30.6,73.4,30.6,73.4,28.4z"/>
	<path d="M34.5,56.3c-0.6,0-1.1,0-1.5,0c-1.8-0.1-3.1-1.2-3.5-2.8c-0.4-1.7,0.3-3.4,1.8-4.2c2-1.1,4.1-2,6.2-3
		c3.2-1.5,6.4-3,9.5-4.6c2-0.9,4-0.9,5.9,0c4.9,2.4,9.9,4.7,14.8,7.1c1.5,0.7,2.8,1.7,2.8,3.6c0,2.3-1.5,3.9-3.8,3.9
		c-1.4,0-1.4-0.3-1.4,1.4c0,6,0,12,0,18.1c0,0.9-0.2,1.2-1.2,1.2c-9.5,0-19,0-28.5,0c-1,0-1.2-0.3-1.2-1.3c0-6.1,0-12.2,0-18.3
		C34.5,57.1,34.5,56.8,34.5,56.3z M37,74.5c0.4,0,0.7,0.1,0.9,0.1c8,0,16.1,0,24.1,0c0.8,0,1-0.3,0.9-1c0-5.8,0-11.6,0-17.4
		c0-0.9-0.3-1.4-1.1-1.8c-3.6-1.7-7.3-3.5-10.9-5.2c-0.6-0.3-1.4-0.2-2,0c-3.5,1.6-7,3.3-10.5,4.9c-1.3,0.6-1.6,1.4-1.6,2.7
		C37,61.5,37,66.1,37,70.8C37,72,37,73.2,37,74.5z M68,52.4c0-0.6-0.4-1-1.1-1.3c-4.8-2.3-9.6-4.5-14.3-6.9c-1.8-0.9-3.4-0.8-5.2,0
		c-4.2,2.1-8.4,4-12.6,6.1c-0.8,0.4-1.6,0.8-2.3,1.2c-0.7,0.4-0.9,1-0.5,1.7c0.4,0.6,0.9,1,1.7,0.6c0.4-0.2,0.9-0.4,1.3-0.6
		c4.5-2.1,9-4.2,13.5-6.4c1.2-0.6,2.1-0.5,3.2,0c4.8,2.3,9.6,4.6,14.4,6.9C67.2,54.3,68,53.8,68,52.4z"/>
	<path d="M72.1,75.5c0.3-2.1,0.7-4,1-6c0.5-3.9,0.3-7.8-0.7-11.6c-0.3-1.2,0.4-1.1,1.1-1.4c0.8-0.3,1,0,1.2,0.7
		c1.5,6,1.4,11.9-0.1,17.8c-0.2,0.7-0.5,1-1.2,0.7C73,75.7,72.6,75.6,72.1,75.5z"/>
	<path d="M71.6,78.4c0.8,0.1,1.4,0.2,2.2,0.2c0,0.7,0,1.3,0,2.1c-0.7,0.1-1.4,0.2-2.2,0.3C71.6,80.1,71.6,79.3,71.6,78.4z"/>
	<path d="M55,60.1c-1.1,0.1-2.2,0.4-3-0.7c-0.2-0.3-0.7-0.4-1.1-0.4c-0.8,0-1.6,0-2.4,0.2c-0.4,0.1-0.9,0.5-1,0.8
		c-0.1,0.4,0.1,1.1,0.4,1.2c0.7,0.3,1.6,0.4,2.4,0.6c0.8,0.1,1.7,0.1,2.5,0.4c1.4,0.5,2.2,1.5,2.3,3c0.2,1.6-0.5,2.7-1.8,3.5
		c-0.1,0-0.1,0.1-0.2,0.1c-1.6,0.3-2.3,1.2-1.8,3.1c-0.5,0-0.9,0-1.2,0c-0.4,0-0.7,0-1,0c-0.1-0.1-0.1-0.2-0.1-0.2
		c0.3-1.6-0.4-2.4-1.9-2.9c-1.3-0.4-2-1.5-1.9-3.1c1,0,1.9-0.4,2.7,0.7c0.2,0.3,0.8,0.5,1.2,0.5c0.7,0.1,1.5,0,2.2,0
		c0.8,0,1.4-0.4,1.5-1.3c0-0.8-0.5-1.3-1.5-1.4c-1,0-2,0-2.9-0.2c-1.9-0.3-3.2-1.6-3.3-3.5c-0.1-1.5,0.9-3.2,2.6-3.7
		c1.1-0.3,1.5-0.8,1.3-1.9c-0.1-1.1,0.8-0.8,1.4-0.9c0.7-0.1,1.2,0.1,1,0.9c-0.2,1.1,0.3,1.5,1.3,1.9C54,57.3,54.9,58.4,55,60.1z"/>
</g>
</svg>
