<?xml version="1.0" encoding="utf-8"?>
<!-- Generator: Adobe Illustrator 27.0.0, SVG Export Plug-In . SVG Version: 6.00 Build 0)  -->
<svg version="1.1" id="Layer_1" xmlns="http://www.w3.org/2000/svg" xmlns:xlink="http://www.w3.org/1999/xlink" x="0px" y="0px"
	 viewBox="0 0 100 100" style="enable-background:new 0 0 100 100;" xml:space="preserve">
<g>
	<path d="M50,17.6c12.5,0,25,0,37.5,0c4.5,0,7.7,2.6,8.5,6.9c0.1,0.5,0.1,1.1,0.1,1.6c0,15.8,0,31.7,0,47.5c0,5.1-3.4,8.6-8.5,8.6
		c-25,0-50,0-74.9,0c-5.1,0-8.5-3.5-8.5-8.5c0-15.9,0-31.8,0-47.6c0-5.1,3.4-8.5,8.5-8.5C25,17.6,37.5,17.6,50,17.6z M13.5,23.1
		c0.2,0.3,0.3,0.4,0.4,0.5c11.3,11.3,22.6,22.6,33.8,33.9c1.4,1.4,3.3,1.3,4.7-0.1C63.5,46.3,74.6,35.1,85.7,24
		c0.2-0.2,0.4-0.5,0.8-0.8C62.1,23.1,37.9,23.1,13.5,23.1z M36.7,54.1c-7.7,7.6-15.3,15.2-23,22.8c24.3,0,48.5,0,72.8,0
		c-7.7-7.6-15.3-15.2-23-22.8c-2.3,2.3-4.8,4.8-7.3,7.2c-3.5,3.5-8.8,3.5-12.3,0c-1.3-1.3-2.7-2.7-4-4C38.7,56.2,37.6,55,36.7,54.1z
		 M9.4,27c0,15.3,0,30.7,0,45.6c7.6-7.5,15.3-15.1,23-22.8C24.8,42.3,17.2,34.7,9.4,27z M90.6,27.3C83,34.8,75.3,42.4,67.6,50
		c7.7,7.6,15.3,15.2,22.9,22.8C90.6,57.6,90.6,42.3,90.6,27.3z"/>
</g>
</svg>
