<?xml version="1.0" encoding="utf-8"?>
<!-- Generator: Adobe Illustrator 27.0.0, SVG Export Plug-In . SVG Version: 6.00 Build 0)  -->
<svg version="1.1" id="Layer_1" xmlns="http://www.w3.org/2000/svg" xmlns:xlink="http://www.w3.org/1999/xlink" x="0px" y="0px"
	 viewBox="0 0 100 100" style="enable-background:new 0 0 100 100;" xml:space="preserve">
<g>
	<path d="M22,90.4c0-0.8,0-1.6,0-2.4c0-2.9,0.1-5.9,0-8.8c-0.3-7.9,3.5-13.5,9.7-17.8c0.7-0.5,1.5-0.9,2.3-1.3
		c0.3-0.1,0.6-0.2,0.7-0.3c1.4,1.7,2.5,3.7,4.2,4.9c3.3,2.3,6.8,4.2,10.3,6.2c0.5,0.3,1.5,0.1,2.1-0.2c2.6-1.3,5.2-2.8,7.7-4.2
		c2.2-1.3,3.9-3.1,5.2-5.3c0.3-0.5,0.6-0.9,1-1.5c4.7,1.8,8,4.9,10.3,9.1c1.7,3.1,2.5,6.5,2.5,10.1c-0.1,3.4,0,6.7,0,10.1
		c0,1-0.2,1.4-1.4,1.4c-17.7,0-35.5,0-53.2,0C23,90.5,22.7,90.4,22,90.4z"/>
	<path d="M49.5,9.5C56.3,9.6,62,12.1,66,17.8c2,2.9,2.5,6.2,2.3,9.6c0,0.5,0.2,1.3,0.6,1.7c4.2,3.5,2.4,10.3-0.5,12.5
		c-1.4,1-2,2.3-2.6,3.8c-1.3,3.6-3.2,6.8-6,9.5c-6.5,6.2-14.5,5.8-20.3-1.1c-2.4-2.8-4-6-5.4-9.4c-0.4-0.9-1-1.8-1.8-2.4
		c-3.4-2.8-4.3-7.9-2-11.8c0.4-0.6,0.7-1.5,0.6-2.2C30,22.5,32,17.9,36.2,14.3C39.9,11,44.4,9.5,49.5,9.5z M37.5,22.3
		c-0.8,2.7-1.6,5.3-2.3,7.9c-0.2,0.7-0.5,1-1.2,1.1c-0.6,0.1-1.3,0.4-1.7,0.8c-1.6,2.1-0.5,6.6,2,7.6c1.1,0.5,1.6,1.2,1.9,2.3
		c0.9,3.2,2.4,6.2,4.4,8.9c5.4,7.2,13.3,7.3,18.8,0.3c2.2-2.8,3.7-5.9,4.7-9.3c0.2-0.7,0.6-1.6,1.2-1.8c2.8-1,3.3-3.2,3.4-5.7
		c0.1-2.1-0.6-2.8-2.6-3.3c-0.4-0.1-0.8-0.5-0.9-0.9c-0.7-2.2-1.2-4.4-1.9-6.5c-0.3-0.8-0.8-1.5-1.2-2.3
		C57.1,27.7,44.9,28.9,37.5,22.3z"/>
</g>
</svg>
