<?xml version="1.0" encoding="utf-8"?>
<!-- Generator: Adobe Illustrator 27.7.0, SVG Export Plug-In . SVG Version: 6.00 Build 0)  -->
<svg version="1.1" id="Layer_1" xmlns="http://www.w3.org/2000/svg" xmlns:xlink="http://www.w3.org/1999/xlink" x="0px" y="0px"
	 viewBox="0 0 100 100" style="enable-background:new 0 0 100 100;" xml:space="preserve">
<path d="M55.5,86.2c-0.5,0.2-0.8,0.3-1.2,0.2c-0.2-0.1-0.4,0-0.6,0c-11.8,0-23.6,0-35.4,0c-2.5,0-4.6-0.9-6.4-2.6
	C10.1,82.1,9.4,80.1,9,78c0-0.1,0-0.3,0-0.4c0-15.2,0-30.4,0-45.7c0-2.1,0.8-3.9,2.2-5.5c0.9-1,1.8-1.8,3-2.3c1-0.5,2.1-0.7,3.2-0.9
	c1.5-0.2,3.1,0,4.6-0.1c0.6,0,0.6,0,0.6-0.7c0-2,0-4,0-6c0-1.4,0.5-1.9,1.7-2.3c1-0.4,2.6,0.5,2.8,1.7c0.1,1,0,2.1,0.1,3.1
	c0,1.1,0,2.3,0,3.4c0,0.7,0,0.8,0.7,0.8c8.6,0,17.2,0,25.7,0c0.6,0,0.7-0.1,0.7-0.7c0-2,0-4,0-6.1c0-1.3,1.1-2.3,2.3-2.2
	c1.1,0.1,2.2,0.8,2.1,2.1c-0.1,2,0,4.1,0,6.1c0,0.7,0.1,0.7,0.8,0.7c1.2,0,2.3,0,3.5,0c2,0.1,3.8,0.5,5.4,1.6c1.4,1,2.6,2.3,3.3,4.1
	c0.5,1.3,0.8,2.7,0.8,4.2c0,2.5,0,5,0,7.5c0,0.6-0.2,0.7-0.7,0.8c-0.1,0-0.3,0-0.4,0c-19,0-38,0-56.9,0c-0.1,0-0.3,0-0.4,0
	c-0.4,0-0.6,0.3-0.5,0.6c0.1,0.6,0.1,1.2,0.1,1.8c0,11.4,0,22.8,0,34.1c0,1.1,0.4,2.2,1.1,3c0.8,0.8,1.7,1.4,2.9,1.4
	c10.7,0,21.5,0,32.2,0c0.9,0,1.5,0.4,2.1,1c0.7,0.9,1.7,1.7,2.6,2.4C54.8,85.6,55,86,55.5,86.2L55.5,86.2z"/>
<path d="M72.1,86.4c-7.6,0-12.5-2.1-16.4-6c-4.2-4.2-6.2-9.4-5.9-15.4c0.3-4.9,2.1-9.2,5.5-12.8c4.4-4.6,9.8-6.7,16.1-6.4
	c10,0.5,19.5,8.8,19.2,21C90.4,77.2,81.8,86.5,72.1,86.4L72.1,86.4z M86.1,66c0.2-1.6-0.3-3.1-0.7-4.6c-0.4-1.5-1.1-3-2-4.3
	c-0.9-1.4-2.1-2.5-3.3-3.6c-1.6-1.3-3.4-2.3-5.5-2.8c-1.3-0.3-2.6-0.5-3.8-0.6c-0.9-0.1-1.7,0.1-2.6,0.2c-1.2,0.1-2.3,0.4-3.5,0.8
	c-1.5,0.6-3,1.4-4.3,2.4c-2.3,1.9-4,4.2-5.1,6.9c-0.6,1.6-0.8,3.4-1,5.1c-0.2,1.5,0.2,2.9,0.5,4.4c0.2,0.8,0.5,1.6,0.8,2.4
	c0.6,1.4,1.4,2.6,2.3,3.8c0.2,0.2,0.5,0.4,0.7,0.1c0.9-0.9,1.9-1.6,3-2.2c1.3-0.6,2.6-1.1,4-1.1c2.9,0,5.9,0,8.8,0
	c1,0,1.9,0.2,2.8,0.5c1.4,0.5,2.8,1.1,3.8,2.2c0.2,0.2,0.5,0.4,0.7,0.7c0.2,0.2,0.3,0.2,0.5,0c0.5-0.6,1-1.2,1.4-1.9
	c0.9-1.5,1.6-3,1.9-4.7C85.9,68.5,86.2,67.3,86.1,66L86.1,66z"/>
<path d="M70.2,70.5c-4.5,0-7.9-3.8-7.8-8.1c0.1-3.7,3.2-7.7,7.9-7.6c4.8,0.1,7.8,3.7,7.9,7.8C78.3,66.4,75.2,70.5,70.2,70.5
	L70.2,70.5z"/>
<path d="M23.1,45.7h-4.3c-1.1,0-2.1,0.9-2.1,2.1v3.4c0,1.1,0.9,2.1,2.1,2.1h4.3c1.1,0,2.1-0.9,2.1-2.1v-3.4
	C25.2,46.7,24.2,45.7,23.1,45.7z"/>
<path d="M36.4,45.7h-4.3c-1.1,0-2.1,0.9-2.1,2.1v3.4c0,1.1,0.9,2.1,2.1,2.1h4.3c1.1,0,2.1-0.9,2.1-2.1v-3.4
	C38.5,46.7,37.6,45.7,36.4,45.7z"/>
<path d="M23.1,57h-4.3c-1.1,0-2.1,0.9-2.1,2.1v3.4c0,1.1,0.9,2.1,2.1,2.1h4.3c1.1,0,2.1-0.9,2.1-2.1v-3.4C25.2,57.9,24.2,57,23.1,57
	z"/>
<path d="M23.1,70h-4.3c-1.1,0-2.1,0.9-2.1,2.1v3.4c0,1.1,0.9,2.1,2.1,2.1h4.3c1.1,0,2.1-0.9,2.1-2.1v-3.4C25.2,70.9,24.2,70,23.1,70
	z"/>
<path d="M36.4,57h-4.3C31,57,30,57.9,30,59.1v3.4c0,1.1,0.9,2.1,2.1,2.1h4.3c1.1,0,2.1-0.9,2.1-2.1v-3.4C38.5,57.9,37.6,57,36.4,57z
	"/>
<path d="M49.7,45.7h-4.3c-1.1,0-2.1,0.9-2.1,2.1v3.4c0,1.1,0.9,2.1,2.1,2.1h4.3c1.1,0,2.1-0.9,2.1-2.1v-3.4
	C51.8,46.7,50.9,45.7,49.7,45.7z"/>
</svg>
