<?xml version="1.0" encoding="utf-8"?>
<!-- Generator: Adobe Illustrator 27.0.0, SVG Export Plug-In . SVG Version: 6.00 Build 0)  -->
<svg version="1.1" id="Layer_1" xmlns="http://www.w3.org/2000/svg" xmlns:xlink="http://www.w3.org/1999/xlink" x="0px" y="0px"
	 viewBox="0 0 236 75" style="enable-background:new 0 0 236 75;" xml:space="preserve">
<style type="text/css">
	.st0{fill:#D1D1D1;}
</style>
<path class="st0" d="M105.4,40.9h-1.9l-0.2,5.4h2.4L105.4,40.9z"/>
<path class="st0" d="M68.4,40.8h-0.8v2.5h0.8V40.8z"/>
<path class="st0" d="M95.8,40.8h-0.9v2.5h0.9V40.8z"/>
<path class="st0" d="M65.1,40.8h-0.9v2.5h0.9V40.8z"/>
<path class="st0" d="M63.4,40.8h-0.9v2.5h0.9V40.8z"/>
<path class="st0" d="M103.4,40.3c0,0.1,0,0.1,0.1,0.2h2c0.1-0.2,0.1-0.4,0-0.5c-0.1-0.3-0.3-0.5-0.6-0.6c-0.4-0.2-0.5-0.5-0.5-0.5
	c0,0,0,0,0,0c0,0,0,0,0,0s0,0.3-0.5,0.6c-0.4,0.2-0.6,0.5-0.6,0.8C103.4,40.2,103.4,40.3,103.4,40.3
	C103.4,40.3,103.4,40.3,103.4,40.3L103.4,40.3z"/>
<path class="st0" d="M89.1,40.8H69.2v2.5h19.9V40.8z"/>
<path class="st0" d="M105.9,47.3c0.1-0.1,0.1-0.2,0.1-0.3c0-0.1-0.1-0.3-0.2-0.4h-3.1c-0.1,0.1-0.2,0.2-0.2,0.4c0,0.1,0,0.2,0.1,0.3
	H105.9z"/>
<path class="st0" d="M103.2,47.7l-0.4,9.2h3.2l-0.4-9.2H103.2z"/>
<path class="st0" d="M106.3,57.9c0.1-0.1,0.1-0.2,0.1-0.3c0-0.1-0.1-0.3-0.2-0.4h-3.6c-0.1,0.1-0.2,0.2-0.2,0.4
	c0,0.1,0.1,0.2,0.1,0.3H106.3z"/>
<path class="st0" d="M102.8,58.2l-0.2,5.8h3.7l-0.2-5.8H102.8z"/>
<path class="st0" d="M94.1,40.8h-0.9v2.5h0.9V40.8z"/>
<path class="st0" d="M54.9,40.9h-1.9l-0.2,5.4h2.4L54.9,40.9z"/>
<path class="st0" d="M55.5,47.3c0.1-0.1,0.1-0.2,0.1-0.3c0-0.1-0.1-0.3-0.2-0.4h-3.1c-0.1,0.1-0.2,0.2-0.2,0.4c0,0.1,0,0.2,0.1,0.3
	H55.5z"/>
<path class="st0" d="M52.3,56.8h3.2l-0.4-9.2h-2.5L52.3,56.8z"/>
<path class="st0" d="M106.3,64.4h-3.8h-2.2l-0.6-11.9l-0.6-11.9h-0.8L98,43.6h-1.6v0H62.1v0h-1.8l-0.5-3.1H59l-0.6,13.3l-0.5,10.5
	h-2.1H52h-0.5v1h21.7V51.2c0,0,0.3-1.8,1.5-2.9c0.2-0.2,0.4-0.4,0.7-0.5c0.2-0.1,0.5-0.2,0.8-0.3c0.1,0,0.2-0.1,0.3-0.1
	c2.2-0.6,2.7-2.3,2.7-2.3c0,0,0.4,1.2,1.7,1.9c0.3,0.2,0.7,0.3,1.1,0.4c0.1,0,0.1,0,0.2,0.1c0.6,0.1,1.1,0.4,1.5,0.8
	c1.2,1.1,1.5,2.9,1.5,2.9v14.1h21.7v-1H106.3L106.3,64.4z M64.1,62.9h-3.5v-4.6c0,0,0.1-0.5,0.4-0.8c0.1-0.1,0.3-0.2,0.4-0.2
	c0.2,0,0.3-0.1,0.4-0.2c0.3-0.2,0.4-0.5,0.4-0.5s0.2,0.5,0.9,0.7c0.1,0,0.2,0,0.2,0.1c0.1,0.1,0.3,0.2,0.3,0.3
	c0.1,0.1,0.1,0.2,0.1,0.2c0.1,0.2,0.1,0.4,0.1,0.4V62.9z M64.1,53.9h-3.5v-4.6c0,0,0,0,0-0.1c0-0.1,0.2-0.5,0.4-0.8
	c0.1-0.1,0.3-0.2,0.4-0.2c0.2,0,0.3-0.1,0.4-0.2c0.3-0.2,0.4-0.5,0.4-0.5s0.2,0.5,0.9,0.7c0.1,0,0.2,0,0.2,0.1c0.5,0.3,0.6,1,0.6,1
	V53.9z M70.1,62.9h-3.5v-4.6c0,0,0.1-0.4,0.3-0.7c0.1-0.1,0.2-0.2,0.3-0.3c0.1,0,0.2-0.1,0.2-0.1c0,0,0,0,0.1,0
	c0.6-0.2,0.8-0.7,0.8-0.7s0.1,0.3,0.5,0.6c0.1,0,0.2,0.1,0.3,0.1c0,0,0,0,0.1,0c0.2,0,0.3,0.1,0.4,0.2c0.1,0.1,0.2,0.2,0.2,0.3
	c0,0,0,0.1,0.1,0.1c0,0.1,0.1,0.2,0.1,0.2c0,0,0,0,0,0.1c0,0.1,0,0.1,0,0.1L70.1,62.9L70.1,62.9z M70.1,53.9h-3.5v-4.6
	c0,0,0.1-0.5,0.4-0.8c0.1-0.1,0.1-0.1,0.2-0.1c0.1,0,0.2-0.1,0.2-0.1c0,0,0,0,0.1,0c0.6-0.2,0.8-0.7,0.8-0.7s0.1,0.3,0.5,0.6
	c0.1,0,0.2,0.1,0.3,0.1c0,0,0,0,0.1,0c0.2,0,0.3,0.1,0.4,0.2c0.3,0.3,0.4,0.8,0.4,0.8V53.9z M91.7,62.9h-3.5v-4.6
	c0,0,0.2-0.9,0.9-1.1c0.7-0.2,0.9-0.7,0.9-0.7c0,0,0.2,0.5,0.9,0.7c0.7,0.2,0.9,1.1,0.9,1.1L91.7,62.9L91.7,62.9z M91.7,53.9h-3.5
	v-4.6c0,0,0.2-0.9,0.9-1.1c0.7-0.2,0.9-0.7,0.9-0.7c0,0,0.2,0.5,0.9,0.7c0.7,0.2,0.9,1.1,0.9,1.1L91.7,53.9L91.7,53.9z M97.7,62.9
	h-3.5v-4.6c0,0,0.2-0.9,0.9-1.1c0.7-0.2,0.9-0.7,0.9-0.7c0,0,0.2,0.5,0.9,0.7c0.7,0.2,0.9,1.1,0.9,1.1L97.7,62.9L97.7,62.9z
	 M97.7,53.9h-3.5v-4.6c0,0,0.2-0.9,0.9-1.1c0.7-0.2,0.9-0.7,0.9-0.7c0,0,0.2,0.5,0.9,0.7c0.7,0.2,0.9,1.1,0.9,1.1L97.7,53.9
	L97.7,53.9z"/>
<path class="st0" d="M54.9,40.5c0.1-0.4,0.1-0.7-0.2-0.9c0,0,0,0,0,0c0,0-0.1-0.1-0.1-0.1c-0.1,0-0.1-0.1-0.2-0.1
	c-0.5-0.3-0.5-0.6-0.5-0.6s0,0.3-0.5,0.6c-0.5,0.3-0.7,0.6-0.5,1.1L54.9,40.5L54.9,40.5z"/>
<path class="st0" d="M90.8,40.8H90v2.5h0.8V40.8z"/>
<path class="st0" d="M86.9,38.9c1.1-3.6-0.6-6-4-7.9c-3.6-2-3.8-4.1-3.8-4.1S79,28.9,75.4,31c-3.4,1.9-5.1,4.4-4,7.9H86.9z"/>
<path class="st0" d="M62.3,38.6c0,0.2,0.1,0.4,0.1,0.6c0,0.1,0.1,0.2,0.1,0.3v0.9h33.3v-0.9c0.3-0.8,0.3-1.5,0.2-2.1c0,0,0,0,0,0
	c-0.1-0.2-0.1-0.3-0.2-0.5c0,0,0,0,0,0c-0.1-0.2-0.2-0.3-0.3-0.5c0,0,0,0,0,0c-0.4-0.4-0.9-0.8-1.5-1.2c-1.8-1-1.9-2.1-1.9-2.1
	s0,0,0,0c0,0,0,0,0,0s0,0.3-0.3,0.7c0,0-0.1,0.1-0.1,0.2c0,0.1-0.1,0.1-0.1,0.2c-0.1,0.2-0.3,0.3-0.5,0.5c-0.2,0.2-0.5,0.4-0.8,0.6
	c-0.2,0.1-0.4,0.2-0.6,0.4c-0.6,0.4-1,0.8-1.2,1.3c-0.1,0.2-0.2,0.3-0.2,0.5c-0.2,0.5-0.2,1.1,0,1.8h-1v0H70.7v0h-0.5
	c0.4-1.3,0-2.3-0.9-3.2c0,0,0,0,0,0c0,0-0.1-0.1-0.1-0.1c-0.3-0.2-0.6-0.5-1-0.7c-0.4-0.2-0.8-0.5-1-0.7c-0.2-0.2-0.3-0.3-0.4-0.4
	c-0.1-0.1-0.1-0.2-0.2-0.2c-0.1-0.1-0.1-0.2-0.2-0.3c0-0.1,0-0.1-0.1-0.2c0,0,0,0,0,0c0-0.1,0-0.2,0-0.2s0,0.3-0.3,0.7
	c-0.1,0.1-0.1,0.2-0.2,0.3c0,0,0,0,0,0c-0.1,0.1-0.2,0.2-0.3,0.4c-0.3,0.2-0.6,0.5-1,0.7c-0.2,0.1-0.4,0.2-0.6,0.4c0,0,0,0,0,0
	c-0.2,0.1-0.3,0.2-0.5,0.4c0,0,0,0,0,0c0,0,0,0,0,0c0,0,0,0,0,0c-0.1,0.1-0.2,0.2-0.3,0.3c0,0,0,0,0,0.1c-0.1,0.1-0.2,0.2-0.2,0.3
	c0,0,0,0.1-0.1,0.1c0,0,0,0,0,0.1c0,0,0,0.1-0.1,0.1c-0.1,0.1-0.1,0.2-0.1,0.4c0,0,0,0,0,0.1c0,0,0,0,0,0.1c0,0.1-0.1,0.3-0.1,0.4
	c0,0,0,0,0,0.1c0,0.1,0,0.1,0,0.2C62.3,38.4,62.3,38.5,62.3,38.6C62.3,38.6,62.3,38.6,62.3,38.6L62.3,38.6z"/>
<path class="st0" d="M55.7,57.9c0.1-0.1,0.1-0.2,0.1-0.3c0-0.1-0.1-0.3-0.2-0.4h-3.6c-0.1,0.1-0.2,0.2-0.2,0.4
	c0,0.1,0.1,0.2,0.1,0.3H55.7z"/>
<path class="st0" d="M52.3,58.2L52,64h3.7l-0.2-5.8H52.3z"/>
<path class="st0" d="M157.3,38.6c-1.4,0-2.5,1.1-2.5,2.5s1.1,2.5,2.5,2.5c1.4,0,2.5-1.1,2.5-2.5S158.7,38.6,157.3,38.6z M158.7,41.2
	h-1.2c0,0-0.1,0.1-0.2,0.1c-0.1,0-0.2-0.1-0.2-0.2c0-0.1,0-0.1,0.1-0.2v-1.8h0.3V41c0,0,0,0,0,0h1.2V41.2z"/>
<path class="st0" d="M154.2,52.2v0.3h0v2.8h6.1v-3.1H154.2z"/>
<path class="st0" d="M154.2,48.7V49v2.8h6.1v-3.1H154.2z"/>
<path class="st0" d="M160.3,45.4h-6.1v2.9h6.1v-2.7V45.4z"/>
<path class="st0" d="M154.2,62.2h6.1v-3.1h-6.1v0.2h0L154.2,62.2L154.2,62.2L154.2,62.2z"/>
<path class="st0" d="M154.2,55.7v0.2h0v2.8h6.1v-3.1H154.2z"/>
<path class="st0" d="M159.6,34.4H155l-0.6,0.9h5.9L159.6,34.4z"/>
<path class="st0" d="M154.2,62.6v0.1h0v2.9h2.9h0.3h0.6h0.3h0.6h0.3h0.6h0.3h0.2v-3H154.2z"/>
<path class="st0" d="M157.2,28.3l-1.1,2.2l-1,2h4.1L157.2,28.3z"/>
<path class="st0" d="M159.4,32.8h-4.3V34h4.3V32.8z"/>
<path class="st0" d="M153.3,37.3V45h8.1v-7.7H153.3z M157.3,44c-1.6,0-2.9-1.3-2.9-2.9c0-1.6,1.3-2.9,2.9-2.9c1.6,0,2.9,1.3,2.9,2.9
	C160.2,42.7,158.9,44,157.3,44z"/>
<path class="st0" d="M160.4,36.9l0-1.2h-6.2v1.2H160.4z"/>
<path class="st0" d="M51.9,62.8l-0.1-0.5l-0.6-3.8L51.2,58l-0.5-3.4l-0.6-3.8L49.5,47L49,43.7l-0.1-0.5l-0.6-3.8l-0.7,0.1l-0.1-0.6
	l-0.4-2.3l0.5-0.1l-0.1-0.8l-7.4,1.1l0.1,0.8l0.5-0.1l0.4,2.3l0.1,0.6l-0.7,0.1l0.1,0.5l0.5,3.3l0.1,0.5l0.4,2.8l0.1,0.5l0.1,0.5
	l0.4,2.8l0.1,0.5l0.1,0.5l0.4,2.8l0.1,0.5l0.1,0.5l0.4,2.8l0.1,0.5l0.6,3.8l0.1,0.5l0.2,1.4H45l-0.1-0.8c0-0.3,0.1-0.5,0.4-0.6
	c0.3,0,0.5,0.1,0.5,0.4l0.1,0.9h0.4l-0.2-1c0-0.3,0.1-0.5,0.4-0.6c0.3,0,0.5,0.1,0.5,0.4l0.2,1.1h0.4l-0.2-1.2
	c0-0.3,0.1-0.5,0.4-0.6c0.3,0,0.5,0.1,0.5,0.4l0.2,1.3h0.4L48.9,64c0-0.3,0.1-0.5,0.4-0.6c0.3,0,0.5,0.1,0.5,0.4l0.2,1.5h0.4
	l-0.2-1.6c0-0.3,0.1-0.5,0.4-0.6c0.3,0,0.5,0.1,0.5,0.4l0.3,1.7h0.8L51.9,62.8L51.9,62.8z M50.1,56l0.4,2.6l-1,0.1l-0.4-2.6
	c0-0.3,0.1-0.5,0.4-0.6C49.8,55.5,50,55.7,50.1,56z M46.2,52.2c0.3,0,0.5,0.1,0.5,0.4l0.4,2.6l-1,0.1l-0.4-2.6
	C45.8,52.5,46,52.2,46.2,52.2z M45.7,51.5l-0.4-2.6c0-0.3,0.1-0.5,0.4-0.6c0.3,0,0.5,0.1,0.5,0.4l0.4,2.6L45.7,51.5z M47.6,52
	c0.3,0,0.5,0.1,0.5,0.4l0.4,2.6l-1,0.1l-0.4-2.6C47.2,52.2,47.3,52,47.6,52z M47,51.3l-0.4-2.6c0-0.3,0.1-0.5,0.4-0.6
	c0.3,0,0.5,0.1,0.5,0.4l0.4,2.6L47,51.3z M46.4,47.5L46,44.9c0-0.3,0.1-0.5,0.4-0.6c0.3,0,0.5,0.1,0.5,0.4l0.4,2.6L46.4,47.5z
	 M46,47.5l-1,0.1l-0.4-2.6c0-0.3,0.1-0.5,0.4-0.6c0.3,0,0.5,0.1,0.5,0.4L46,47.5z M44.7,47.7l-1,0.1l-0.4-2.6c0-0.3,0.1-0.5,0.4-0.6
	c0.3,0,0.5,0.1,0.5,0.4L44.7,47.7z M44.3,48.5c0.3,0,0.5,0.1,0.5,0.4l0.4,2.6l-1,0.1l-0.4-2.6C43.9,48.8,44,48.6,44.3,48.5z
	 M44.9,52.4c0.3,0,0.5,0.1,0.5,0.4l0.4,2.6l-1,0.1l-0.4-2.6C44.5,52.7,44.6,52.4,44.9,52.4z M45.5,56.2c0.3,0,0.5,0.1,0.5,0.4
	l0.4,2.6l-1,0.1l-0.4-2.6C45,56.5,45.2,56.2,45.5,56.2z M46.8,56c0.3,0,0.5,0.1,0.5,0.4l0.4,2.6l-1,0.1l-0.4-2.6
	C46.4,56.3,46.6,56,46.8,56z M48.2,55.8c0.3,0,0.5,0.1,0.5,0.4l0.4,2.6l-1,0.1l-0.4-2.6C47.7,56.1,47.9,55.8,48.2,55.8z M49.5,52.2
	l0.4,2.6l-1,0.1l-0.4-2.6c0-0.3,0.1-0.5,0.4-0.6C49.2,51.7,49.5,51.9,49.5,52.2z M48.9,48.3l0.4,2.6l-1,0.1L48,48.5
	c0-0.3,0.1-0.5,0.4-0.6C48.6,47.9,48.9,48.1,48.9,48.3z M48.3,44.5l0.4,2.6l-1,0.1l-0.4-2.6c0-0.3,0.1-0.5,0.4-0.6
	C48.1,44.1,48.3,44.2,48.3,44.5z M47.2,40.3c0.3,0,0.5,0.1,0.5,0.4l0.4,2.6l-1,0.1l-0.4-2.6C46.8,40.6,46.9,40.3,47.2,40.3z
	 M45.9,40.5c0.3,0,0.5,0.1,0.5,0.4l0.4,2.6l-1,0.1L45.5,41C45.4,40.8,45.6,40.5,45.9,40.5z M44.5,40.7c0.3,0,0.5,0.1,0.5,0.4
	l0.4,2.6l-1,0.1l-0.4-2.6C44.1,41,44.2,40.7,44.5,40.7z M43.1,40.9c0.3,0,0.5,0.1,0.5,0.4l0.4,2.6l-1,0.1l-0.4-2.6
	C42.7,41.2,42.9,40.9,43.1,40.9z M41.8,44.3l-0.4-2.6c0-0.3,0.1-0.5,0.4-0.6c0.3,0,0.5,0.1,0.5,0.4l0.4,2.6L41.8,44.3z M42.4,48.1
	L42,45.5c0-0.3,0.1-0.5,0.4-0.6c0.3,0,0.5,0.1,0.5,0.4l0.4,2.6L42.4,48.1z M43,51.9l-0.4-2.6c0-0.3,0.1-0.5,0.4-0.6
	c0.3,0,0.5,0.1,0.5,0.4l0.4,2.6L43,51.9z M43.5,55.8l-0.4-2.6c0-0.3,0.1-0.5,0.4-0.6c0.3,0,0.5,0.1,0.5,0.4l0.4,2.6L43.5,55.8z
	 M44.1,59.6L43.7,57c0-0.3,0.1-0.5,0.4-0.6c0.3,0,0.5,0.1,0.5,0.4l0.4,2.6L44.1,59.6z M44.7,63.4l-0.4-2.6c0-0.3,0.1-0.5,0.4-0.6
	c0.3,0,0.5,0.1,0.5,0.4l0.4,2.6L44.7,63.4z M46,63.2l-0.4-2.6c0-0.3,0.1-0.5,0.4-0.6c0.3,0,0.5,0.1,0.5,0.4l0.4,2.6L46,63.2z
	 M47.4,63L47,60.4c0-0.3,0.1-0.5,0.4-0.6c0.3,0,0.5,0.1,0.5,0.4l0.4,2.6L47.4,63z M48.8,62.8l-0.4-2.6c0-0.3,0.1-0.5,0.4-0.6
	c0.3,0,0.5,0.1,0.5,0.4l0.4,2.6L48.8,62.8z M50.1,62.6L49.7,60c0-0.3,0.1-0.5,0.4-0.6c0.3,0,0.5,0.1,0.5,0.4l0.4,2.6L50.1,62.6z"/>
<path class="st0" d="M122.7,38.3c-0.8-4.7-1.3-9.2-1.6-12.9v-9.6h-3.3V25c-0.3,3.8-0.8,8.5-1.6,13.3H122.7z"/>
<path class="st0" d="M121.5,14.2v-0.6v0h-0.9V13h-2.2v0.6h-0.9v0.6H121.5z"/>
<path class="st0" d="M121.5,15.5l0-0.5h-0.9v-0.4h-2.2v0.4h-0.9v0.5H121.5z"/>
<path class="st0" d="M126.9,52.4l-0.1-0.2v-0.5h-14.7v0.4l-0.1,0.2H126.9z"/>
<path class="st0" d="M127,52.8h-15.2l-4.5,10h5.5c1-2.7,3.6-4.5,6.6-4.5s5.6,1.9,6.6,4.5h5.5L127,52.8L127,52.8z"/>
<path class="st0" d="M117.6,49.1l0.5-3.4h1.3h1.3l0.5,3.4h4.1c-0.5-1.7-1-3.4-1.4-5.1h0.2v-0.9h-9.4V44v0h0.2
	c-0.4,1.7-0.9,3.4-1.4,5.1L117.6,49.1L117.6,49.1z M118.3,44h2.3l0.1,1.3h-1.2h-1.2L118.3,44z"/>
<path class="st0" d="M106,63.1v2.3l6.9,0l0-2.3H106z"/>
<path class="st0" d="M126,63.1l0,2.3l6.9,0l0-2.3H126z"/>
<path class="st0" d="M123.3,38.7h-7.7v0.7h7.7V38.7z"/>
<path class="st0" d="M118.3,12.6h2.2v0h0.3v-0.7h-0.7L119.4,8v0v0l-0.7,3.9h-0.7v0.7L118.3,12.6L118.3,12.6z"/>
<path class="st0" d="M126.5,50.5h-14.2v0.9h14.2V50.5z"/>
<path class="st0" d="M123.6,42.8c-0.2-1-0.4-2-0.6-3.1h-7.1c-0.2,1-0.4,2-0.6,3.1H123.6z"/>
<path class="st0" d="M126.8,49.5h-14.7v0.7h14.7V49.5z"/>
<path class="st0" d="M151.3,58.8c-0.2-0.2-0.3-0.5-0.5-0.7c-0.1-0.2-0.3-0.3-0.4-0.4c-0.1-0.1-0.2-0.1-0.2-0.2c-0.5,0.4-1,0.7-1.4,1
	c-3,2.6-4.5,3.1-5.1,3c-0.3,1.1-0.9,3.7-0.7,3.8c0,0,0.1,0,0.1,0h10.3C153.3,65.4,153.5,61.5,151.3,58.8L151.3,58.8z"/>
<path class="st0" d="M143.3,60.1L143.3,60.1c1.4-0.2,4.2-0.8,6.5-2.8c0.1,0,0.1-0.1,0.2-0.1c0,0,0.1-0.1,0.1-0.1
	c0.1-0.1,0.1-0.1,0.2-0.2c0,0,0.1-0.1,0.1-0.1c0.1-0.1,0.1-0.1,0.2-0.2c0,0,0.1-0.1,0.1-0.1c0.1-0.1,0.2-0.2,0.2-0.3
	c0,0,0-0.2,0-0.5c0-0.1,0-0.2,0-0.3c0-0.3,0-0.6,0-0.9c0-0.4,0-0.9,0.1-1.4c0-0.1,0-0.2,0-0.3c0-0.2,0-0.4,0-0.6c0-0.1,0-0.2,0-0.3
	c0-0.2,0-0.4,0.1-0.7c0-0.1,0-0.2,0-0.3c0.1-0.9,0.2-1.7,0.4-2.4c0.4-2-0.2-4.3-0.6-5.6c0-0.1-0.1-0.2-0.1-0.3c0,0,0,0,0-0.1
	c0-0.1-0.1-0.1-0.1-0.2c0,0,0,0,0,0c-0.1-0.1-0.1-0.1-0.2-0.2c0,0,0,0,0,0c-0.1,0-0.1-0.1-0.2-0.1c0,0,0,0,0,0
	c-0.2-0.1-0.3-0.1-0.5-0.1c-1.8-0.1-5.5,0.2-6.3,3.9c0,0,3.1-2.7,6.3-0.5c0,0.2,0.1,0.4,0.2,0.6c0.1,0.2,0.1,0.3,0.1,0.5l-2.6,0.4
	l-0.9,5.8l-0.1,0c-0.1,0.1-1.9,1.1-4.1,1.3c0,0.6-0.1,1.3-0.2,1.9c0,0,1.5-0.8,4.1,0c0,0-3.1,0.3-4.2,1c-0.3,1.9-0.6,3.6,1.1,3.7
	C143.1,60.1,143.2,60.1,143.3,60.1L143.3,60.1z"/>
<path class="st0" d="M143.8,47c0,0-1.4,1.9-1.7,3.7c0.8-0.7,1.7-1.8,2.1-3.8L143.8,47z"/>
<path class="st0" d="M141.8,52.2c0,0.2,0.1,0.5,0.3,0.8c0,0,0,0.1,0.1,0.2c2-0.1,3.7-1,4.1-1.2l0.9-5.6c-1.5-0.6-2.1-0.3-2.4,0.1
	c-0.4,2.9-1.9,4.3-2.8,4.9C141.6,51.9,141.8,52.2,141.8,52.2L141.8,52.2z"/>
<path class="st0" d="M163.4,25.4h4.9l0-0.5v-1h-4.9v1L163.4,25.4z"/>
<path class="st0" d="M163.6,27.7h4.5l0-1.9h-4.5L163.6,27.7z"/>
<path class="st0" d="M168.9,29.6l0-1.5h-6v1.5H168.9z"/>
<path class="st0" d="M162.4,34.8h6.9v-1.5h-6.9v1V34.8z"/>
<path class="st0" d="M163.4,29.9l0,3h5v-0.4l0-2.7H163.4z"/>
<path class="st0" d="M162.8,35.2l0,5.8h6.1l0-0.5l0-5.2H162.8z"/>
<path class="st0" d="M179,25.8l0,1.9h4.5v-1.3v-0.6H179z"/>
<path class="st0" d="M184.9,51.1h-22.6l0,3.3h22.6L184.9,51.1z"/>
<path class="st0" d="M169.9,42.2l0-1h-8v1v0.5h8V42.2z"/>
<path class="st0" d="M185.2,42.8v-0.5v-1h-8l0,1.5H185.2z"/>
<path class="st0" d="M178.7,25.4h4.9v-0.6l0-0.9h-4.9l0,0.9V25.4z"/>
<path class="st0" d="M167.7,23.5C167.7,23.5,167.7,23.4,167.7,23.5c0-0.1,0-0.2-0.1-0.3c0,0,0,0,0,0c0-0.1-0.1-0.2-0.1-0.3
	c0,0,0,0,0,0c0-0.1-0.1-0.2-0.2-0.3c0,0,0,0,0,0c-0.1-0.1-0.1-0.2-0.2-0.2c0,0,0,0,0,0c-0.2-0.2-0.5-0.4-0.8-0.4l-0.1-0.7h0.3
	c0.2,0,0.3-0.1,0.3-0.3c0-0.1,0-0.2-0.1-0.2c-0.1-0.1-0.1-0.1-0.2-0.1h-0.3l-0.3-3l0-0.1l-0.3,3.1h-0.3c-0.2,0-0.3,0.1-0.3,0.3
	c0,0.2,0.1,0.3,0.3,0.3h0.3l-0.1,0.7c-0.8,0.2-1.4,0.9-1.5,1.7h3.8C167.7,23.6,167.7,23.5,167.7,23.5L167.7,23.5z"/>
<path class="st0" d="M183.1,23.5C183.1,23.5,183.1,23.4,183.1,23.5c0-0.1,0-0.2-0.1-0.3c0,0,0,0,0,0c0-0.1-0.1-0.2-0.1-0.3
	c0,0,0,0,0,0c0-0.1-0.1-0.2-0.2-0.3c0,0,0,0,0,0c-0.1-0.1-0.1-0.2-0.2-0.2c0,0,0,0,0,0c-0.2-0.2-0.5-0.4-0.8-0.4l0-0.3l0-0.4h0.3
	c0.2,0,0.3-0.1,0.3-0.3c0,0,0-0.1,0-0.1c0-0.1-0.2-0.2-0.3-0.2h-0.3h0l-0.2-1.7l-0.1-1.4l-0.3,3.1h-0.3c-0.2,0-0.3,0.1-0.3,0.3
	c0,0.2,0.1,0.3,0.3,0.3h0.3l-0.1,0.7c-0.8,0.2-1.4,0.9-1.5,1.7h3.8C183.1,23.6,183.1,23.5,183.1,23.5L183.1,23.5z"/>
<path class="st0" d="M177.6,54.8l0,10.6l0.5,0h0.4h0.6h0.5l0.9,0h0.4h0.5h0.1h0.2h0.6h0.4l0.4,0h0.6h0.2h0.4h0.5l0-10.6H177.6z"/>
<path class="st0" d="M178.2,29v0.5h6v-1.5h-6V29z"/>
<path class="st0" d="M162.3,54.8l0,10.6l6.3,0h0.4h0.5l0-10.6H162.3z"/>
<path class="st0" d="M178.7,33h5l0-3h-5L178.7,33z"/>
<path class="st0" d="M178.2,40.9h6.1l0-5.8h-6.1L178.2,40.9z"/>
<path class="st0" d="M169.5,43.1h-7.3l0,7.6h7.3L169.5,43.1z"/>
<path class="st0" d="M177.6,50.7h7.3l0-7.6h-7.3L177.6,50.7z"/>
<path class="st0" d="M184.7,34.8v-1.5h-6.9v1.5H184.7z"/>
<path class="st0" d="M212.6,65.4c-0.1-0.6-0.3-1.2-0.4-1.8c-0.1-0.6-0.3-1.2-0.5-1.7c-0.3-1.2-0.7-2.3-1.1-3.4
	c-0.8-2.3-1.6-4.5-2.7-6.7c-1.1-2.1-2.4-4.2-4.1-6c-0.9-0.9-1.9-1.7-3-2.2c-1.1-0.6-2.4-0.9-3.7-0.9c-1.3,0-2.6,0.3-3.7,0.8
	c-1.1,0.5-2.1,1.3-3,2.2c-1.7,1.8-3,3.9-4,6c-1,2.2-1.9,4.4-2.6,6.7c-0.4,1.1-0.7,2.3-1,3.5c-0.2,0.6-0.3,1.2-0.4,1.7
	c-0.1,0.6-0.3,1.1-0.4,1.7h2.3c0-0.4,0.1-0.9,0.2-1.3c0.1-0.6,0.2-1.1,0.3-1.7c0.2-1.1,0.5-2.3,0.7-3.4c0.6-2.2,1.3-4.5,2.2-6.6
	c0.9-2.1,2.1-4.1,3.6-5.7c0.8-0.8,1.7-1.5,2.6-2c1-0.5,2-0.7,3.1-0.7c1.1,0,2.1,0.3,3.1,0.8c1,0.5,1.9,1.2,2.6,2
	c0.8,0.8,1.5,1.7,2.1,2.7c0.6,1,1.2,2,1.6,3c1,2.1,1.7,4.3,2.3,6.5c0.3,1.1,0.6,2.2,0.8,3.4c0.1,0.6,0.2,1.1,0.3,1.7
	c0.1,0.4,0.1,0.9,0.2,1.3L212.6,65.4C212.6,65.4,212.6,65.4,212.6,65.4L212.6,65.4z"/>
<path class="st0" d="M132.7,48.8l1.9,0.5l-0.2,2.4l5.7,4.5l0-3.2l-4.5-2.2l2-9.8l-0.1-4.4h0l0-2.6c0-0.9-0.7-1.6-1.6-1.6
	c0,0,0,0,0,0c-0.4,0-0.8,0.2-1.1,0.5c-0.1,0.1-0.1,0.1-0.2,0.2c0,0,0,0,0,0c-0.1,0.1-0.1,0.2-0.1,0.3c0,0,0,0,0,0
	c0,0.1-0.1,0.2-0.1,0.3c0,0,0,0,0,0c0,0.1,0,0.2,0,0.3l0,2.8c-1.3,0.1-2.9,0.2-4.3,0.4h0c-0.2,0-0.3,0-0.5,0.1h0
	c-0.3,0-0.6,0.1-0.9,0.1l1.1,1.5l3.6,1.8l-0.2,0.3l-3.7-1.8l-1.3-1.7c-0.4,0-0.7,0.1-0.9,0.1h0c-0.3,0-0.5,0.1-0.5,0.1
	s-1.9-1.4-1.9-0.3l-1.4,0c0,0,0.3,1.5,3.3,1.1l1.6,2l4.3,2L132.7,48.8L132.7,48.8z"/>
<path class="st0" d="M140.2,57.8v-1.2l-6.1-4.8l0.2-2.3l-1.6-0.4l0,0.2l0,0.9l-0.5,11.1h8L140.2,57.8L140.2,57.8z"/>
<path class="st0" d="M147.3,37.3c0,0,0.4-1-2.1,0.2c0,0-0.3,0-0.8-0.1c-0.4-0.1-1.1-0.1-1.8-0.2l-0.4,1.5l-2.3,2l-0.2-0.3l2.3-1.9
	l0.4-1.3c-0.1,0-0.1,0-0.2,0l0,0h-0.3c-1.2-0.1-2.6-0.3-3.8-0.4l0,4.3v0l-2,9.6l4.3,2.2l-0.5-9.4l-0.5-0.2l0-1.7l4.2-1.1l1.7-2.3
	c0,0,2.4,0.8,3.1-0.7L147.3,37.3L147.3,37.3z"/>
<path class="st0" d="M131.9,61.8l-0.7,3.7h9.9l-0.7-3.7H131.9z"/>
<path class="st0" d="M31.9,62.3v0.9h11.5c0-0.3,0-0.6,0-0.9H31.9L31.9,62.3z"/>
<path class="st0" d="M31.3,64.3h12.1c0-0.2,0-0.3,0-0.5c0-0.1,0-0.2,0-0.2H31.3L31.3,64.3L31.3,64.3z"/>
<path class="st0" d="M31.3,62h12.1c0-0.1,0-0.1,0-0.2c0-0.2,0-0.4,0-0.5c0,0,0,0,0,0h-12V62z"/>
<path class="st0" d="M31.9,55.3v0.9H43c0-0.3-0.1-0.6-0.1-0.9H31.9z"/>
<path class="st0" d="M31.9,53v0.9h10.9c0-0.3-0.1-0.6-0.1-0.9H31.9L31.9,53z"/>
<path class="st0" d="M31.9,57.7v0.9h11.3c0-0.3,0-0.6-0.1-0.9H31.9z"/>
<path class="st0" d="M31.9,60v0.9h11.5c0-0.3,0-0.6,0-0.9H31.9z"/>
<path class="st0" d="M31.3,59.6h12c0-0.1,0-0.1,0-0.2c0-0.2,0-0.4,0-0.6H31.3L31.3,59.6L31.3,59.6z"/>
<path class="st0" d="M31.3,38.8H38c-0.1-0.1-0.1-0.2-0.2-0.3c0,0-0.1-0.1-0.1-0.1c-0.1-0.1-0.1-0.2-0.2-0.3h-6.3V38.8L31.3,38.8z"/>
<path class="st0" d="M31.3,41.1h8c0-0.1-0.1-0.2-0.1-0.2c0-0.1-0.1-0.1-0.1-0.2c0-0.1-0.1-0.2-0.1-0.3h-7.6L31.3,41.1L31.3,41.1z"/>
<path class="st0" d="M31.3,55h11.6c0,0,0-0.1,0-0.1c0-0.2,0-0.4-0.1-0.6c0,0,0,0,0-0.1H31.3V55z"/>
<path class="st0" d="M31.3,52.7h11.2c0-0.2-0.1-0.5-0.1-0.7c0,0,0,0,0,0H31.3V52.7z"/>
<path class="st0" d="M31.3,57.3h11.8c0,0,0-0.1,0-0.1c0-0.2,0-0.4-0.1-0.6H31.3L31.3,57.3L31.3,57.3z"/>
<path class="st0" d="M31.9,39.1V40h6.8c-0.2-0.3-0.3-0.6-0.5-0.9H31.9z"/>
<path class="st0" d="M31.9,41.4v0.9h7.9c-0.1-0.3-0.3-0.6-0.4-0.9H31.9z"/>
<path class="st0" d="M31.3,42.7v0.7h8.9c-0.1-0.2-0.2-0.5-0.3-0.7H31.3z"/>
<path class="st0" d="M31.9,64.6v0.8h11.6c0-0.3,0-0.5,0-0.8H31.9L31.9,64.6z"/>
<path class="st0" d="M37.4,37.7c-1.5-2.3-3-3.6-4.1-4.2v-1.3H33v-4.6h-0.6v4.6h-0.2v0.7c-0.2-0.1-0.4-0.2-0.4-0.2v5L37.4,37.7
	L37.4,37.7z"/>
<path class="st0" d="M31.9,43.8v0.9h8.8c-0.1-0.3-0.2-0.6-0.3-0.9H31.9z"/>
<path class="st0" d="M31.9,48.4v0.9h10c-0.1-0.3-0.1-0.6-0.2-0.9H31.9L31.9,48.4z"/>
<path class="st0" d="M31.9,50.7v0.9h10.5c-0.1-0.3-0.1-0.6-0.2-0.9H31.9z"/>
<path class="st0" d="M31.3,49.6v0.7h10.8c0-0.2-0.1-0.5-0.1-0.7H31.3z"/>
<path class="st0" d="M31.9,46.1V47h9.5c-0.1-0.3-0.2-0.6-0.3-0.9H31.9L31.9,46.1z"/>
<path class="st0" d="M31.3,47.3V48h10.3c-0.1-0.2-0.1-0.5-0.2-0.7H31.3z"/>
<path class="st0" d="M31.3,45v0.7H41c-0.1-0.2-0.2-0.5-0.2-0.7H31.3z"/>
<path class="st0" d="M199,56.2l-0.9-18.6h-1.9l-0.9,18.6H199z"/>
<path class="st0" d="M195.4,36.8c0,0.2,0.1,0.3,0.2,0.4h3.3c0.1-0.1,0.2-0.2,0.2-0.4c0-0.1,0-0.2-0.1-0.3h-3.5
	C195.4,36.6,195.4,36.7,195.4,36.8z"/>
<path class="st0" d="M194.9,33.3C194.9,33.3,194.9,33.3,194.9,33.3c0,0.1,0,0.2,0,0.3c0,0.9,0.5,1.6,1.2,2h2.4
	c0.7-0.4,1.2-1.2,1.2-2c0-0.1,0-0.2,0-0.3v0c-0.1-0.8-0.6-1.5-1.3-1.8h-2.2C195.5,31.9,195,32.5,194.9,33.3L194.9,33.3z"/>
<path class="st0" d="M201.8,60.1c0-0.1,0-0.2,0-0.3c0,0,0-0.1,0-0.1c0-0.1-0.1-0.3-0.1-0.4c-0.4-1.2-1.2-2.2-2.2-2.7h-4.3
	c-1.1,0.6-1.9,1.5-2.2,2.7c0,0.1-0.1,0.3-0.1,0.4c0,0,0,0.1,0,0.1c0,0.1,0,0.2,0,0.3c0,0,0,0.1,0,0.1c0,0.1,0,0.3,0,0.4c0,0,0,0,0,0
	c0,1.9,1.2,3.6,2.8,4.3c0.6,0.2,1.2,0.4,1.8,0.4c2.6,0,4.6-2.1,4.6-4.6c0-0.1,0-0.3,0-0.4C201.8,60.2,201.8,60.2,201.8,60.1
	L201.8,60.1z"/>
<path class="st0" d="M196.6,31.1h1.3l-0.5-11.4h-0.2l-0.4,9.1L196.6,31.1z"/>
<path class="st0" d="M196.4,36l0,0.2h1.7l0-0.2H196.4z"/>
<path class="st0" d="M30,63L30,63l0-0.8l0-6.3h-6.8l0,7.1l0,0H30z"/>
<path class="st0" d="M29.8,43.7H6.7l0,1.6H31v0l-1.1,0L29.8,43.7z"/>
<path class="st0" d="M13.7,62.3l0-6.4H6.8l0,7.1h6.8L13.7,62.3z"/>
<path class="st0" d="M31,42.7l0-0.3H5.6l0,0.5l0,0.5H31L31,42.7z"/>
<path class="st0" d="M23.1,55.5h6.8v-0.5l0-0.8l0-4.6H6.8V50l0,5.5h6.8V55c0,0,0.2-3.9,4.7-3.9c4.5,0,4.8,3.8,4.8,3.8L23.1,55.5
	L23.1,55.5z M26.3,50.1c1.2,0,2.2,1,2.2,2.2c0,1.2-1,2.2-2.2,2.2c-1.2,0-2.2-1-2.2-2.2C24.2,51,25.1,50.1,26.3,50.1z M10.2,54.4
	c-1.2,0-2.2-1-2.2-2.2c0-1.2,1-2.2,2.2-2.2c1.2,0,2.2,1,2.2,2.2C12.3,53.4,11.4,54.4,10.2,54.4z"/>
<path class="st0" d="M23.1,63.3l-0.4,2h7.8l-0.4-2H23.1z"/>
<path class="st0" d="M6.6,49.1h23.3l0.9-1.6H5.7L6.6,49.1z"/>
<path class="st0" d="M6.8,63.3l-0.4,2h7.8l-0.4-2H6.8z"/>
<path class="st0" d="M31,45.6H5.6V46l0,1.1H31L31,45.6z"/>
<path class="st0" d="M227.8,66.3H4.5c-0.3,0-0.5-0.2-0.5-0.5c0-0.3,0.2-0.5,0.5-0.5h223.3c0.3,0,0.5,0.2,0.5,0.5
	C228.2,66.1,228,66.3,227.8,66.3z"/>
<path class="st0" d="M223.7,56.3h-1.4l1.2,1.3h2l1.4-1.3h-1.6l0-2.1h-1.5L223.7,56.3z"/>
<path class="st0" d="M223.8,52.6c-1.1,0.1-2.5,0.1-4.1,0.1h0h-2.5c-1.5,0-2.8,0-3.9-0.1l0-2.8H212l0,2.7c-3-0.2-3.8-0.6-3.8-0.7
	l2.2,1.3v0.6h16.2v-0.6l0.2,0l2.2-1.4c-0.1,0-0.8,0.4-3.7,0.6l0-2.7h-1.4L223.8,52.6L223.8,52.6z"/>
<path class="st0" d="M214.9,56.3l-1.4,0l0-2.1h-1.5l0,2.1h-1.6l1.3,1.3h2L214.9,56.3z"/>
<path class="st0" d="M207.1,47.6c-0.1,0-0.2-0.1-0.2-0.1l1.3,0.8l0.9,0.6h0v0.6h18.6v-1c0.5-0.1,0.9-0.1,1.2-0.2l1.3-0.8
	c0,0-0.1,0-0.2,0.1c0.2-0.1,0.2-0.1,0.2-0.1l1.8-1.6c0,0-4.7,1.3-9.5,1.3c-4.4,0-3.3,0-3.1,0c-0.2,0-1,0-4.8,0
	c-4.9,0-9.5-1.3-9.5-1.3l1.8,1.6C206.9,47.5,206.9,47.5,207.1,47.6L207.1,47.6z"/>
<path class="st0" d="M223.7,57.9l-0.1,7.5h1.8l-0.1-7.5H223.7z"/>
<path class="st0" d="M211.8,57.9l-0.1,7.5h1.8l-0.1-7.5H211.8z"/>
</svg>
