<?xml version="1.0" encoding="utf-8"?>
<!-- Generator: Adobe Illustrator 27.0.0, SVG Export Plug-In . SVG Version: 6.00 Build 0)  -->
<svg version="1.1" id="Layer_1" xmlns="http://www.w3.org/2000/svg" xmlns:xlink="http://www.w3.org/1999/xlink" x="0px" y="0px"
	 viewBox="0 0 100 100" style="enable-background:new 0 0 100 100;" xml:space="preserve">
<style type="text/css">
	.st0{fill:#1940B3;}
</style>
<path class="st0" d="M50.46,90.36c-13.44,0-26.89,0-40.33,0c-2.56,0-3.1-0.54-3.1-3.11c0-14.53,0.02-29.06-0.02-43.59
	c0-1.42,0.47-2.33,1.6-3.18c5.39-4.05,10.7-8.2,16.08-12.27c0.71-0.54,0.94-1.08,0.92-1.93c-0.05-2.49-0.03-4.98-0.01-7.47
	c0.02-2.03,0.67-2.69,2.69-2.7c3.67-0.02,7.33,0.03,11-0.04c0.71-0.01,1.52-0.29,2.09-0.71c2.48-1.82,4.89-3.73,7.33-5.6
	c1.48-1.13,2.13-1.13,3.62,0.01c2.44,1.87,4.85,3.79,7.33,5.6c0.57,0.42,1.38,0.7,2.09,0.71c3.67,0.07,7.33,0.02,11,0.04
	c2.1,0.01,2.76,0.68,2.77,2.76c0.01,2.49,0.04,4.98-0.02,7.47c-0.02,0.84,0.21,1.39,0.92,1.92c5.41,4.09,10.77,8.26,16.18,12.35
	c1.01,0.76,1.42,1.61,1.41,2.87c-0.03,14.67-0.02,29.34-0.02,44c0,2.27-0.62,2.88-2.92,2.88C77.53,90.37,63.99,90.37,50.46,90.36
	L50.46,90.36z M89.83,46.97c-0.48,0.33-0.82,0.54-1.13,0.78c-12.1,9.27-24.2,18.55-36.3,27.83c-1.63,1.25-2.15,1.27-3.7,0.08
	c-11.77-9.03-23.55-18.06-35.32-27.09c-0.69-0.53-1.41-1.03-2.17-1.57V86.2h78.62V46.97z M29.76,20.26c-0.04,0.41-0.1,0.76-0.1,1.11
	c-0.01,11.18-0.02,22.36,0.03,33.54c0,0.56,0.4,1.29,0.85,1.65c2.61,2.09,5.29,4.1,7.95,6.13c3.98,3.05,7.96,6.09,11.96,9.15
	c0.22-0.13,0.38-0.2,0.52-0.31c6.53-5.01,13.08-10,19.58-15.05c0.47-0.36,0.83-1.18,0.83-1.78c0.05-11,0.04-22,0.04-33v-1.45
	L29.76,20.26L29.76,20.26z M88.59,42.71c-4.36-3.34-8.63-6.61-13-9.95v19.91C79.97,49.32,84.18,46.09,88.59,42.71z M25.46,52.7
	V32.72c-4.43,3.39-8.69,6.65-13.04,9.99C16.77,46.04,21.03,49.31,25.46,52.7z M47.23,16.11h6.38c-1.88-1.89-3.76-2.11-5.65-0.64
	C47.83,15.57,47.71,15.69,47.23,16.11L47.23,16.11z"/>
<path class="st0" d="M50.64,41.2c3.8,0,7.6-0.01,11.4,0c1.61,0,2.55,0.72,2.59,1.94c0.04,1.27-0.98,2.13-2.59,2.13
	c-7.69,0.01-15.38,0.01-23.07,0c-1.52,0-2.52-0.85-2.52-2.07c-0.01-1.24,0.93-2.01,2.53-2.01C42.87,41.19,46.76,41.2,50.64,41.2
	L50.64,41.2z"/>
<path class="st0" d="M50.51,58.07c-3.84,0-7.69,0.01-11.53,0c-1.6,0-2.53-0.75-2.52-2c0.01-1.22,1.01-2.07,2.53-2.07
	c7.73-0.01,15.47-0.01,23.2,0c1.03,0,2,0.32,2.23,1.38c0.14,0.64-0.04,1.55-0.43,2.06c-0.33,0.42-1.18,0.61-1.8,0.61
	C58.28,58.1,54.39,58.08,50.51,58.07L50.51,58.07z"/>
<path class="st0" d="M50.52,32.32c-3.98,0-7.96,0.02-11.93-0.01c-1.3-0.01-2.18-0.86-2.12-1.97c0.07-1.2,0.77-1.9,1.96-2.04
	c0.45-0.05,0.9-0.04,1.35-0.04c5.11,0,10.22,0,15.33,0c2.17,0,4.34,0,6.51,0c0.4,0,0.82,0,1.21,0.08c1.12,0.21,1.76,0.91,1.79,2.05
	c0.03,1.07-0.82,1.89-2.03,1.92c-2.35,0.06-4.7,0.03-7.05,0.03c-1.67,0-3.34,0-5.02,0L50.52,32.32L50.52,32.32z"/>
</svg>
