<?xml version="1.0" encoding="utf-8"?>
<!-- Generator: Adobe Illustrator 27.0.0, SVG Export Plug-In . SVG Version: 6.00 Build 0)  -->
<svg version="1.1" id="Layer_1" xmlns="http://www.w3.org/2000/svg" xmlns:xlink="http://www.w3.org/1999/xlink" x="0px" y="0px"
	 viewBox="0 0 100 100" style="enable-background:new 0 0 100 100;" xml:space="preserve">
<g>
	<path d="M51.37,95.52c-18.59-0.87-32.92-7.06-43.14-21.35c-1.51-2.1-1.63-4.22-0.4-6.45c4.88-8.89,12.51-13.93,22.29-16.03
		c3.25-0.7,6.04-0.02,8.96,1.59c7.22,3.99,14.64,4.24,21.91-0.03c4.08-2.4,8.2-2.09,12.47-0.7c8.01,2.6,14.25,7.37,18.58,14.63
		c1.54,2.58,1.11,4.85-0.56,7.17c-7.14,9.91-16.7,16.31-28.47,19.27C58.76,94.68,54.32,95.05,51.37,95.52z M85.42,70.34
		c-3.94-6.58-9.71-10.32-16.92-11.88c-1.08-0.23-2.5,0.13-3.51,0.69c-10.21,5.71-20.31,5.25-30.4-0.26
		c-0.6-0.33-1.39-0.62-2.02-0.53c-7.49,1.17-13.39,4.86-17.41,11.34c-0.25,0.41-0.17,1.33,0.13,1.72c1.29,1.69,2.57,3.44,4.14,4.85
		c11.92,10.79,25.82,14.39,41.43,10.7C71.03,84.58,79.24,78.99,85.42,70.34z"/>
	<path d="M51.01,53.17c-10.52-0.24-19.34-3.99-24.69-13.43c-5.68-10.02-2.92-22.07,6.13-29.25c10.48-8.32,26.46-7.94,36.11,0.85
		c12.42,11.32,9.89,30.46-5.02,38.26C59.61,51.66,55.5,52.94,51.01,53.17z M30.9,28.84c-0.02,4.25,1.41,7.91,4.32,10.98
		c6.89,7.28,17.89,8.45,26.26,2.8c8.55-5.76,10.09-16.95,3.41-24.79c-5.34-6.27-15.81-8.3-23.59-4.53
		C34.83,16.45,31.08,21.47,30.9,28.84z"/>
</g>
</svg>
