<?xml version="1.0" encoding="utf-8"?>
<!-- Generator: Adobe Illustrator 27.0.0, SVG Export Plug-In . SVG Version: 6.00 Build 0)  -->
<svg version="1.1" id="Layer_1" xmlns="http://www.w3.org/2000/svg" xmlns:xlink="http://www.w3.org/1999/xlink" x="0px" y="0px"
	 viewBox="0 0 100 100" style="enable-background:new 0 0 100 100;" xml:space="preserve">
<g>
	<path d="M37,60.4c3.1-1.2,6.1-2.3,9.1-3.3c1.9-0.7,3.9-1.5,5.9-2c4-0.9,7.7,1.3,8.6,5.3c0.7,3.1-0.8,7-4.4,8.2
		c-6,2.1-12,4.4-18,6.6c-0.3,0.1-0.6,0.5-0.8,0.9c-0.7,2-1.6,3.9-3.2,5.3c-2.1,1.7-4.4,2.6-7.1,2.1c-2.9-0.5-5.8-0.9-8.7-1.6
		c-3.7-0.8-6.5-4.3-6.6-8.1c-0.1-5.7-0.1-11.4,0-17.1c0-2.7,1.2-5,3.4-6.5c5.3-3.7,10.7-7.3,16.1-10.9c2.5-1.6,5.6,0.1,5.6,3.2
		c0,4,0,7.9,0,11.9C37,56.2,37,58.2,37,60.4z"/>
	<path d="M47.1,77.4c0,1.2,0,2.2,0,3.2c0,1.9,1.3,3.2,3.2,3.2c10.1,0,20.2,0,30.3,0c2,0,3.2-1.3,3.2-3.3c0-9.3,0-18.7,0-28
		c0-10,0-20.1,0-30.1c0-2.5-1.2-3.7-3.6-3.7c-9.9,0-19.9,0-29.8,0c-2.3,0-3.5,1.2-3.5,3.5c0,9.3,0,18.7,0,28c0,0.9-0.3,1.4-1.2,1.6
		c-1.3,0.4-2.5,0.9-3.9,1.4c0-1.6,0-3,0-4.5c0-8.9,0-17.8,0-26.6c0-2.8,1-5,3.2-6.7c1.5-1.2,3.3-1.7,5.2-1.7c10.1,0,20.1,0,30.2,0
		c5,0,8.6,3.7,8.6,8.8c0,18.3,0,36.6,0,54.9c0,1.7,0.1,3.5-0.2,5.2c-0.8,4-4,6.3-8.2,6.3c-9.2,0-18.3,0-27.5,0
		c-1.6,0-3.2,0.1-4.8-0.3c-3.7-0.8-6-3.7-6.2-7.5c-0.1-1.9-0.1-1.9,1.6-2.5C44.8,78.3,45.9,77.9,47.1,77.4z"/>
	<path d="M52.7,33.4c0-2.2,0-4.4,0-6.7c0-1.6,0.9-2.5,2.5-2.5c3.3,0,6.7,0,10,0c1.7,0,2.6,0.8,2.6,2.6c0,4.4,0,8.8,0,13.1
		c0,2-0.8,2.8-2.9,2.8c-3.2,0-6.5,0-9.7,0c-1.7,0-2.6-0.9-2.6-2.5C52.7,37.9,52.7,35.7,52.7,33.4z"/>
	<path d="M52.2,75.3c1.5-0.6,3.1-1.1,4.6-1.6c1.9-0.6,3.6-1.4,5-2.8c0.2-0.2,0.5-0.3,0.8-0.3c5.3,0,10.6,0,15.9,0
		c1.6,0,2.6,1,2.6,2.4c0,1.4-1,2.5-2.5,2.5c-8.8,0-17.6,0-26.4,0C52.3,75.4,52.3,75.4,52.2,75.3z"/>
	<path d="M58,50.5c0.4,0,0.6-0.1,0.8-0.1c6.6,0,13.1,0,19.7,0c1.7,0,2.7,0.8,2.8,2.3c0.1,1.6-0.9,2.7-2.6,2.8c-1.7,0.1-3.4,0-5.1,0
		c-2.9,0-5.8,0-8.8,0c-0.5,0-0.9-0.2-1.2-0.6c-1.2-1.8-2.8-3-4.7-3.9C58.6,50.9,58.4,50.7,58,50.5z"/>
	<path d="M65.5,65.5c0.2-1.6,0.3-3.2,0.5-5c0.2,0,0.4,0,0.7,0c3.9,0,7.7,0,11.6,0c1.9,0,3.1,1.2,2.9,2.9c-0.1,1.2-1,2.1-2.1,2.1
		C74.6,65.6,70.1,65.5,65.5,65.5C65.5,65.5,65.4,65.5,65.5,65.5z"/>
</g>
</svg>
