<?xml version="1.0" encoding="utf-8"?>
<!-- Generator: Adobe Illustrator 27.0.0, SVG Export Plug-In . SVG Version: 6.00 Build 0)  -->
<svg version="1.1" id="Layer_1" xmlns="http://www.w3.org/2000/svg" xmlns:xlink="http://www.w3.org/1999/xlink" x="0px" y="0px"
	 viewBox="0 0 100 100" style="enable-background:new 0 0 100 100;" xml:space="preserve">
<style type="text/css">
	.st0{fill:#424242;}
</style>
<path class="st0" d="M19.2,18.7c0-0.9,0-1.6,0-2.3c0-3.1,2.3-5.4,5.4-5.4c1.5,0,2.9,0,4.4,0c0.6,0,0.9-0.1,1.2-0.7
	C31.5,7.5,33.7,6,36.7,6s5.2,1.6,6.4,4.3c0.3,0.7,0.7,0.9,1.4,0.8c1.4,0,2.9,0,4.3,0c3.2,0,5.2,2,5.3,5.2c0,0.7,0,1.5,0,2.3
	c1.7,0,3.3,0,4.9,0c4.2,0.1,7.3,2.6,8.2,6.7c0.2,1,0.1,2,0.1,3.1c0,2.4,0,4.7,0,7.1c0,0.5,0.1,0.8,0.6,1.1
	c9.2,4.9,13.9,13.8,12.6,24.2c-0.2,1.7-0.8,3.3-1.3,4.9c-0.3,0.8-0.1,1.3,0.4,1.9c3.9,3.9,7.8,7.7,11.7,11.6
	c3.5,3.5,3.4,8.7-0.2,12.3c-3.3,3.4-8.8,3.5-12.2,0.1C75.2,88,71.6,84.4,68,80.8c-0.2-0.2-0.4-0.4-0.8-0.7c0,1.8-0.1,3.5,0,5.1
	c0.3,5-3.6,9-8.9,9c-14.6-0.1-29.3,0-43.9,0c-3.3,0-5.9-1.2-7.5-4.1c-0.6-1-1-2.4-1-3.6C6,66.4,6,46.5,6,26.7c0-4.4,3.6-7.9,8-8
	C15.7,18.6,17.4,18.7,19.2,18.7z M34.4,52c-0.4,0-0.7,0-1.1,0c-4.3,0-8.5,0-12.8,0c-1.2,0-1.9-0.5-2.1-1.4c-0.3-1.3,0.6-2.2,2-2.2
	c4.7,0,9.4,0,14.2,0c0.4,0,0.9-0.2,1.1-0.4c0.9-1.6,1.8-3.2,2.7-4.9c-1.6,0-3.1,0-4.7,0c-4.5,0-9,0-13.4,0c-1.4,0-2.3-0.9-2-2.2
	c0.2-1,0.9-1.5,2.2-1.5c6.8,0,13.7,0,20.5,0c0.8,0,1.4-0.2,2.1-0.7c4.7-3.5,10-5.2,15.9-4.7c1.6,0.1,3.1,0.4,4.8,0.6
	c0-0.4,0-0.8,0-1.1c0-2.5,0.1-4.9-0.1-7.4c-0.1-1.8-1.3-3.2-3.1-3.5c-2-0.4-4.2-0.3-6.3-0.3c0,0.9,0,1.5,0,2.2
	c0,3.3-2.1,5.4-5.4,5.4c-8.1,0-16.3,0-24.4,0c-3.3,0-5.3-2-5.3-5.3c0-0.7,0-1.4,0-2.1c-1.9,0-3.6-0.1-5.3,0c-2.4,0.1-4.2,2-4.2,4.4
	c0,19.7,0,39.4,0,59.1c0,0.7,0.3,1.6,0.7,2.2c1,1.6,2.5,2.2,4.3,2.2c14.8,0,29.5,0,44.3,0c0.2,0,0.5,0,0.7,0c1.8-0.1,3.9-1.6,4-3.2
	c0.2-2.2,0-4.3,0-6.5c-0.1,0-0.1,0-0.2,0c-0.4,0.1-0.8,0.1-1.2,0.2c-5,1.1-9.8,0.5-14.4-1.5c-0.7-0.3-1.4-0.4-2.2-0.4
	c-8.2,0-16.4,0-24.6,0c-0.4,0-0.9,0-1.3-0.1c-1.3-0.3-1.8-1.6-1.2-2.7c0.5-0.8,1.2-0.9,2-0.9c6.4,0,12.9,0,19.3,0c0.3,0,0.7,0,1.1,0
	c-1.2-1.5-2.4-2.9-3.4-4.4c-0.4-0.5-0.7-0.8-1.4-0.8c-4.2,0-8.3,0-12.5,0c-1.1,0-2.3,0-3.4,0c-1.2,0-1.9-0.7-1.9-1.8
	c0-1.2,0.7-1.9,2-1.9c4.5,0,9.1,0,13.6,0c0.4,0,0.7,0,1.1-0.1c-0.5-1.8-0.9-3.5-1.3-5.3c-0.4,0-0.8,0-1.2,0c-4,0-8,0-12,0
	c-0.7,0-1.5-0.2-1.9-0.7c-0.4-0.4-0.4-1.3-0.2-2c0.2-0.8,1-1,1.7-1c4.2,0,8.3,0,12.5,0c0.4,0,0.7,0,1,0C34,55.5,34.2,53.8,34.4,52
	L34.4,52z M37.4,57.3c0,10.8,8.7,19.8,19.3,19.9c11.5,0.1,20.5-8.6,20.6-19.8c0.1-12-10.4-20.2-19.8-20.1
	C46.3,37.3,37.4,46.1,37.4,57.3L37.4,57.3z M36.7,26.2c4,0,8,0,12,0c1.5,0,2-0.5,2-1.9c0-2.5,0-5,0-7.6c0-1.4-0.4-1.9-1.9-1.9
	c-2,0-4.1,0-6.2,0c-1.8,0-2.1-0.3-2.4-2c-0.3-1.8-1.8-2.9-3.7-2.9c-1.8,0-2.9,1.2-3.1,3c-0.2,1.4-0.7,1.9-2.1,1.9
	c-2.2,0-4.3,0-6.5,0c-1.5,0-1.9,0.4-1.9,1.9c0,2.5,0,4.9,0,7.4c0,1.7,0.4,2.1,2.1,2.1C28.9,26.2,32.8,26.2,36.7,26.2L36.7,26.2z
	 M70,77.2c0.1,0.2,0.2,0.3,0.2,0.3c3.8,3.7,7.6,7.5,11.4,11.2c2.2,2.1,5.2,2.1,7.2,0.1c2.1-2.1,2-5-0.2-7.2
	C85,78,81.4,74.4,77.7,70.8c-0.2-0.2-0.4-0.4-0.7-0.6C75.2,73.1,72.9,75.4,70,77.2L70,77.2z"/>
<path class="st0" d="M53.1,64.1c2.8-2.5,5.5-4.8,8.2-7.2c2.4-2.1,4.7-4.1,7.1-6.2c1-0.9,2.2-0.9,3.1-0.1c0.8,0.7,0.7,1.8-0.3,2.6
	c-4.2,3.7-8.4,7.4-12.6,11c-1.3,1.1-2.6,2.3-3.9,3.4c-1,0.9-2,0.9-3.1,0c-2.7-2.3-5.4-4.7-8.1-7.1c-1-0.9-1-1.8-0.1-2.6
	c0.9-0.7,2-0.7,3,0.2C48.6,60.1,50.7,62,53.1,64.1L53.1,64.1z"/>
</svg>
