<?xml version="1.0" encoding="utf-8"?>
<!-- Generator: Adobe Illustrator 27.0.0, SVG Export Plug-In . SVG Version: 6.00 Build 0)  -->
<svg version="1.1" id="Layer_1" xmlns="http://www.w3.org/2000/svg" xmlns:xlink="http://www.w3.org/1999/xlink" x="0px" y="0px"
	 viewBox="0 0 100 100" style="enable-background:new 0 0 100 100;" xml:space="preserve">
<g>
	<path d="M13.84,66.51c0-2.48-0.03-4.96,0.01-7.44c0.04-2.92,1.69-4.71,4.55-4.75c5.16-0.07,10.33-0.06,15.49,0.01
		c2.56,0.04,4.31,1.7,4.36,4.28c0.11,5.29,0.12,10.59,0.01,15.88c-0.05,2.58-1.81,4.19-4.4,4.22c-5.16,0.06-10.32,0.05-15.49,0
		c-2.78-0.03-4.43-1.77-4.53-4.56c0-0.13-0.01-0.27-0.01-0.4C13.84,71.34,13.84,68.92,13.84,66.51z M34.35,66.7
		C34.35,66.7,34.35,66.7,34.35,66.7c0.01-2.15,0.13-4.3-0.06-6.43c-0.06-0.69-0.93-1.84-1.46-1.86c-4.49-0.15-8.98-0.13-13.47-0.03
		c-0.46,0.01-1.27,0.82-1.29,1.28c-0.16,4.42-0.18,8.84-0.23,13.26c-0.02,1.34,0.67,1.9,2,1.89c4.16-0.03,8.32-0.02,12.47-0.01
		c1.43,0.01,2.08-0.64,2.05-2.08C34.32,70.72,34.35,68.71,34.35,66.7z"/>
	<path d="M26.2,21.26c2.55,0,5.1-0.05,7.64,0.02c2.62,0.07,4.34,1.62,4.4,4.24c0.12,5.29,0.13,10.59,0.01,15.88
		c-0.06,2.62-1.8,4.24-4.38,4.27c-5.16,0.06-10.33,0.07-15.49,0.01c-2.8-0.03-4.51-1.78-4.53-4.55c-0.04-5.09-0.05-10.19,0-15.28
		c0.03-2.79,1.74-4.51,4.5-4.57C20.97,21.22,23.59,21.26,26.2,21.26z M26.07,41.73c0-0.01,0-0.03,0-0.04c2.15,0,4.29,0.01,6.44,0
		c1.2-0.01,1.86-0.54,1.85-1.83c-0.02-4.22,0-8.45,0.01-12.67c0-1.32-0.62-1.99-1.95-1.99c-4.22,0-8.44,0.01-12.67,0
		c-1.21,0-1.91,0.54-1.92,1.8c-0.01,4.28-0.01,8.57,0,12.85c0,1.46,0.81,1.96,2.2,1.91C22.05,41.68,24.06,41.73,26.07,41.73z"/>
	<path d="M65.93,64.57c-5.63,0-11.26,0-16.89,0c-0.54,0-1.22,0.17-1.57-0.09c-0.68-0.51-1.53-1.21-1.64-1.94
		c-0.08-0.55,0.75-1.42,1.38-1.86c0.48-0.33,1.28-0.28,1.94-0.28C60.4,60.4,71.66,60.4,82.92,60.4c0.34,0,0.67-0.03,1,0.02
		c1.34,0.17,2.31,0.74,2.25,2.28c-0.06,1.5-1.1,1.86-2.35,1.87c-2.35,0.02-4.69,0-7.04,0C73.17,64.57,69.55,64.57,65.93,64.57z"/>
	<path d="M65.92,32.01c-5.9,0-11.81,0.04-17.71-0.05c-0.79-0.01-1.81-0.55-2.27-1.18c-0.3-0.41,0.05-1.56,0.46-2.11
		c0.31-0.42,1.18-0.59,1.8-0.59c11.88-0.03,23.75-0.02,35.63-0.01c1.24,0,2.31,0.34,2.35,1.87c0.04,1.58-0.93,2.07-2.34,2.07
		C77.86,32.01,71.89,32.01,65.92,32.01z"/>
	<path d="M59.74,69.64c3.69,0,7.38,0,11.07,0c1.42,0,2.82,0.13,2.84,2.01c0.02,1.87-1.47,2.13-2.81,2.14
		c-7.38,0.06-14.76,0.03-22.13,0.02c-0.33,0-0.67-0.04-0.99-0.13c-1.19-0.31-2.37-0.95-1.9-2.3c0.26-0.75,1.45-1.63,2.26-1.67
		C51.96,69.55,55.85,69.64,59.74,69.64z"/>
	<path d="M59.47,40.75c-3.56,0-7.12,0.03-10.67-0.01c-1.35-0.02-2.86-0.05-2.84-2c0.02-1.97,1.41-2.13,2.94-2.13
		c7.25,0.01,14.5-0.01,21.75-0.01c0.27,0,0.54,0.01,0.81,0.02c1.22,0.04,2.08,0.52,2.19,1.84c0.11,1.36-0.74,2-1.91,2.13
		c-1.46,0.16-2.94,0.15-4.41,0.16C64.71,40.76,62.09,40.75,59.47,40.75z"/>
</g>
</svg>
