<?xml version="1.0" encoding="utf-8"?>
<!-- Generator: Adobe Illustrator 27.0.0, SVG Export Plug-In . SVG Version: 6.00 Build 0)  -->
<svg version="1.1" id="Layer_1" xmlns="http://www.w3.org/2000/svg" xmlns:xlink="http://www.w3.org/1999/xlink" x="0px" y="0px"
	 viewBox="0 0 100 100" style="enable-background:new 0 0 100 100;" xml:space="preserve">
<g>
	<path d="M19.2,36.8c-0.4-0.5-0.7-1-1-1.4c-1.1-1.7-1.7-3.6-2.1-5.6c-0.1-0.5-0.3-1-0.5-1.5c-1.6-3.1-2.8-6.3-3.4-9.7
		c-0.2-0.9-0.2-1.9,0-2.8c0.3-1.9,1.7-2.9,3.7-3.1c0.5,0,1-0.2,1.4-0.5c2.7-2.4,5.9-3.7,9.4-4.2c3.3-0.5,6.7-0.4,10,0.2
		c1.4,0.3,2.3,1.3,2.2,2.6c-0.2,1.8,0.4,3.3,1.1,4.8c1.4,2.9,1.7,5.9,0.5,9c-0.4,1.1-1,2.1-1.6,3.2c-0.5,0.8-0.9,1.7-1,2.7
		c-0.3,2.2-1.3,4.2-2.7,5.9c-0.1,0.1-0.2,0.2-0.3,0.5c0.3,0.1,0.6,0.1,0.9,0.1c5.8,0.3,10.9,5,11.6,10.8c0.2,1.7,0.1,3.5,0.1,5.2
		c0,0.6,0.2,1.2,0.6,1.6c0.6,0.6,1.2,1.2,1.8,1.8c1.2-0.8,1.9-1.9,2.2-3.4c0.4-1.8,1.2-3.4,2.2-4.9c0.7-1,0.9-2.1,0.9-3.3
		c0-6.1,0-12.3,0-18.4c0-2.9,0.5-5.7,1.9-8.3C59.9,13,64.2,9.8,70,9c9.3-1.3,17.6,4.8,19.2,14c0.4,2.3,0.3,4.7,0.3,7.1
		c0,5.2,0,10.5,0,15.7c0,0.5,0.1,1.1,0.4,1.5c2.7,4,3.8,8.5,3.5,13.3c-0.1,1.1,0,2.3,0,3.4c-0.1,2.3-1.6,3.7-3.8,3.7
		c-4.5,0-9.1,0.1-13.6,0c-1.4,0-2.3,0.1-2.9,1.6c-0.6,1.6-2,2.7-3.2,4c-6,6-12.1,12.1-18.1,18.1c-1.3,1.3-2.1,1.3-3.3,0
		C42,85.1,35.7,78.8,29.4,72.5c-1.2-1.2-2.3-2.5-3-4.1c-0.2-0.6-0.6-0.7-1.2-0.7c-4.8,0-9.5,0-14.3,0c-0.6,0-1.1,0-1.7-0.2
		c-1.7-0.4-2.7-1.8-2.7-3.6c0-4.9-0.1-9.8,0-14.6c0.1-5.8,4.3-10.7,9.9-11.9C17.3,37.1,18.2,37,19.2,36.8z M50,88.1
		c0.9-0.9,1.7-1.7,2.5-2.5c5.3-5.3,10.6-10.6,15.9-16c2.3-2.3,3.3-5,2.8-8.2c-0.6-3.6-2.7-6.1-6.1-7.4c-3.4-1.3-6.7-0.7-9.4,1.7
		c-1.4,1.2-2.7,2.6-4,3.9c-1.3,1.3-2,1.3-3.4,0c-1.3-1.2-2.5-2.5-3.8-3.7c-2.3-2.2-5-3-8.1-2.4c-3.6,0.6-6.1,2.8-7.3,6.2
		c-1.2,3.5-0.5,6.7,2,9.4c1.7,1.9,3.5,3.6,5.2,5.3c3.9,3.9,7.8,7.8,11.7,11.7C48.7,86.9,49.4,87.5,50,88.1z M43.9,51.2
		c0-1.1,0.2-2.2,0-3.2c-0.9-4.6-4.5-7.6-9.2-7.6c-5.1,0-10.2,0-15.3,0c-5.4,0-9.3,3.9-9.3,9.3c0,4.4,0,8.9,0,13.3
		c0,1,0.1,1.1,1.1,1.1c4.4,0,8.9,0,13.3,0c0.2,0,0.5,0,0.8-0.1c-0.2-5,1.5-9,5.6-11.9C34.9,49.4,39.3,49.3,43.9,51.2z M74.8,64.1
		c0.7,0,1.3,0,1.9,0c4.1,0,8.3,0,12.4,0c0.4,0,0.8-0.1,0.8-0.6c0-2.3,0.1-4.5-0.2-6.8c-0.7-6-3.9-10.3-9.4-12.8
		c-3.5-1.6-7.1-1.9-10.9-1.4c-4.8,0.5-8.7,2.7-11.6,6.6c-0.4,0.5-0.7,1.1-1,1.6c0,0,0.1,0.1,0.1,0.1c4.5-1.6,8.7-1.3,12.6,1.6
		C73.4,55.3,75,59.3,74.8,64.1z M65,39.6c-0.1-0.1-0.4-0.4-0.6-0.6c-1.5-1.6-2.8-3.5-2.9-5.7c-0.2-2.7-0.2-5.4-0.2-8.1
		c0-0.7,0.5-1.3,1.2-1.4c0.4-0.1,0.8-0.1,1.2,0c3,0.3,5.9-0.2,8.6-1.3c2-0.8,3.8-2.1,5.4-3.6c0.8-0.7,1.7-0.8,2.4-0.1
		c1.8,1.7,3,3.8,3.2,6.3c0.2,2.2,0.2,4.5,0.1,6.7c0,2-0.6,3.9-1.7,5.5c-0.6,0.9-1.3,1.7-1.9,2.5c2.1,1.1,4.1,2.2,6.1,3.2
		c0-0.1,0-0.3,0-0.5c0-4.4,0-8.8,0-13.2c0-1.7,0-3.4-0.2-5c-1-7.9-8.3-13.2-16.1-11.7c-6.3,1.2-10.9,6.6-11,13
		c-0.1,5.6,0,11.2,0,16.8c0,0.2,0,0.4,0,0.6C60.8,41.8,62.9,40.7,65,39.6z M34.6,26.2c0-1.4,0-2.4,0-3.4c0-1.6-0.9-2.5-2.5-2.5
		c-3.3,0-6.5,0-9.8,0c-0.4,0-0.8,0-1.2,0.1c-1,0.1-1.6,0.7-1.6,1.7c0,0.4,0,0.8,0,1.2c0,1.3,0.2,2.6,0,3.9c-0.3,2.8,0.5,5.3,2.4,7.3
		c2.3,2.6,5.9,3.1,8.8,1.2c1.9-1.2,3.1-3,3.5-5.2C34.5,29,34.5,27.4,34.6,26.2z M78.8,22.6c-0.3,0.2-0.5,0.4-0.7,0.5
		C76.5,24,75,25,73.4,25.7c-2.5,1.1-5.2,1.6-8,1.6c-0.5,0-0.7,0.1-0.6,0.6c0,0.5,0,0.9,0,1.4c0.1,1.4,0,2.8,0.4,4.1
		c1.1,3.7,4.6,5.9,8.4,5.4c3.2-0.4,6.3-3.4,6.4-6.6c0.1-2.2,0.1-4.5,0-6.7C79.9,24.5,79.5,23.5,78.8,22.6z M37.5,19.8
		c0.1,0,0.1-0.1,0.2-0.1c-0.3-0.9-0.6-1.7-0.9-2.6c-0.7-1.7-1.5-3.4-1.6-5.3c0-0.5-0.3-0.5-0.7-0.5c-1.7-0.1-3.4-0.2-5.1-0.1
		c-4.3,0.1-8.1,1.3-11,4.6c-0.4,0.5-1,0.7-1.7,0.5c-0.1,0-0.3-0.1-0.4-0.1c-0.8-0.1-1,0.1-0.9,0.9c0.1,0.7,0.2,1.4,0.3,2.1
		c0.1,0.4,0.1,0.8,0.2,1.1c0.1,0,0.1,0,0.2,0c0.1-0.2,0.3-0.5,0.4-0.7c1-1.7,2.4-2.7,4.3-2.7c4-0.1,7.9-0.1,11.9-0.1
		c1.2,0,2.3,0.5,3.2,1.3C36.6,18.7,37.1,19.3,37.5,19.8z"/>
	<path d="M67.6,63c0,1.4-0.5,2.6-1.4,3.6c-2,2.1-4,4.1-6.1,6.1c-2.7,2.7-5.5,5.5-8.2,8.2c-0.2,0.2-0.4,0.4-0.6,0.6
		c-0.9,0.8-1.9,0.8-2.6,0.1c-0.7-0.7-0.7-1.7,0.2-2.6c3.4-3.4,6.8-6.8,10.2-10.2c1.4-1.4,2.9-2.9,4.3-4.3c1.2-1.3,0.8-3.2-0.7-3.7
		c-0.8-0.3-1.5-0.1-2.2,0.3c-0.4,0.3-0.9,0.6-1.4,0.6c-1.3,0.1-2.2-1.2-1.6-2.4c0.4-0.9,1.2-1.4,2.1-1.7C63.6,56,67.6,58.7,67.6,63z
		"/>
</g>
</svg>
