<?xml version="1.0" encoding="utf-8"?>
<!-- Generator: Adobe Illustrator 27.0.0, SVG Export Plug-In . SVG Version: 6.00 Build 0)  -->
<svg version="1.1" id="Layer_1" xmlns="http://www.w3.org/2000/svg" xmlns:xlink="http://www.w3.org/1999/xlink" x="0px" y="0px"
	 viewBox="0 0 100 100" style="enable-background:new 0 0 100 100;" xml:space="preserve">
<style type="text/css">
	.st0{fill:#FFB600;}
</style>
<path class="st0" d="M38.3,95.7L38.3,95.7c0-18.5-15-46.7-33.5-46.7v0c18.5,0,33.5-15,33.5-33.5h0c0,18.5,15,33.5,33.5,33.5v0
	C53.3,49,38.3,77.1,38.3,95.7z"/>
<path class="st0" d="M64.4,34.8L64.4,34.8c0-5.1-4.1-12.9-9.3-12.9v0c5.1,0,9.3-4.1,9.3-9.3h0c0,5.1,4.1,9.3,9.3,9.3v0
	C68.5,21.9,64.4,29.7,64.4,34.8z"/>
<path class="st0" d="M76.2,88.7L76.2,88.7c0-7.1-5.8-18-12.9-18v0c7.1,0,12.9-5.8,12.9-12.9h0c0,7.1,5.8,12.9,12.9,12.9v0
	C81.9,70.7,76.2,81.6,76.2,88.7z"/>
</svg>
