<?xml version="1.0" encoding="utf-8"?>
<!-- Generator: Adobe Illustrator 27.0.0, SVG Export Plug-In . SVG Version: 6.00 Build 0)  -->
<svg version="1.1" id="Layer_1" xmlns="http://www.w3.org/2000/svg" xmlns:xlink="http://www.w3.org/1999/xlink" x="0px" y="0px"
	 viewBox="0 0 100 100" style="enable-background:new 0 0 100 100;" xml:space="preserve">
<style type="text/css">
	.st0{fill:#1940B3;}
</style>
<path class="st0" d="M82.89,78.55c-1.65-2.87-3.23-5.58-4.79-8.31c-0.86-1.51-0.55-2.24,1.13-2.69c1.37-0.37,2.75-0.72,4.48-1.16
	c-5.4-3.24-10.55-6.33-15.92-9.56c0,0.61-0.01,0.99,0,1.38c0.04,2.14,0.14,4.27,0.09,6.4c-0.01,0.49-0.41,1.23-0.81,1.39
	c-0.39,0.16-1.02-0.28-1.54-0.46c-0.42-0.14-0.85-0.39-1.28-0.39c-8.21-0.02-16.41-0.02-24.62-0.02c-7.42,0-14.84,0.01-22.26,0
	c-6.16,0-10.38-4.22-10.38-10.37c0-9.44,0-18.89,0-28.33c0.01-6.11,4.16-10.33,10.26-10.42c1.16-0.02,2.32-0.01,3.48,0.01
	c0.83,0.01,1.53,0.3,1.53,1.26c0.01,1.03-0.7,1.3-1.6,1.29c-1.27-0.01-2.55-0.02-3.82,0.01c-4.07,0.09-7.29,3.11-7.32,7.17
	c-0.08,9.89-0.08,19.79,0,29.68c0.03,3.8,2.9,6.72,6.66,7.1c0.52,0.05,1.05,0.07,1.57,0.07c15.36,0,30.73,0,46.09,0
	c0.44,0,0.88,0,1.39,0v-2.14h-1.47c-15.25,0-30.5,0-45.75,0c-4.24,0-6.35-2.11-6.35-6.34c0-9.03,0-18.06,0-27.09
	c0-4.2,2.17-6.36,6.38-6.36c21.43,0,42.87,0,64.3,0c4.13,0,6.33,2.18,6.33,6.3c0.01,3.37,0.03,6.75-0.03,10.12
	c-0.01,0.53-0.27,1.23-0.66,1.52c-0.84,0.64-1.82-0.13-1.83-1.39c-0.02-3.37-0.01-6.75-0.01-10.12c0-2.83-1.02-3.86-3.84-3.86
	c-21.43,0-42.87,0-64.3,0c-2.81,0-3.83,1.03-3.83,3.86c0,9.11,0,18.21,0,27.32c0,2.36,1.15,3.53,3.51,3.53
	c15.47,0.01,30.95,0,46.43,0c0.33,0,0.66-0.03,1.11-0.05c0-0.98,0-1.9,0-2.83c0.01-1.74,0.86-2.23,2.37-1.33
	c2.03,1.2,4.02,2.47,6.08,3.63c0.58,0.33,1.31,0.53,1.99,0.55c2.36,0.07,4.72,0.04,7.08,0.02c2.22-0.01,3.4-1.2,3.41-3.41
	c0.01-3.6-0.01-7.19,0.01-10.79c0.01-1.12,0.75-1.87,1.54-1.47c0.45,0.22,0.91,0.93,0.92,1.43c0.07,3.82,0.09,7.65,0.01,11.46
	c-0.06,2.96-2.41,5.19-5.37,5.27c-1.34,0.03-2.68,0.01-4.22,0.01c2,1.68,3.95,2.69,6.45,1.86c2.71-0.9,4.44-2.7,5.11-5.48
	c0.17-0.68,0.21-1.41,0.21-2.12c0.01-9.4,0.01-18.81,0.01-28.22c0-4.84-3.08-7.92-7.95-7.92c-18.32-0.01-36.65,0-54.97,0
	c-1.56,0-2.22-0.37-2.24-1.26c-0.01-0.89,0.69-1.31,2.21-1.31c18.29,0,36.57-0.01,54.86,0c6.46,0,10.6,4.17,10.6,10.64
	c0,9.11-0.07,18.21,0.03,27.32c0.06,5.27-2.09,8.91-7.22,10.87c0.39,0.26,0.8,0.39,1,0.68c0.34,0.48,0.82,1.11,0.72,1.57
	c-0.1,0.47-0.75,1.03-1.27,1.19c-1.86,0.56-3.76,0.97-5.81,1.48c0.37,0.68,0.66,1.26,0.99,1.83c1.18,2.05,2.36,4.08,3.54,6.13
	c0.79,1.38,0.61,2.02-0.79,2.83c-1.46,0.84-2.92,1.69-4.38,2.53c-1.78,1.03-2.23,0.89-3.28-0.93c-1.43-2.5-2.88-4.99-4.24-7.35
	c-1.38,1.28-2.75,2.54-4.1,3.83c-0.58,0.55-1.1,1.17-2.03,0.8c-0.92-0.37-0.94-1.16-0.96-1.97c-0.03-2.02-0.06-4.05-0.1-6.07
	c-0.02-0.91,0.29-1.61,1.28-1.62c1.01-0.01,1.28,0.73,1.27,1.62c-0.01,1.23,0,2.46,0,4.04c1.22-1.22,2.18-2.17,3.14-3.14
	c1.43-1.46,2.17-1.39,3.19,0.35c1.56,2.68,3.11,5.37,4.72,8.14c1.29-0.75,2.51-1.45,3.84-2.22L82.89,78.55z"/>
<path class="st0" d="M43.22,40.64c0-1.68-0.01-3.37,0-5.05c0.01-1.29,0.4-1.69,1.65-1.71c1.2-0.01,2.39-0.03,3.59,0
	c3.1,0.08,4.95,3.2,3.46,5.92c-0.35,0.63-0.39,1.02-0.03,1.68c1.51,2.69-0.28,5.83-3.38,5.98c-1.23,0.06-2.47,0.04-3.7,0.01
	c-1.16-0.02-1.58-0.48-1.59-1.68C43.21,44.08,43.22,42.36,43.22,40.64L43.22,40.64z M45.88,36.39v2.99c0.91,0,1.73,0.03,2.55-0.01
	c0.93-0.05,1.46-0.6,1.45-1.52c-0.01-0.87-0.56-1.38-1.41-1.44C47.62,36.34,46.77,36.39,45.88,36.39z M45.86,44.91
	c0.98,0,1.83,0.05,2.68-0.01c0.87-0.07,1.36-0.63,1.34-1.49c-0.02-0.86-0.51-1.39-1.4-1.42c-0.85-0.03-1.7-0.01-2.62-0.01V44.91
	L45.86,44.91z"/>
<path class="st0" d="M61.56,40.24c-1.77,2.26-2.3,2.42-4.16-0.4c0,1.56,0,2.84,0,4.12c0,0.71,0,1.42,0,2.14
	c-0.01,0.78-0.34,1.33-1.17,1.36c-0.88,0.03-1.3-0.51-1.32-1.33c-0.03-1.53-0.01-3.07-0.01-4.61c0-1.87,0-3.75,0-5.62
	c0-0.8-0.09-1.66,0.91-1.94c1.04-0.3,1.44,0.5,1.87,1.22c0.57,0.96,1.15,1.92,1.82,3.01c0.7-1.17,1.33-2.21,1.95-3.26
	c0.38-0.64,0.82-1.21,1.68-1c0.88,0.21,0.97,0.92,0.97,1.67c-0.01,3.37-0.01,6.74,0,10.11c0,0.91-0.17,1.73-1.27,1.73
	c-1.12,0-1.27-0.84-1.27-1.74C61.56,43.88,61.56,42.06,61.56,40.24L61.56,40.24z"/>
<path class="st0" d="M24.63,33.89c2.6,0,4.3,1.37,4.48,3.59c0.06,0.79-0.09,1.47-0.98,1.62c-0.87,0.16-1.29-0.36-1.5-1.15
	c-0.37-1.47-2.23-2.18-3.42-1.25c-0.37,0.29-0.7,1-0.6,1.42c0.11,0.47,0.64,0.99,1.12,1.19c0.52,0.22,1.18,0.08,1.78,0.13
	c2.15,0.21,3.69,1.97,3.64,4.12c-0.06,2.11-1.62,3.75-3.73,3.92c-1.92,0.15-3.72-0.08-4.8-1.93c-0.34-0.59-0.48-1.33-0.56-2.02
	c-0.09-0.73,0.33-1.35,1.06-1.27c0.48,0.05,1.14,0.49,1.31,0.91c0.69,1.69,1.15,2.03,2.89,1.74c0.82-0.14,1.28-0.64,1.28-1.45
	c0-0.87-0.48-1.4-1.37-1.47c-0.63-0.05-1.28-0.01-1.9-0.13c-2.24-0.45-3.51-2.24-3.28-4.51c0.2-1.99,1.87-3.42,4.03-3.46
	C24.26,33.89,24.44,33.89,24.63,33.89L24.63,33.89z"/>
<path class="st0" d="M40.78,39.27c0,1.27,0.05,2.55-0.01,3.82c-0.12,2.5-2.07,4.36-4.52,4.38c-2.45,0.01-4.5-1.81-4.6-4.29
	c-0.1-2.62-0.04-5.24-0.03-7.86c0-0.82,0.34-1.4,1.24-1.41c0.96-0.01,1.31,0.63,1.32,1.47c0.02,2.51-0.01,5.02,0.03,7.53
	c0.01,1.12,0.73,1.88,1.74,2c1.02,0.12,1.98-0.48,2.25-1.46c0.1-0.35,0.08-0.74,0.09-1.11c0.01-2.25,0-4.49,0.01-6.74
	c0.01-1.19,0.43-1.74,1.3-1.69c1.05,0.06,1.22,0.8,1.22,1.67c-0.01,1.24,0,2.47,0,3.71L40.78,39.27L40.78,39.27z"/>
<path class="st0" d="M77.04,36.38c0,2.72,0,5.33,0,7.94c0,0.6,0.01,1.2-0.01,1.79c-0.03,0.76-0.35,1.32-1.2,1.34
	c-0.9,0.02-1.25-0.57-1.31-1.36c-0.04-0.59-0.01-1.2-0.01-1.79c0-2.58,0-5.16,0-7.91c-0.63,0-1.21,0-1.79,0
	c-0.87,0-1.48-0.35-1.47-1.3c0.01-0.89,0.59-1.21,1.42-1.2c2.09,0.01,4.19,0.01,6.28,0c0.84,0,1.39,0.35,1.38,1.25
	c-0.01,0.89-0.59,1.23-1.4,1.25C78.33,36.4,77.74,36.38,77.04,36.38L77.04,36.38z"/>
<path class="st0" d="M69.07,40.65c0,1.72-0.01,3.44,0,5.15c0,0.88-0.23,1.62-1.25,1.64c-1.04,0.02-1.26-0.71-1.26-1.6
	c0.01-3.44,0.01-6.87,0-10.31c0-0.87,0.16-1.6,1.22-1.64c0.85-0.03,1.28,0.54,1.28,1.71C69.07,37.29,69.06,38.97,69.07,40.65
	L69.07,40.65z"/>
</svg>
