<?xml version="1.0" encoding="utf-8"?>
<!-- Generator: Adobe Illustrator 27.0.0, SVG Export Plug-In . SVG Version: 6.00 Build 0)  -->
<svg version="1.1" id="Layer_1" xmlns="http://www.w3.org/2000/svg" xmlns:xlink="http://www.w3.org/1999/xlink" x="0px" y="0px"
	 viewBox="0 0 100 100" style="enable-background:new 0 0 100 100;" xml:space="preserve">
<style type="text/css">
	.st0{fill:#3C4351;}
</style>
<path class="st0" d="M69.3,2.9C89.4,3,102.8,24.2,94,42.3c-0.4,0.9-0.5,1.6-0.1,2.5c0.9,2.6,1.7,5.2,2.6,7.7c1,3.2-1.3,5.8-4.6,5.2
	c-2.8-0.6-5.5-1.3-8.2-2c-1.4-0.4-2.7-0.4-4.2,0.2C63.7,62,46.8,53.2,42.7,36.7C38.9,21.7,49.3,6,64.6,3.5
	C66.2,3.3,67.7,3.1,69.3,2.9z M86.8,48.4c-0.4-1.2-0.6-2.2-1-3.1c-0.8-1.9-0.5-3.5,0.5-5.2c2.3-3.9,3-8.1,2.3-12.6
	c-1.6-10-10.3-17-20.5-16.5c-9.6,0.4-17.7,8.4-18.3,18.2c-0.4,7.5,2.6,13.6,8.9,17.7c6.3,4,13,4.2,19.7,0.8c1.2-0.6,2.4-0.8,3.7-0.5
	C83.6,47.6,85.1,47.9,86.8,48.4L86.8,48.4z"/>
<path class="st0" d="M12.8,87.5c2.8-0.7,5.2-1.3,7.7-1.9c1.8-0.5,3.4-0.4,5.2,0.5c16.2,8.2,35.1-0.8,39.2-18.7
	c0.6-2.4,1.7-3.6,3.7-3.7c2.6-0.1,4.6,2,4,4.6c-2.1,10.6-7.8,18.7-17.2,24c-10.5,5.9-21.3,6.1-32.3,1.3c-0.5-0.2-1.2-0.3-1.8-0.2
	c-4.4,1.1-8.7,2.1-13,3.3c-1.7,0.4-3.2,0.3-4.4-1c-1.1-1.2-1.3-2.7-0.7-4.3c1.3-3.8,2.6-7.7,3.8-11.5c0.2-0.5,0.1-1.2-0.1-1.7
	C-3,58.9,6.2,35.7,26.7,28.6c2-0.7,4.2-1.1,6.3-1.5c2.2-0.5,4.3,1,4.7,3c0.4,2.4-1,4.3-3.4,4.7c-3.6,0.5-6.9,1.7-10,3.5
	C11.1,46.2,6.8,62.7,14.7,76c0.9,1.5,1,3,0.5,4.7C14.4,82.7,13.7,85,12.8,87.5L12.8,87.5z"/>
<path class="st0" d="M49.8,58.4c-0.1,3.3-1.6,6.3-4.5,8.7c-0.9,0.7-1.7,1.5-2.4,2.4c-1.5,1.8-3.7,2.2-5.5,0.9
	c-1.8-1.3-2.2-3.7-0.8-5.5c1.2-1.5,2.6-2.8,4-4.1c1.2-1.2,1.6-2.5,1.2-4.1c-0.5-1.6-1.6-2.5-3.2-2.7c-1.6-0.2-3,0.4-3.8,1.8
	c-0.3,0.6-0.5,1.3-0.6,2c-0.2,2.5-1.9,4-4.3,3.9c-2.2-0.1-3.7-1.9-3.6-4.4C26.6,51.1,32,46,38.2,46.1C44.7,46.2,49.8,51.5,49.8,58.4
	L49.8,58.4z"/>
<path class="st0" d="M38.1,73.5c2.1,0,3.8,1.7,3.9,3.8c0,2.2-1.7,4-3.9,3.9c-2.2,0-3.9-1.8-3.8-4C34.3,75.1,36,73.5,38.1,73.5
	L38.1,73.5z"/>
<path class="st0" d="M69.3,32.8c2,0,3.6-1.6,3.6-3.6s-1.6-3.6-3.6-3.6s-3.6,1.6-3.6,3.6C65.8,31.2,67.4,32.8,69.3,32.8z"/>
<path class="st0" d="M80.1,32.8c2,0,3.6-1.6,3.6-3.6s-1.6-3.6-3.6-3.6s-3.6,1.6-3.6,3.6S78.1,32.8,80.1,32.8z"/>
<path class="st0" d="M58.6,32.8c2,0,3.6-1.6,3.6-3.6s-1.6-3.6-3.6-3.6S55,27.2,55,29.2C55.1,31.2,56.7,32.8,58.6,32.8z"/>
</svg>
