<?xml version="1.0" encoding="utf-8"?>
<!-- Generator: Adobe Illustrator 27.0.0, SVG Export Plug-In . SVG Version: 6.00 Build 0)  -->
<svg version="1.1" id="Layer_1" xmlns="http://www.w3.org/2000/svg" xmlns:xlink="http://www.w3.org/1999/xlink" x="0px" y="0px"
	 viewBox="0 0 100 64" style="enable-background:new 0 0 100 64;" xml:space="preserve">
<g>
	<path d="M31.9,5.1c7.4,0,14.7,0,22.1,0c10.4,0,17.2,6.8,17.2,17.2c0,9.8,0,19.5,0,29.3c0,5-2.3,7.3-7.3,7.3c-15,0-30,0-45,0
		c-8,0-14.2-4.5-16.2-11.9C2.3,45.5,2,43.8,2,42.2C2,32.1,2,22,2,11.9c0-4.3,2.4-6.7,6.7-6.8C16.5,5.1,24.2,5.1,31.9,5.1z"/>
	<path d="M98,32c0,6.9,0,13.9,0,20.8c0,2.5-0.7,4.5-3.1,5.6c-2.4,1-4.4,0.2-6.2-1.5c-3.8-3.4-7.6-6.7-11.4-10
		c-1.7-1.5-2.5-3.2-2.5-5.5c0.1-6.3,0.1-12.6,0-18.9c0-2.3,0.8-4,2.5-5.5c3.9-3.3,7.7-6.7,11.6-10.1c1.8-1.6,3.7-2.5,6-1.4
		c2.3,1.1,3.1,3,3.1,5.4C98,18,98,25,98,32z"/>
</g>
</svg>
