<?xml version="1.0" encoding="utf-8"?>
<!-- Generator: Adobe Illustrator 27.0.0, SVG Export Plug-In . SVG Version: 6.00 Build 0)  -->
<svg version="1.1" id="Layer_1" xmlns="http://www.w3.org/2000/svg" xmlns:xlink="http://www.w3.org/1999/xlink" x="0px" y="0px"
	 viewBox="0 0 100 100" style="enable-background:new 0 0 100 100;" xml:space="preserve">
<g>
	<g>
		<path d="M1,49.9c0-27,22.1-48.9,49.1-48.9C77,1.1,99,23.1,99,50c0,27.1-22,49-49,49C22.9,99,1,77,1,49.9z M23.1,51.8
			c8.3,6.9,16.3,13.5,24.3,20.3c10.2-11.5,20.1-22.6,30.2-34c-3.3-2.9-6.4-5.7-9.7-8.6C60.5,37.8,53.4,45.8,46,54
			c-5-4.1-9.8-8.1-14.7-12.2C28.5,45.3,25.9,48.4,23.1,51.8z"/>
	</g>
</g>
</svg>
