<?xml version="1.0" encoding="utf-8"?>
<!-- Generator: Adobe Illustrator 27.0.0, SVG Export Plug-In . SVG Version: 6.00 Build 0)  -->
<svg version="1.1" id="Layer_1" xmlns="http://www.w3.org/2000/svg" xmlns:xlink="http://www.w3.org/1999/xlink" x="0px" y="0px"
	 viewBox="0 0 100 100" style="enable-background:new 0 0 100 100;" xml:space="preserve">
<g>
	<path d="M32.6,57.6c1.6-1.6,3.1-3,4.6-4.5c0.5-0.5,1-1.1,1.6-1.6c0.7-0.6,0.8-1.3,0.6-2.1c-2-7.3-3.9-14.6-5.9-21.9
		c-0.6-2.2-1.2-4.4-1.7-6.6c-0.4-1.6-0.1-2.1,1.5-2.5c4.6-1.2,9.3-2.5,13.9-3.7c1.1-0.3,1.1-0.3,1.1-1.5c0-1,0-2.1,0-3.1
		c0-1.5,0.6-2,2.1-2.1c1.9,0,3.9,0,5.8,0c11.1,0,22.2,0,33.3,0c0.2,0,0.3,0,0.5,0c1.4,0,1.9,0.5,1.9,1.9c0,1.4,0,2.8,0,4.1
		c0,25.1,0,50.2,0,75.3c0,0.2,0,0.5,0,0.7c0,1.4-0.6,1.9-2,1.9c-13.4,0-26.7,0-40.1,0c-2.8,0-5.6,0-8.3,0c-2.8,0-5.2-0.9-7.2-2.8
		c-0.3-0.3-0.6-0.5-1-0.8c-0.3,0.6-0.6,1.1-0.9,1.6c-0.9,1.3-2.2,2-3.8,2c-5.3,0-10.6,0-15.9,0C10,92,8,90,8,87.2c0-9,0-18,0-27
		c0-2.7,2-4.7,4.8-4.7c5.3,0,10.5,0,15.8,0C30.3,55.5,31.6,56.3,32.6,57.6z M81,65.1c1.3,0.2,1.3,0.2,1.3-0.9c0-5.6,0-11.2,0-16.8
		c0-0.5,0.1-0.9,0.2-1.4c0.2-0.7,0.7-1.1,1.4-1c0.7,0,1.2,0.4,1.4,1.2c0.1,0.5,0.2,1.1,0.2,1.6c0,6,0,12.1,0,18.1
		c0,0.8,0.2,1.6,0.5,2.4c0.8,2.2,0.7,4.2-0.9,6c-0.5,0.6-1.2,1-1.8,1.4c-0.6,0.3-0.9,0.6-0.6,1.3c0.2,0.5,0.3,1,0.3,1.5
		c0.1,2.9-2.1,5.3-5,5.6c-0.6,0.1-0.9,0.3-0.9,0.9c0,1,0,2,0,3c0,0.7,0.2,0.9,0.9,0.9c2.9,0,5.8,0,8.7,0c2.2,0,1.9,0.4,1.9-1.9
		c0-12.3,0-24.6,0-36.9c0-12.6,0-25.2,0-37.8c0-0.8-0.3-1-1.1-1c-11.7,0-23.4,0-35.1,0c-1,0-1,0-1,1.1c0,10.4,0,20.9,0,31.3
		c0,4.3,0,8.6,0,12.9c0,0.6,0.2,0.9,0.8,0.8c0.5,0,1-0.1,1.5,0c0.8,0.1,1-0.2,1-1c0-5.9,0-11.9,0-17.8c0-4.5,0-9,0-13.5
		c0-1.4,0.4-1.9,1.6-2c2.7-0.4,4.1-1.7,4.4-4.4c0.1-1.2,0.6-1.6,1.7-1.6c4.9,0,9.9,0,14.8,0c1.3,0,1.7,0.4,1.9,1.6
		c0.4,2.6,1.8,4.2,4.5,4.4c1,0.1,1.5,0.5,1.5,1.5c0.1,2.2,0.1,4.5,0,6.7c-0.1,1.1-0.7,1.5-1.7,1.4c-0.8-0.1-1.3-0.7-1.4-1.7
		c0-1.2-0.1-2.4,0-3.6c0.1-0.9-0.3-1.5-1.2-1.8c-2.3-0.9-3.9-2.5-4.6-4.9c-0.2-0.5-0.5-0.6-0.9-0.6c-3.5,0-7.1,0-10.6,0
		c-0.8,0-1.2,0.3-1.5,1c-0.8,2.2-2.3,3.7-4.6,4.5c-0.8,0.3-1.1,0.8-1.1,1.6c0,9.8,0,19.5,0,29.3c0,0.6,0.2,0.8,0.8,0.8
		c2.4,0,4.9,0,7.3,0c0.2,0,0.4-0.1,0.8-0.1c-0.5-0.3-0.7-0.5-1-0.7c-2.6-1.8-3.9-5-3.3-7.9c0.9-4.3,4.8-6.9,9.2-6.2
		c3.4,0.6,6.6,4.1,6.2,7.9c-0.2,1.9-1.1,3.4-2.3,4.8c-0.6,0.7-1.3,1.4-2,2.1c2.3,0.1,4.5,0,6.1,1.7C81.5,60.7,81.7,62.8,81,65.1z
		 M40.8,54.1c-0.2,0.2-0.3,0.2-0.4,0.3c-2.1,2.1-4.2,4.1-6.2,6.3c-0.4,0.5-0.6,1.3-0.7,2c-0.1,0.5,0,1,0,1.5c0,6.1,0,12.1,0,18.2
		c0,1,0.1,1.9,1,2.6c0.9,0.7,1.8,1.5,2.6,2.3c1.2,1.1,2.5,1.6,4.1,1.6c7,0,14,0,21,0c3.3,0,6.5,0,9.8,0c1.5,0,2.5-1,2.4-2.5
		c0-1.4-1.1-2.2-2.8-2.2c-2.9,0-5.9,0-8.8,0c-1.1,0-2.3,0-3.4,0c-0.8,0-1.4-0.7-1.4-1.5c0-0.7,0.6-1.4,1.3-1.5
		c0.4-0.1,0.8-0.1,1.1-0.1c4.4,0,8.9,0,13.3,0c1.5,0,2.9,0,4.4-0.1c1.1-0.1,1.8-0.9,2-2c0.2-0.9-0.3-1.9-1.3-2.3
		c-0.5-0.2-1.1-0.3-1.6-0.3c-5.5,0-11.1,0-16.6,0c-0.5,0-1-0.1-1.4-0.2c-0.8-0.2-1.2-0.7-1.2-1.4c0-0.7,0.4-1.2,1.1-1.4
		c0.4-0.1,0.8-0.1,1.3-0.1c4.4,0,8.7,0,13.1,0c2.5,0,5,0,7.5,0c2,0,3.2-1.6,2.6-3.3c-0.4-1-1.3-1.5-2.6-1.5c-4,0-8.1,0-12.1,0
		c-3,0-5.9,0-8.9,0c-1,0-1.8-0.7-1.9-1.5c0-0.9,0.8-1.6,1.9-1.6c0.2,0,0.3,0,0.5,0c2.4,0,4.9,0,7.3,0c2.8,0,5.6,0,8.3,0
		c1.4,0,2.4-0.9,2.5-2.2c0.1-1.2-0.7-2.2-2.1-2.5c-0.3-0.1-0.7-0.1-1-0.1c-4.2,0-8.4,0-12.6,0c-6.2,0-12.5,0-18.7,0
		c-1.1,0-1.5-0.3-1.8-1.3c-0.3-1-0.5-2.1-0.8-3.1C41.1,55.3,40.9,54.8,40.8,54.1z M30.4,73.7c0-4.3,0-8.5,0-12.8
		c0-1.7-0.6-2.3-2.3-2.3c-1.6,0-3.2,0-4.9,0c-0.8,0-1,0.3-1,1c0,2.9,0,5.7,0,8.6c0,3.1,0,6.2,0,9.3c0,1.1-0.6,1.7-1.6,1.7
		c-0.9,0-1.4-0.6-1.5-1.7c0-1.1,0-2.2,0-3.3c0-4.9,0-9.8,0-14.7c0-0.7-0.2-1-1-1c-1.6,0.1-3.1,0-4.7,0c-1.9,0-2.4,0.5-2.5,2.4
		c0,0.2,0,0.3,0,0.5c0,6,0,11.9,0,17.9c0,2.4,0,4.9,0,7.3c0.1,1.8,0.6,2.2,2.3,2.2c4.7,0,9.4,0,14.1,0c2.4,0,2.8-0.4,2.8-2.8
		c0-0.2,0-0.4,0-0.6C30.4,81.6,30.4,77.6,30.4,73.7z M48.2,57.3c-0.1-0.5-0.2-0.8-0.3-1.2c-2-7.3-4-14.7-5.9-22
		c-0.4-1.5-0.2-1.9,1.2-2.5c2.3-1,3.3-2.7,3-5.2c-0.2-1.5-0.1-1.7,1.3-2.2c0.6-0.2,0.8-0.6,0.8-1.2c0-1.5,0-3,0-4.5
		c0-0.2,0-0.5-0.1-0.7c-0.3,0.1-0.6,0.1-0.8,0.2c-3.7,1-7.4,2-11.1,3c-1.5,0.4-1.3,0.2-0.9,1.6c2.1,7.9,4.3,15.7,6.4,23.6
		c0.9,3.4,1.8,6.8,2.8,10.2c0.1,0.4,0.5,1,0.8,1C46.3,57.4,47.2,57.3,48.2,57.3z M70.2,45.3c-2.5,0-4.7,2.1-4.7,4.6
		c0,2.6,2.2,4.8,4.7,4.7c2.6,0,4.7-2.2,4.6-4.7C74.8,47.4,72.7,45.3,70.2,45.3z M48.3,31.6c-1,0.8-1.9,1.5-2.6,2.2
		c-0.2,0.2-0.3,0.7-0.2,1c0.8,3,1.6,5.9,2.4,8.9c0.1,0.2,0.2,0.4,0.3,0.6c0.1,0,0.1,0,0.2-0.1C48.3,40.1,48.3,35.9,48.3,31.6z"/>
	<path d="M83.9,37.6c0.9,0,1.5,0.6,1.5,1.5c0,0.9-0.6,1.5-1.6,1.5c-0.8,0-1.4-0.7-1.5-1.5C82.4,38.3,83,37.6,83.9,37.6z"/>
	<path d="M20.7,82.4c0.9,0,1.5,0.6,1.5,1.5c0,0.9-0.6,1.5-1.5,1.5c-0.8,0-1.5-0.6-1.5-1.5C19.2,83,19.8,82.4,20.7,82.4z"/>
</g>
</svg>
