<?xml version="1.0" encoding="utf-8"?>
<!-- Generator: Adobe Illustrator 27.0.0, SVG Export Plug-In . SVG Version: 6.00 Build 0)  -->
<svg version="1.1" id="Layer_1" xmlns="http://www.w3.org/2000/svg" xmlns:xlink="http://www.w3.org/1999/xlink" x="0px" y="0px"
	 viewBox="0 0 100 100" style="enable-background:new 0 0 100 100;" xml:space="preserve">
<g>
	<path d="M11.4,81.1c-1.8,0-3.4,0-5,0c-1.8,0-2.4-0.5-2.4-2.3c0-16.2,0-32.4,0-48.6c0-0.7,0.4-1.5,0.9-2C10,23,15.2,17.9,20.3,12.7
		c0.8-0.8,1.6-1.1,2.7-1.1c12.2,0,24.3,0,36.5,0c2.1,0,2.6,0.5,2.6,2.6c0,1.5,0,3,0,4.7c1.7,0,3.3,0,4.9,0c1.9,0,2.5,0.5,2.5,2.4
		c0,2.8,0,5.7,0,8.5c0,0.7,0.2,1,0.8,1.3C78.2,35,82.9,41.1,84,49.8c0.5,4-0.1,7.8-1.8,11.5c-0.4,0.9-0.2,1.4,0.4,2
		c3.7,3.7,7.5,7.4,11.2,11.1c2.9,2.9,2.9,7.3,0,10.2c-2.9,2.9-7.4,2.9-10.3,0c-3.8-3.7-7.5-7.4-11.2-11.2c-0.7-0.7-1.3-0.7-2.1-0.4
		c-0.9,0.3-1,0.9-1,1.7c0,3.8,0,7.5,0,11.3c0,2-0.5,2.5-2.5,2.5c-17.7,0-35.4,0-53,0c-1.9,0-2.4-0.5-2.4-2.4
		C11.4,84.4,11.4,82.9,11.4,81.1z M41.5,40.8c-0.7,0-1.1,0-1.6,0c-8.5,0-17.1,0-25.6,0c-0.5,0-1,0-1.4-0.1c-1-0.2-1.5-0.9-1.4-1.9
		c0.1-1,0.6-1.6,1.6-1.7c0.4,0,0.8,0,1.2,0c9.6,0,19.2,0,28.8,0c0.8,0,1.4-0.2,2-0.8c3-3.2,6.6-5.3,10.9-6.3
		c0.7-0.2,1.5-0.3,2.2-0.5c0-4.8,0-9.5,0-14.2c-11.4,0-22.7,0-34.1,0c0,0.5,0,0.9,0,1.3c0,4.2,0,8.4,0,12.5c0,1.9-0.5,2.5-2.4,2.5
		c-4.2,0-8.4,0-12.6,0c-0.4,0-0.8,0-1.3,0c0,15.4,0,30.6,0,45.9c16.9,0,33.6,0,50.5,0c0-0.4,0-0.7,0.1-1c0.2-1.2-0.2-1.7-1.5-1.9
		c-2.9-0.5-5.6-1.7-8.1-3.3c-0.6-0.4-1.4-0.6-2-0.6c-10.9,0-21.7,0-32.6,0c-0.4,0-0.8,0-1.2-0.1c-0.8-0.2-1.3-0.7-1.4-1.5
		c-0.1-0.8,0.1-1.6,1-1.9c0.5-0.2,1.1-0.2,1.6-0.2c9.4,0,18.9,0,28.3,0c0.4,0,0.8,0,1.3,0c-0.2-0.3-0.3-0.5-0.4-0.6
		c-2.1-2.8-3.5-6-4.2-9.4c-0.2-0.9-0.6-1.1-1.5-1.1c-7.8,0-15.5,0-23.3,0c-0.5,0-1,0-1.4-0.1c-0.9-0.2-1.4-0.8-1.4-1.7
		c0-1,0.4-1.6,1.4-1.8c0.4-0.1,0.9-0.1,1.3-0.1c7.7,0,15.4,0,23.1,0c0.4,0,0.9,0,1.4-0.1C38.6,48,39.6,44.4,41.5,40.8z M61.2,71.1
		c10.5,0,19.1-8.6,19.1-19c0-10.5-8.6-19.2-19-19.2c-10.6,0-19.3,8.6-19.3,19.1C42.1,62.5,50.7,71.1,61.2,71.1z M15.1,84.7
		c16.8,0,33.6,0,50.4,0c0-3.4,0-6.8,0-10.2c-1.2,0.2-2.4,0.3-3.5,0.4c0,1.2,0,2.4,0,3.5c0,2.2-0.5,2.6-2.7,2.6
		c-14.3,0-28.6,0-42.8,0c-0.4,0-0.9,0-1.3,0C15.1,82.4,15.1,83.5,15.1,84.7z M74.9,70.7c1.2,1.2,2.6,2.6,4,3.9
		c2.5,2.4,4.9,4.9,7.4,7.3c1.5,1.4,3.7,1.3,5.1-0.2c1.4-1.4,1.3-3.3-0.2-4.8c-1.2-1.2-2.5-2.5-3.7-3.7c-2.6-2.6-5.2-5.2-7.5-7.6
		C78.2,67.4,76.6,69,74.9,70.7z M10.7,27.8c3.1,0,6.3,0,9.6,0c0-3.2,0-6.4,0-9.6C17.1,21.5,13.9,24.6,10.7,27.8z M62,29.1
		c1.2,0.1,2.3,0.3,3.5,0.4c0-2.3,0-4.6,0-6.8c-1.2,0-2.3,0-3.5,0C62,24.9,62,27,62,29.1z"/>
	<path d="M41.6,22.3c3.8,0,7.5,0,11.3,0c1.4,0,2.2,0.8,2,2c-0.1,0.9-0.5,1.4-1.4,1.6c-0.4,0.1-0.9,0.1-1.3,0.1c-7.1,0-14.2,0-21.3,0
		c-0.3,0-0.5,0-0.8,0c-1.2-0.1-2-0.8-2-1.9c0-1.1,0.8-1.8,2.1-1.8C34,22.2,37.8,22.3,41.6,22.3z"/>
	<path d="M46.1,51.3c0.3-7.5,6.5-13.9,14-14.4c0.3,0,0.7,0,1,0c1.2,0.1,1.8,0.7,1.9,1.8c0,1.1-0.6,1.8-1.7,1.9
		c-0.7,0.1-1.4,0.1-2.1,0.2c-5.5,1.1-9.1,5.4-9.4,10.9c-0.1,1.7-1.3,2.5-2.7,1.9C46.1,53.2,46.1,52.3,46.1,51.3z"/>
</g>
</svg>
