<?xml version="1.0" encoding="utf-8"?>
<!-- Generator: Adobe Illustrator 26.0.0, SVG Export Plug-In . SVG Version: 6.00 Build 0)  -->
<svg version="1.1" id="Layer_1" xmlns="http://www.w3.org/2000/svg" xmlns:xlink="http://www.w3.org/1999/xlink" x="0px" y="0px"
	 viewBox="0 0 100 100" style="enable-background:new 0 0 100 100;" xml:space="preserve">
<g>
	<path d="M71.66,92.19c0-0.5,0-0.9,0-1.3c0-16.2-0.02-32.39,0.05-48.59c0.01-1.15,0.78-2.28,1.09-3.45c0.38-1.43,1.38-2,2.66-2.5
		c5.75-2.22,11.47-4.51,17.19-6.79c3.14-1.25,5.79,0.46,5.87,3.88c0.06,2.32,0.01,4.65,0.01,6.97c0,12.33,0,24.67,0,37
		c0,3.47-0.5,4.27-3.72,5.57c-7.45,3-14.92,5.97-22.38,8.95C72.24,92.02,72.03,92.07,71.66,92.19z"/>
	<path d="M24.54,30.81c0.59,2.01,1.13,3.87,1.7,5.73c0.17,0.57,0.32,1.18,0.64,1.67c1.33,2.01,1.48,4.21,1.47,6.54
		c-0.06,12.52-0.04,25.04,0,37.56c0,1.06-0.31,1.55-1.31,1.94c-6.57,2.59-13.1,5.26-19.66,7.88c-3.09,1.23-5.9-0.71-5.92-4.09
		c-0.04-4.87-0.01-9.75-0.01-14.62c0-9.82,0-19.64,0-29.47c0-3.1,0.69-4.18,3.6-5.35C11.52,36,18,33.43,24.54,30.81z"/>
	<path d="M70.16,28.13c-0.04,2.38-0.95,5.3-2.22,8.11c-3.24,7.18-7.72,13.59-12.4,19.88c-0.92,1.23-1.85,2.45-2.81,3.65
		c-1.56,1.94-3.82,2.06-5.36,0.1c-5.95-7.54-11.57-15.3-15.56-24.11c-2.51-5.55-2.72-11.17-0.07-16.72c2.56-5.37,6.74-9,12.49-10.68
		c5.02-1.46,9.96-1.07,14.66,1.17c4.07,1.95,7.14,5.03,9.17,9.07C69.44,21.35,70.09,24.3,70.16,28.13z M50.02,33.11
		c3.62-0.02,6.71-3.12,6.74-6.75c0.03-3.64-3.15-6.83-6.8-6.8c-3.59,0.02-6.74,3.17-6.74,6.75C43.23,29.99,46.36,33.13,50.02,33.11z
		"/>
	<path d="M33.96,50.92c2.4,3.33,4.63,6.51,6.96,9.63c1.34,1.79,2.62,3.64,4.6,4.86c3.22,1.98,7.72,1.75,10.24-1.04
		c2.58-2.85,4.81-6.02,7.15-9.08c1.05-1.38,2-2.84,3.16-4.5c0,14,0,27.71,0,41.6c-1.61-0.45-3.18-0.87-4.73-1.32
		c-8.85-2.53-17.69-5.08-26.54-7.6c-0.6-0.17-0.95-0.35-0.95-1.1c0.03-10.28,0.02-20.55,0.02-30.83
		C33.86,51.4,33.9,51.26,33.96,50.92z"/>
</g>
</svg>
