<?xml version="1.0" encoding="utf-8"?>
<!-- Generator: Adobe Illustrator 27.0.0, SVG Export Plug-In . SVG Version: 6.00 Build 0)  -->
<svg version="1.1" id="Layer_1" xmlns="http://www.w3.org/2000/svg" xmlns:xlink="http://www.w3.org/1999/xlink" x="0px" y="0px"
	 viewBox="0 0 100 100" style="enable-background:new 0 0 100 100;" xml:space="preserve">
<g>
	<path d="M70.75,89.78c0-2.72,0-5.15,0-7.58c0.03-12.76,0.01-25.52,0.14-38.28c0.02-1.71,0.64-3.48,1.34-5.07
		c0.33-0.76,1.41-1.34,2.28-1.68c5.25-2.11,10.54-4.14,15.82-6.18c3.71-1.43,6,0.04,6.05,4.05c0.08,6.1,0.01,12.2,0,18.29
		c0,7.22,0,14.45,0,21.67c0,0.75-0.04,1.5-0.08,2.25c-0.08,1.62-0.86,2.72-2.37,3.32C86.32,83.59,78.72,86.61,70.75,89.78z
		 M91.76,35.44c-0.61,0.21-1.05,0.34-1.47,0.5c-4.06,1.57-8.12,3.15-12.18,4.72c-2.49,0.97-2.63,1.18-2.64,3.92
		C75.45,54.39,75.41,64.2,75.39,74c-0.01,2.9,0,5.8,0,8.9c0.6-0.2,1.04-0.33,1.46-0.49c4.45-1.74,8.87-3.54,13.35-5.2
		c1.29-0.48,1.61-1.16,1.61-2.46c-0.05-12.06-0.03-24.12-0.03-36.17C91.76,37.59,91.76,36.62,91.76,35.44z"/>
	<path d="M25.56,32.14c0.27,0.87,0.49,1.72,0.79,2.54c0.64,1.75,1.41,3.46,1.94,5.24c0.43,1.42,0.83,2.91,0.83,4.38
		c0.07,11.91,0.03,23.83,0.05,35.74c0,1.2-0.39,1.88-1.54,2.33c-6.11,2.37-12.18,4.84-18.29,7.21c-3.31,1.28-5.73-0.41-5.74-3.96
		C3.59,71.78,3.62,57.94,3.58,44.1c-0.01-2.24,0.76-3.75,2.9-4.59c6.15-2.39,12.28-4.84,18.42-7.26
		C25.06,32.19,25.25,32.19,25.56,32.14z M8.17,84.92c0.43-0.05,0.58-0.03,0.71-0.08c4.92-1.94,9.82-3.91,14.76-5.81
		c0.9-0.35,0.86-0.95,0.85-1.67c-0.01-10.17-0.11-20.35,0.05-30.52c0.05-3.12-0.66-5.87-2.19-8.59c-0.25,0.08-0.56,0.16-0.85,0.28
		c-3.96,1.55-7.91,3.15-11.9,4.64c-1.1,0.41-1.46,0.98-1.46,2.15C8.19,56.72,8.17,68.11,8.17,79.5C8.17,81.26,8.17,83.03,8.17,84.92
		z"/>
	<path d="M50.11,10c11.05,0,19.67,8.94,18.95,19.97c-0.16,2.45-1.1,4.94-2.13,7.21c-3.66,8.09-8.98,15.13-14.49,22.02
		c-1.47,1.84-3.37,1.88-4.79,0.15c-5.84-7.07-11.1-14.5-15.07-22.82C26.6,24,35.94,9.9,50.11,10z M49.82,54.87
		c0.3-0.25,0.47-0.34,0.57-0.48c4.79-6.26,9.53-12.56,12.65-19.87c0.76-1.77,1.37-3.76,1.4-5.66c0.11-10.19-9.69-16.24-18.57-13.7
		c-8.71,2.48-12.96,11.53-8.92,19.6c2.09,4.18,4.56,8.18,7.07,12.13C45.75,49.65,47.85,52.18,49.82,54.87z"/>
	<path d="M65.2,51.63c0,12.7,0,25.39,0,38.27c-4.04-1.14-7.98-2.25-11.93-3.36c-5.77-1.62-11.53-3.24-17.3-4.84
		c-0.9-0.25-1.42-0.58-1.41-1.7c0.05-9.33,0.03-18.66,0.03-28c0-0.18,0.03-0.36,0.06-0.86c0.69,0.91,1.23,1.63,1.77,2.34
		c2.32,3.06,4.57,6.18,6.97,9.17c3.16,3.94,9.63,4.54,13.04-0.03c2.52-3.38,5.14-6.68,7.71-10.02c0.28-0.36,0.53-0.73,0.8-1.1
		C65.03,51.55,65.11,51.59,65.2,51.63z M60.5,83.8c0-6.28,0-12.4,0-18.96c-2.76,3.78-6.19,5.58-10.43,5.57
		c-4.25-0.01-7.73-1.83-10.51-5.02c-0.15,0.19-0.25,0.26-0.25,0.32c-0.02,3.79-0.06,7.59,0,11.38c0.01,0.36,0.59,0.9,1.01,1.02
		c3.54,1.05,7.1,2.03,10.66,3.03C54.11,82.02,57.25,82.9,60.5,83.8z"/>
	<path d="M58.75,27.69c0,4.65-4.03,8.65-8.74,8.67c-4.78,0.03-8.84-3.97-8.87-8.71c-0.02-4.59,4.08-8.64,8.77-8.66
		C54.71,18.97,58.75,22.95,58.75,27.69z M50.04,23.63c-2.25-0.02-4.22,1.84-4.25,4c-0.02,2.17,1.94,4.14,4.13,4.14
		c2.23,0.01,4.15-1.9,4.14-4.11C54.07,25.48,52.24,23.65,50.04,23.63z"/>
</g>
</svg>
