<?xml version="1.0" encoding="utf-8"?>
<!-- Generator: Adobe Illustrator 27.0.0, SVG Export Plug-In . SVG Version: 6.00 Build 0)  -->
<svg version="1.1" id="Layer_1" xmlns="http://www.w3.org/2000/svg" xmlns:xlink="http://www.w3.org/1999/xlink" x="0px" y="0px"
	 viewBox="0 0 100 100" style="enable-background:new 0 0 100 100;" xml:space="preserve">
<g>
	<path d="M16.7,25c0,2,0,3.9,0,5.8c0,0.3,0.4,0.7,0.7,0.8c1.8,0.9,3.2,2.2,3.9,4c0.3,0.8,0.9,0.8,1.5,0.8c4.3,0,8.5,0.1,12.8,0
		c6.3-0.2,13.4,4.5,13.9,12.8c0.5,7.8-5.6,14-12.6,14.3c-5.7,0.2-11.4,0-17,0.1c-3.9,0-7.1,2.2-8.3,5.5c-2,5.6,1.9,11.2,7.9,11.4
		c1.8,0.1,3.7,0,5.5,0c13.5,0,27,0,40.5,0c1,0,1.6-0.2,2.1-1.2c1.5-3.2,5.4-5,8.8-4.2c3.7,0.9,6.4,4.2,6.4,7.9c0,3.7-2.7,7-6.4,7.9
		c-3.3,0.8-7.2-1-8.8-4.2c-0.5-1-1.1-1.2-2.1-1.2c-15.3,0-30.6,0-45.9,0c-6.6,0-11.6-3.8-13.4-10.1c-2.3-8,4-16.7,12.4-16.9
		c5.6-0.1,11.3,0,16.9,0c4.7,0,8.4-3.4,8.7-7.8c0.4-4.7-3.3-8.8-8.2-9c-4.6-0.2-9.2-0.1-13.7,0c-0.4,0-1,0.5-1.2,0.8
		c-1.7,3.4-5.1,5.1-8.8,4.5c-3.4-0.6-6.1-3.5-6.6-7.2c-0.4-3.2,1.3-6.4,4.3-7.9c0.9-0.4,1.1-1,1.1-1.9c0-5.9,0-11.8,0-17.7
		c0-2.5,0.8-3.3,3.3-3.3c5.1,0,10.2,0,15.3,0c2.2,0,3.2,1,3.2,3.2c0,3.2,0,6.4,0,9.6c0,2.3-1,3.3-3.2,3.3C25.7,25,21.3,25,16.7,25z
		 M16.8,14.1c0,2,0,3.9,0,5.8c3.7,0,7.4,0,11.1,0c0-2,0-3.9,0-5.8C24.2,14.1,20.5,14.1,16.8,14.1z M11.2,38.9c0,1.6,1.2,2.9,2.8,3
		c1.6,0.1,3-1.3,3-3c0-1.6-1.4-2.9-2.9-2.9C12.5,36,11.3,37.3,11.2,38.9z M77.8,83c0-1.6-1.3-2.9-2.8-2.9c-1.5,0-2.9,1.3-2.9,2.9
		c0,1.6,1.4,3,2.9,3C76.6,85.9,77.8,84.6,77.8,83z"/>
	<path d="M74.9,14.3c7.8,0.1,14.9,4.8,17.7,12c3,7.4,1.2,15.5-4.6,21.1c-0.6,0.6-1.1,1.3-1.4,2c-3,5.9-6,11.8-9,17.7
		c-0.6,1.2-1.5,2.1-3,1.9c-1.2-0.1-1.8-1-2.3-2c-3-5.9-6-11.9-9.1-17.8c-0.3-0.7-0.8-1.3-1.4-1.9c-5.5-5.5-7.4-12.1-5.1-19.5
		c2.2-7.2,7.3-11.6,14.7-13.1C72.6,14.5,73.7,14.5,74.9,14.3z M74.9,60.7c0.3-0.5,0.4-0.7,0.6-1c2.2-4.4,4.5-8.8,6.8-13.2
		c0.5-1,1.3-2,2.1-2.8c3.5-3.4,5-7.5,4.3-12.3c-0.8-6-5.7-10.8-11.7-11.7c-6.1-0.9-12,2.2-14.6,7.8c-2.7,5.6-1.4,12.1,3.2,16.3
		c0.8,0.8,1.5,1.7,2,2.7C70.1,51.1,72.4,55.8,74.9,60.7z"/>
	<path d="M74.9,41.5c-4.4,0-8.1-3.7-8-8.1c0.1-4.5,3.7-8,8.3-8c4.4,0.1,8,3.7,7.9,8.1C82.9,38,79.3,41.5,74.9,41.5z M77.8,33.5
		c0-1.6-1.2-2.9-2.8-3c-1.6,0-3,1.4-3,3c0,1.6,1.4,2.9,2.9,2.9C76.5,36.4,77.8,35.1,77.8,33.5z"/>
</g>
</svg>
