<?xml version="1.0" encoding="utf-8"?>
<!-- Generator: Adobe Illustrator 27.0.0, SVG Export Plug-In . SVG Version: 6.00 Build 0)  -->
<svg version="1.1" id="Layer_1" xmlns="http://www.w3.org/2000/svg" xmlns:xlink="http://www.w3.org/1999/xlink" x="0px" y="0px"
	 viewBox="0 0 100 100" style="enable-background:new 0 0 100 100;" xml:space="preserve">
<g>
	<path d="M50.3,91c-12.4,0-24.8,0-37.2,0c-0.9,0-2-0.2-2.8-0.6c-1.6-0.7-1.6-2.4-0.2-3.3c1-0.6,1.3-1.5,1.4-2.5
		c0.1-1.4,0.4-2.8,0.6-4.2c0.3-1.6,1.2-2.7,2.7-3.3c1.2-0.4,1.5-1.2,1.5-2.4c-0.1-8.4-0.1-16.7,0-25.1c0-1.2-0.3-1.8-1.5-2.2
		c-2.3-0.7-3.3-2.4-3.3-4.7c0-1.9,0-3.8,0.2-5.7c0.2-2.1,1.4-3.7,3.1-4.9c8.4-5.8,16.8-11.5,25.2-17.3c1.8-1.3,3.7-2.5,5.5-3.8
		c3.3-2.3,5.5-2.3,9,0c9,6.2,17.9,12.4,26.9,18.5c1.4,1,2.8,1.9,4.2,2.9c1.9,1.3,2.9,3.2,3,5.5c0.1,2,0,4.1-0.2,6.1
		c-0.2,1.8-1.5,2.8-3.2,3.3c-1.1,0.4-1.4,1-1.4,2.1c0,8.6,0,17.1,0,25.7c0,1,0.2,1.6,1.3,1.9c2.6,0.7,3.5,2.8,3.6,5.3
		c0,0.6,0,1.1-0.1,1.7c0,1.1,0.1,2.2,1.1,2.8c0.9,0.6,1.4,1.4,1.1,2.4c-0.3,0.9-1.6,1.7-2.7,1.7c-3.3,0-6.5,0-9.8,0
		C69,91,59.7,91,50.3,91C50.3,91,50.3,91,50.3,91z M84,42.6c0.1-0.8,0.2-1.6,0.2-2.3c0-2.2-0.6-4-2.7-5.4
		C71.6,28.2,61.8,21.3,52,14.5c-1.5-1-2.3-1-3.8,0c-3,2-5.9,4.1-8.9,6.1c-7.1,4.9-14.3,9.9-21.4,14.9c-0.7,0.5-1.5,1.4-1.6,2.2
		c-0.3,1.6-0.1,3.2-0.1,4.9C38.9,42.6,61.4,42.6,84,42.6z M50.1,86.2c10.3,0,20.7,0,31,0c2.9,0,2.9,0,2.9-2.9c0-1.9,0-1.9-1.9-1.9
		c-20.9,0-41.8,0-62.7,0c-3.2,0-3.1,0-3.2,3.3c0,1.3,0.4,1.6,1.6,1.6C28.6,86.2,39.4,86.2,50.1,86.2z M41.6,47.6c-2.5,0-4.9,0-7.2,0
		c-1,0-1.2,0.4-1.2,1.2c0,8.9,0,17.7,0,26.6c0,1,0.4,1.3,1.3,1.2c1.9,0,3.8-0.1,5.8,0c1.1,0,1.4-0.4,1.4-1.5c0-8.7,0-17.5,0-26.2
		C41.6,48.5,41.6,48.1,41.6,47.6z M58.8,47.6c-0.1,0.3-0.1,0.4-0.1,0.5c0,9.2,0,18.4,0,27.5c0,0.9,0.5,1,1.2,1c2,0,4,0,6,0
		c1,0,1.4-0.3,1.4-1.3c0-3.4,0-6.9,0-10.3c0-5.4,0-10.8,0-16.2c0-0.4-0.4-1.2-0.6-1.2C63.9,47.6,61.4,47.6,58.8,47.6z M53.7,62.1
		c0-4.4,0-8.9,0-13.3c0-0.9-0.2-1.3-1.1-1.2c-1.7,0.1-3.3,0-5,0c-0.8,0-1.1,0.3-1.1,1.1c0,8.9,0,17.9,0,26.8c0,0.9,0.4,1.1,1.2,1.1
		c1.6,0,3.3-0.1,4.9,0c1,0,1.2-0.3,1.2-1.3C53.6,71,53.7,66.5,53.7,62.1z M71.9,62c0,4.5,0,9,0,13.5c0,0.9,0.2,1.3,1.2,1.2
		c1.6-0.1,3.2-0.1,4.8,0c1,0,1.4-0.4,1.3-1.4c-0.1-1.3,0-2.6,0-3.9c0-7.5,0-14.9,0-22.4c0-1.1-0.3-1.5-1.5-1.5
		c-1.5,0.1-2.9,0.1-4.4,0c-1.1-0.1-1.4,0.2-1.4,1.3C71.9,53.3,71.9,57.7,71.9,62z M21.1,47.7c0,1.8,0,3.4,0,5.1c0,7.5,0,15.1,0,22.6
		c0,1,0.3,1.4,1.3,1.3c1.4-0.1,2.9-0.1,4.3,0c1.2,0.1,1.5-0.3,1.5-1.5c-0.1-8.7,0-17.5,0-26.2c0-0.4,0-0.9-0.1-1.4
		C25.8,47.7,23.6,47.7,21.1,47.7z"/>
	<path d="M57.2,30.7c0,3.9-3.2,7.1-7,7.1c-3.8,0-7.2-3.3-7.2-7c-0.1-3.9,3.3-7.3,7.3-7.2C54.1,23.5,57.2,26.7,57.2,30.7z M46.4,30.7
		c0,2.1,1.7,3.8,3.7,3.8c2,0,3.8-1.8,3.8-3.8c0-2.1-1.7-3.8-3.9-3.8C47.9,27,46.3,28.6,46.4,30.7z"/>
</g>
</svg>
